<?xml version="1.0" encoding="utf-8"?>
<!-- Generator: Adobe Illustrator 24.2.3, SVG Export Plug-In . SVG Version: 6.00 Build 0)  -->
<svg version="1.1" id="Camada_1" xmlns="http://www.w3.org/2000/svg" xmlns:xlink="http://www.w3.org/1999/xlink" x="0px" y="0px"
	 viewBox="0 0 599 352" style="enable-background:new 0 0 599 352;" xml:space="preserve">
<style type="text/css">
	.st0{fill:#145F91;}
	.st1{fill:none;stroke:#04D361;stroke-width:2;stroke-linecap:round;stroke-linejoin:round;stroke-miterlimit:10;}
	.st2{fill:#B4E1F9;}
	.st3{fill:#9871F5;stroke:#9871F5;}
	.st4{fill-rule:evenodd;clip-rule:evenodd;fill:#B4E1F9;}
	.st5{fill-rule:evenodd;clip-rule:evenodd;fill:#EDECF5;}
	.st6{fill-rule:evenodd;clip-rule:evenodd;fill:#FFFFFF;}
	.st7{fill-rule:evenodd;clip-rule:evenodd;fill:#145F91;}
	.st8{fill-rule:evenodd;clip-rule:evenodd;fill:#E1DFEF;}
	.st9{fill-rule:evenodd;clip-rule:evenodd;fill:#8DC7E0;}
	.st10{fill-rule:evenodd;clip-rule:evenodd;fill:#36234D;}
	.st11{fill-rule:evenodd;clip-rule:evenodd;fill:#94D6F2;}
	.st12{fill-rule:evenodd;clip-rule:evenodd;fill:#ECBE8D;}
	.st13{fill-rule:evenodd;clip-rule:evenodd;fill:#C7C2DF;}
	.st14{fill-rule:evenodd;clip-rule:evenodd;fill:#8F87A9;}
	.st15{fill-rule:evenodd;clip-rule:evenodd;fill:#E0E7F5;}
	.st16{fill-rule:evenodd;clip-rule:evenodd;fill:#EBE8F3;}
	.st17{fill-rule:evenodd;clip-rule:evenodd;fill:#1E1642;}
	.st18{fill-rule:evenodd;clip-rule:evenodd;fill:#DD9187;}
	.st19{fill-rule:evenodd;clip-rule:evenodd;fill:#EABFB9;}
	.st20{fill-rule:evenodd;clip-rule:evenodd;fill:#D7766D;}
	.st21{fill-rule:evenodd;clip-rule:evenodd;fill:#F0D4D1;}
	.st22{fill-rule:evenodd;clip-rule:evenodd;fill:#D26070;}
</style>
<path class="st0" d="M523.8,72.6c0,2.9-2.3,5.2-5.2,5.2c-2.9,0-5.2-2.3-5.2-5.2c0-2.9,2.3-5.2,5.2-5.2
	C521.5,67.4,523.8,69.7,523.8,72.6z"/>
<path class="st0" d="M522.4,76.2l3.7,3.7"/>
<path class="st0" d="M319.1,2l5.5,5.5"/>
<path class="st0" d="M324.6,2l-5.5,5.5"/>
<path class="st1" d="M398,319.5l5.5,5.5"/>
<path class="st1" d="M403.5,319.5L398,325"/>
<path class="st0" d="M48.5,246.4v7.8"/>
<path class="st0" d="M52.4,250.3h-7.8"/>
<path class="st0" d="M31.6,186.5c0,2.6-2.1,4.7-4.7,4.7c-2.6,0-4.7-2.1-4.7-4.7c0-2.6,2.1-4.7,4.7-4.7
	C29.5,181.8,31.6,183.9,31.6,186.5z"/>
<path class="st1" d="M228,301.1c0,2.6-2.1,4.7-4.7,4.7c-2.6,0-4.7-2.1-4.7-4.7c0-2.6,2.1-4.7,4.7-4.7
	C225.9,296.4,228,298.5,228,301.1z"/>
<path class="st0" d="M540.3,215.8c0,2.6-2.1,4.7-4.7,4.7c-2.6,0-4.7-2.1-4.7-4.7c0-2.6,2.1-4.7,4.7-4.7
	C538.2,211.1,540.3,213.2,540.3,215.8z"/>
<path class="st2" d="M2.9,103.5c0,0.7-0.5,1.2-1.2,1.2s-1.2-0.5-1.2-1.2c0-0.7,0.5-1.2,1.2-1.2S2.9,102.8,2.9,103.5z"/>
<path class="st2" d="M14.9,103.5c0,0.7-0.5,1.2-1.2,1.2c-0.7,0-1.2-0.5-1.2-1.2c0-0.7,0.5-1.2,1.2-1.2S14.9,102.8,14.9,103.5z"/>
<path class="st2" d="M26.9,103.5c0,0.7-0.5,1.2-1.2,1.2s-1.2-0.5-1.2-1.2c0-0.7,0.5-1.2,1.2-1.2S26.9,102.8,26.9,103.5z"/>
<path class="st2" d="M38.8,103.5c0,0.7-0.5,1.2-1.2,1.2c-0.7,0-1.2-0.5-1.2-1.2c0-0.7,0.5-1.2,1.2-1.2
	C38.3,102.2,38.8,102.8,38.8,103.5z"/>
<path class="st2" d="M50.8,103.5c0,0.7-0.5,1.2-1.2,1.2s-1.2-0.5-1.2-1.2c0-0.7,0.5-1.2,1.2-1.2S50.8,102.8,50.8,103.5z"/>
<path class="st2" d="M62.8,103.5c0,0.7-0.5,1.2-1.2,1.2s-1.2-0.5-1.2-1.2c0-0.7,0.5-1.2,1.2-1.2S62.8,102.8,62.8,103.5z"/>
<path class="st2" d="M2.9,115.4c0,0.7-0.5,1.2-1.2,1.2s-1.2-0.5-1.2-1.2c0-0.7,0.5-1.2,1.2-1.2S2.9,114.8,2.9,115.4z"/>
<path class="st2" d="M14.9,115.4c0,0.7-0.5,1.2-1.2,1.2c-0.7,0-1.2-0.5-1.2-1.2c0-0.7,0.5-1.2,1.2-1.2
	C14.4,114.2,14.9,114.8,14.9,115.4z"/>
<path class="st2" d="M26.9,115.4c0,0.7-0.5,1.2-1.2,1.2s-1.2-0.5-1.2-1.2c0-0.7,0.5-1.2,1.2-1.2S26.9,114.8,26.9,115.4z"/>
<path class="st2" d="M38.8,115.4c0,0.7-0.5,1.2-1.2,1.2c-0.7,0-1.2-0.5-1.2-1.2c0-0.7,0.5-1.2,1.2-1.2
	C38.3,114.2,38.8,114.8,38.8,115.4z"/>
<path class="st2" d="M50.8,115.4c0,0.7-0.5,1.2-1.2,1.2s-1.2-0.5-1.2-1.2c0-0.7,0.5-1.2,1.2-1.2S50.8,114.8,50.8,115.4z"/>
<path class="st2" d="M62.8,115.4c0,0.7-0.5,1.2-1.2,1.2s-1.2-0.5-1.2-1.2c0-0.7,0.5-1.2,1.2-1.2S62.8,114.8,62.8,115.4z"/>
<path class="st2" d="M2.9,127.4c0,0.7-0.5,1.2-1.2,1.2s-1.2-0.5-1.2-1.2c0-0.7,0.5-1.2,1.2-1.2S2.9,126.8,2.9,127.4z"/>
<path class="st2" d="M14.9,127.4c0,0.7-0.5,1.2-1.2,1.2c-0.7,0-1.2-0.5-1.2-1.2c0-0.7,0.5-1.2,1.2-1.2S14.9,126.8,14.9,127.4z"/>
<path class="st2" d="M26.9,127.4c0,0.7-0.5,1.2-1.2,1.2s-1.2-0.5-1.2-1.2c0-0.7,0.5-1.2,1.2-1.2S26.9,126.8,26.9,127.4z"/>
<path class="st2" d="M38.8,127.4c0,0.7-0.5,1.2-1.2,1.2c-0.7,0-1.2-0.5-1.2-1.2c0-0.7,0.5-1.2,1.2-1.2
	C38.3,126.2,38.8,126.8,38.8,127.4z"/>
<path class="st2" d="M50.8,127.4c0,0.7-0.5,1.2-1.2,1.2s-1.2-0.5-1.2-1.2c0-0.7,0.5-1.2,1.2-1.2S50.8,126.8,50.8,127.4z"/>
<path class="st2" d="M62.8,127.4c0,0.7-0.5,1.2-1.2,1.2s-1.2-0.5-1.2-1.2c0-0.7,0.5-1.2,1.2-1.2S62.8,126.8,62.8,127.4z"/>
<path class="st2" d="M2.9,139.4c0,0.7-0.5,1.2-1.2,1.2s-1.2-0.5-1.2-1.2c0-0.7,0.5-1.2,1.2-1.2S2.9,138.7,2.9,139.4z"/>
<path class="st2" d="M14.9,139.4c0,0.7-0.5,1.2-1.2,1.2s-1.2-0.5-1.2-1.2c0-0.7,0.5-1.2,1.2-1.2S14.9,138.7,14.9,139.4z"/>
<path class="st2" d="M26.9,139.4c0,0.7-0.5,1.2-1.2,1.2s-1.2-0.5-1.2-1.2c0-0.7,0.5-1.2,1.2-1.2S26.9,138.7,26.9,139.4z"/>
<path class="st2" d="M38.8,139.4c0,0.7-0.5,1.2-1.2,1.2c-0.7,0-1.2-0.5-1.2-1.2c0-0.7,0.5-1.2,1.2-1.2
	C38.3,138.2,38.8,138.7,38.8,139.4z"/>
<path class="st2" d="M50.8,139.4c0,0.7-0.5,1.2-1.2,1.2s-1.2-0.5-1.2-1.2c0-0.7,0.5-1.2,1.2-1.2S50.8,138.7,50.8,139.4z"/>
<path class="st2" d="M62.8,139.4c0,0.7-0.5,1.2-1.2,1.2s-1.2-0.5-1.2-1.2c0-0.7,0.5-1.2,1.2-1.2S62.8,138.7,62.8,139.4z"/>
<path class="st3" d="M187.6,329.2c0,0.7-0.5,1.2-1.2,1.2s-1.2-0.5-1.2-1.2c0-0.7,0.5-1.2,1.2-1.2S187.6,328.5,187.6,329.2z"/>
<path class="st3" d="M199.6,329.2c0,0.7-0.5,1.2-1.2,1.2c-0.7,0-1.2-0.5-1.2-1.2c0-0.7,0.5-1.2,1.2-1.2
	C199.1,328,199.6,328.5,199.6,329.2z"/>
<path class="st3" d="M211.6,329.2c0,0.7-0.5,1.2-1.2,1.2c-0.7,0-1.2-0.5-1.2-1.2c0-0.7,0.5-1.2,1.2-1.2
	C211,328,211.6,328.5,211.6,329.2z"/>
<path class="st3" d="M223.5,329.2c0,0.7-0.5,1.2-1.2,1.2c-0.7,0-1.2-0.5-1.2-1.2c0-0.7,0.5-1.2,1.2-1.2
	C223,328,223.5,328.5,223.5,329.2z"/>
<path class="st3" d="M235.5,329.2c0,0.7-0.5,1.2-1.2,1.2s-1.2-0.5-1.2-1.2c0-0.7,0.5-1.2,1.2-1.2S235.5,328.5,235.5,329.2z"/>
<path class="st3" d="M187.6,341.2c0,0.7-0.5,1.2-1.2,1.2s-1.2-0.5-1.2-1.2c0-0.7,0.5-1.2,1.2-1.2S187.6,340.5,187.6,341.2z"/>
<path class="st3" d="M199.6,341.2c0,0.7-0.5,1.2-1.2,1.2c-0.7,0-1.2-0.5-1.2-1.2c0-0.7,0.5-1.2,1.2-1.2
	C199.1,340,199.6,340.5,199.6,341.2z"/>
<path class="st3" d="M211.6,341.2c0,0.7-0.5,1.2-1.2,1.2c-0.7,0-1.2-0.5-1.2-1.2c0-0.7,0.5-1.2,1.2-1.2
	C211,340,211.6,340.5,211.6,341.2z"/>
<path class="st3" d="M223.5,341.2c0,0.7-0.5,1.2-1.2,1.2c-0.7,0-1.2-0.5-1.2-1.2c0-0.7,0.5-1.2,1.2-1.2
	C223,340,223.5,340.5,223.5,341.2z"/>
<path class="st3" d="M235.5,341.2c0,0.7-0.5,1.2-1.2,1.2s-1.2-0.5-1.2-1.2c0-0.7,0.5-1.2,1.2-1.2S235.5,340.5,235.5,341.2z"/>
<path class="st2" d="M490.9,29.4c0,0.7-0.5,1.2-1.2,1.2c-0.7,0-1.2-0.5-1.2-1.2c0-0.7,0.5-1.2,1.2-1.2
	C490.4,28.2,490.9,28.7,490.9,29.4z"/>
<path class="st2" d="M502.9,29.4c0,0.7-0.5,1.2-1.2,1.2c-0.7,0-1.2-0.5-1.2-1.2c0-0.7,0.5-1.2,1.2-1.2
	C502.4,28.2,502.9,28.7,502.9,29.4z"/>
<path class="st2" d="M514.9,29.4c0,0.7-0.5,1.2-1.2,1.2c-0.7,0-1.2-0.5-1.2-1.2c0-0.7,0.5-1.2,1.2-1.2
	C514.3,28.2,514.9,28.7,514.9,29.4z"/>
<path class="st2" d="M490.9,41.4c0,0.7-0.5,1.2-1.2,1.2c-0.7,0-1.2-0.5-1.2-1.2s0.5-1.2,1.2-1.2C490.4,40.2,490.9,40.7,490.9,41.4z"
	/>
<path class="st2" d="M502.9,41.4c0,0.7-0.5,1.2-1.2,1.2c-0.7,0-1.2-0.5-1.2-1.2c0-0.7,0.5-1.2,1.2-1.2
	C502.4,40.2,502.9,40.7,502.9,41.4z"/>
<path class="st2" d="M514.9,41.4c0,0.7-0.5,1.2-1.2,1.2c-0.7,0-1.2-0.5-1.2-1.2c0-0.7,0.5-1.2,1.2-1.2
	C514.3,40.2,514.9,40.7,514.9,41.4z"/>
<path class="st2" d="M177.6,6.7c0,0.7-0.5,1.2-1.2,1.2s-1.2-0.5-1.2-1.2c0-0.7,0.5-1.2,1.2-1.2S177.6,6,177.6,6.7z"/>
<path class="st2" d="M189.5,6.7c0,0.7-0.5,1.2-1.2,1.2s-1.2-0.5-1.2-1.2s0.5-1.2,1.2-1.2S189.5,6,189.5,6.7z"/>
<path class="st2" d="M201.5,6.7c0,0.7-0.5,1.2-1.2,1.2c-0.7,0-1.2-0.5-1.2-1.2s0.5-1.2,1.2-1.2C201,5.5,201.5,6,201.5,6.7z"/>
<path class="st2" d="M177.6,18.7c0,0.7-0.5,1.2-1.2,1.2s-1.2-0.5-1.2-1.2s0.5-1.2,1.2-1.2S177.6,18,177.6,18.7z"/>
<path class="st2" d="M189.5,18.7c0,0.7-0.5,1.2-1.2,1.2c-0.7,0-1.2-0.5-1.2-1.2c0-0.7,0.5-1.2,1.2-1.2S189.5,18,189.5,18.7z"/>
<path class="st2" d="M201.5,18.7c0,0.7-0.5,1.2-1.2,1.2c-0.7,0-1.2-0.5-1.2-1.2c0-0.7,0.5-1.2,1.2-1.2C201,17.5,201.5,18,201.5,18.7
	z"/>
<path class="st2" d="M598.5,191.4c0,0.7-0.5,1.2-1.2,1.2s-1.2-0.5-1.2-1.2c0-0.7,0.5-1.2,1.2-1.2S598.5,190.7,598.5,191.4z"/>
<path class="st2" d="M598.5,203.4c0,0.7-0.5,1.2-1.2,1.2s-1.2-0.5-1.2-1.2c0-0.7,0.5-1.2,1.2-1.2S598.5,202.7,598.5,203.4z"/>
<path class="st2" d="M598.5,215.4c0,0.7-0.5,1.2-1.2,1.2s-1.2-0.5-1.2-1.2s0.5-1.2,1.2-1.2S598.5,214.7,598.5,215.4z"/>
<path class="st2" d="M598.5,227.4c0,0.7-0.5,1.2-1.2,1.2s-1.2-0.5-1.2-1.2c0-0.7,0.5-1.2,1.2-1.2S598.5,226.7,598.5,227.4z"/>
<path class="st2" d="M598.5,239.3c0,0.7-0.5,1.2-1.2,1.2s-1.2-0.5-1.2-1.2c0-0.7,0.5-1.2,1.2-1.2S598.5,238.7,598.5,239.3z"/>
<path class="st2" d="M598.5,251.3c0,0.7-0.5,1.2-1.2,1.2s-1.2-0.5-1.2-1.2c0-0.7,0.5-1.2,1.2-1.2S598.5,250.7,598.5,251.3z"/>
<path class="st2" d="M598.5,263.3c0,0.7-0.5,1.2-1.2,1.2s-1.2-0.5-1.2-1.2c0-0.7,0.5-1.2,1.2-1.2S598.5,262.6,598.5,263.3z"/>
<path class="st2" d="M586.5,191.4c0,0.7-0.5,1.2-1.2,1.2s-1.2-0.5-1.2-1.2c0-0.7,0.5-1.2,1.2-1.2S586.5,190.7,586.5,191.4z"/>
<path class="st2" d="M586.5,203.4c0,0.7-0.5,1.2-1.2,1.2s-1.2-0.5-1.2-1.2c0-0.7,0.5-1.2,1.2-1.2S586.5,202.7,586.5,203.4z"/>
<path class="st2" d="M586.5,215.4c0,0.7-0.5,1.2-1.2,1.2s-1.2-0.5-1.2-1.2s0.5-1.2,1.2-1.2S586.5,214.7,586.5,215.4z"/>
<path class="st2" d="M586.5,227.4c0,0.7-0.5,1.2-1.2,1.2s-1.2-0.5-1.2-1.2c0-0.7,0.5-1.2,1.2-1.2S586.5,226.7,586.5,227.4z"/>
<path class="st2" d="M586.5,239.3c0,0.7-0.5,1.2-1.2,1.2s-1.2-0.5-1.2-1.2c0-0.7,0.5-1.2,1.2-1.2S586.5,238.7,586.5,239.3z"/>
<path class="st2" d="M586.5,251.3c0,0.7-0.5,1.2-1.2,1.2s-1.2-0.5-1.2-1.2c0-0.7,0.5-1.2,1.2-1.2S586.5,250.7,586.5,251.3z"/>
<path class="st2" d="M586.5,263.3c0,0.7-0.5,1.2-1.2,1.2s-1.2-0.5-1.2-1.2c0-0.7,0.5-1.2,1.2-1.2S586.5,262.6,586.5,263.3z"/>
<path class="st2" d="M574.6,191.4c0,0.7-0.5,1.2-1.2,1.2c-0.7,0-1.2-0.5-1.2-1.2c0-0.7,0.5-1.2,1.2-1.2
	C574,190.2,574.6,190.7,574.6,191.4z"/>
<path class="st2" d="M574.6,203.4c0,0.7-0.5,1.2-1.2,1.2c-0.7,0-1.2-0.5-1.2-1.2c0-0.7,0.5-1.2,1.2-1.2
	C574,202.2,574.6,202.7,574.6,203.4z"/>
<path class="st2" d="M574.6,215.4c0,0.7-0.5,1.2-1.2,1.2c-0.7,0-1.2-0.5-1.2-1.2s0.5-1.2,1.2-1.2C574,214.2,574.6,214.7,574.6,215.4
	z"/>
<path class="st2" d="M574.6,227.4c0,0.7-0.5,1.2-1.2,1.2c-0.7,0-1.2-0.5-1.2-1.2c0-0.7,0.5-1.2,1.2-1.2
	C574,226.1,574.6,226.7,574.6,227.4z"/>
<path class="st2" d="M574.6,239.3c0,0.7-0.5,1.2-1.2,1.2c-0.7,0-1.2-0.5-1.2-1.2c0-0.7,0.5-1.2,1.2-1.2
	C574,238.1,574.6,238.7,574.6,239.3z"/>
<path class="st2" d="M574.6,251.3c0,0.7-0.5,1.2-1.2,1.2c-0.7,0-1.2-0.5-1.2-1.2c0-0.7,0.5-1.2,1.2-1.2
	C574,250.1,574.6,250.7,574.6,251.3z"/>
<path class="st2" d="M574.6,263.3c0,0.7-0.5,1.2-1.2,1.2c-0.7,0-1.2-0.5-1.2-1.2c0-0.7,0.5-1.2,1.2-1.2
	C574,262.1,574.6,262.6,574.6,263.3z"/>
<path class="st2" d="M562.6,191.4c0,0.7-0.5,1.2-1.2,1.2c-0.7,0-1.2-0.5-1.2-1.2c0-0.7,0.5-1.2,1.2-1.2
	C562,190.2,562.6,190.7,562.6,191.4z"/>
<path class="st2" d="M562.6,203.4c0,0.7-0.5,1.2-1.2,1.2c-0.7,0-1.2-0.5-1.2-1.2c0-0.7,0.5-1.2,1.2-1.2
	C562,202.2,562.6,202.7,562.6,203.4z"/>
<path class="st2" d="M562.6,215.4c0,0.7-0.5,1.2-1.2,1.2c-0.7,0-1.2-0.5-1.2-1.2s0.5-1.2,1.2-1.2C562,214.2,562.6,214.7,562.6,215.4
	z"/>
<path class="st2" d="M562.6,227.4c0,0.7-0.5,1.2-1.2,1.2c-0.7,0-1.2-0.5-1.2-1.2c0-0.7,0.5-1.2,1.2-1.2
	C562,226.1,562.6,226.7,562.6,227.4z"/>
<path class="st2" d="M562.6,239.3c0,0.7-0.5,1.2-1.2,1.2c-0.7,0-1.2-0.5-1.2-1.2c0-0.7,0.5-1.2,1.2-1.2
	C562,238.1,562.6,238.7,562.6,239.3z"/>
<path class="st2" d="M562.6,251.3c0,0.7-0.5,1.2-1.2,1.2c-0.7,0-1.2-0.5-1.2-1.2c0-0.7,0.5-1.2,1.2-1.2
	C562,250.1,562.6,250.7,562.6,251.3z"/>
<path class="st2" d="M562.6,263.3c0,0.7-0.5,1.2-1.2,1.2c-0.7,0-1.2-0.5-1.2-1.2c0-0.7,0.5-1.2,1.2-1.2
	C562,262.1,562.6,262.6,562.6,263.3z"/>
<g>
	<path class="st4" d="M103.7,259.4c13.4,0,24.4,11,24.4,24.4l0,0l0,0c0,24.5,20,44.5,44.5,44.5h2.5l0,0h215.7h52
		c31.8,0,57.9-26,57.9-57.9l0,0c0-31.8-26-57.9-57.9-57.9h-1.5c-6.4,0-11.6-5.2-11.6-11.6l0,0c0-6.4,5.2-11.6,11.6-11.6h6.4
		c15.5,0,28.2-12.7,28.2-28.2l0,0c0-15.5-12.7-28.2-28.2-28.2c0,0-27.5,0-27.5,0c-13.4,0-24.4-11-24.4-24.4l0,0l0,0
		c0-24.5-20-44.5-44.5-44.5c-43.5,0-139.5,0-183,0c-31.8,0-57.9,26-57.9,57.9l0,0c0,31.8,26,57.9,57.9,57.9l0,0
		c6.4,0,11.6,5.2,11.6,11.6l0,0c0,6.4-5.2,11.6-11.6,11.6h-64.6C66.8,203,66.8,259.4,103.7,259.4z"/>
	<g>
		<polygon class="st5" points="255.9,259.7 258,259.7 309.2,259.7 311.3,259.7 320,315.9 300.5,315.9 266.7,315.9 247.2,315.9 		"/>
		<path class="st6" d="M239.3,315.1h88.5c4.6,0,8.4,3.8,8.4,8.4c0,1.4-1.2,2.6-2.6,2.6H233.5c-1.4,0-2.6-1.2-2.6-2.6
			C230.9,318.8,234.7,315.1,239.3,315.1z"/>
		<path class="st7" d="M167.7,117.6h229.3c4.8,0,8.7,3.9,8.7,8.7v137c0,4.8-3.9,8.7-8.7,8.7H167.7c-4.8,0-8.7-3.9-8.7-8.7v-137
			C159.1,121.5,163,117.6,167.7,117.6z"/>
		<path class="st6" d="M405.7,259v16.6c0,4.8-3.9,8.7-8.7,8.7H167.7c-4.8,0-8.7-3.9-8.7-8.7V259H405.7z"/>
		<rect x="167.3" y="125.8" class="st4" width="230.3" height="125"/>
		<path class="st8" d="M282.4,264.3c3.8,0,6.8,3.1,6.8,6.8c0,3.8-3.1,6.8-6.8,6.8c-3.8,0-6.9-3.1-6.9-6.8
			C275.6,267.3,278.6,264.3,282.4,264.3z"/>
	</g>
	<path class="st9" d="M358.3,241.6h97.3c2.7,0,4.8,2.2,4.8,4.8v62.4c0,2.7-2.2,4.8-4.8,4.8h-97.3c-2.7,0-4.8-2.2-4.8-4.8v-62.4
		C353.5,243.8,355.7,241.6,358.3,241.6z"/>
	<path class="st4" d="M405.7,259v16.6c0,4.8-3.9,8.7-8.7,8.7h-43.6V259H405.7z"/>
	<path class="st9" d="M397.5,241.6v9.1h-44v-4.3c0-2.7,2.2-4.8,4.8-4.8H397.5z"/>
	<path class="st7" d="M487,326.1H80.2c-3.1,0-5.7,2.6-5.7,5.7l0,0c0,3.1,2.6,5.7,5.7,5.7h19.3c1.7,0,3.2,1.4,3.2,3.2l0,0
		c0,1.7-1.4,3.2-3.2,3.2h-7.1c-2.2,0-4,1.8-4,4v0c0,2.2,1.8,4,4,4h381.7c2.2,0,4-1.8,4-4v0c0-2.2-1.8-4-4-4h-5.6
		c-1.7,0-3.2-1.4-3.2-3.2l0,0c0-1.7,1.4-3.2,3.2-3.2H487c3.1,0,5.7-2.6,5.7-5.7l0,0C492.7,328.7,490.1,326.1,487,326.1L487,326.1z
		 M484,351.8c-2.1,0-3.8-1.7-3.8-3.8v-0.3c0-2.1,1.7-3.8,3.8-3.8l0,0c2.1,0,3.8,1.7,3.8,3.8v0.3C487.8,350.1,486.1,351.8,484,351.8
		L484,351.8z"/>
	<path class="st6" d="M424,128.8c1.4,0,2.6-1.2,2.6-2.6s-1.2-2.6-2.6-2.6c-1.4,0-2.6,1.2-2.6,2.6S422.6,128.8,424,128.8z"/>
	<g>
		<path class="st4" d="M296.1,135.3h85.1c2.7,0,5,2.2,5,5v82.5c0,2.7-2.2,5-5,5h-85.1c-2.7,0-5-2.2-5-5v-82.5
			C291.1,137.5,293.3,135.3,296.1,135.3z"/>
		<path class="st10" d="M299.7,132.9h85.1c2.7,0,5,2.2,5,5v82.5c0,2.7-2.2,5-5,5h-85.1c-2.7,0-5-2.2-5-5v-82.5
			C294.7,135.1,297,132.9,299.7,132.9z"/>
		<path class="st6" d="M303.5,136.5h67.1c0.9,0,1.6,0.7,1.6,1.6v7.9c0,0.9-0.7,1.6-1.6,1.6h-67.1c-0.9,0-1.6-0.7-1.6-1.6v-7.9
			C301.9,137.2,302.6,136.5,303.5,136.5z"/>
		<path class="st11" d="M376.8,136.5h7.8c0.9,0,1.6,0.7,1.6,1.6v8c0,0.9-0.7,1.6-1.6,1.6h-7.8c-0.9,0-1.6-0.7-1.6-1.6v-8
			C375.2,137.2,375.9,136.5,376.8,136.5z"/>
		<path class="st6" d="M304.8,150.8h64.5c1.6,0,2.9,1.3,2.9,2.9v58.8c0,1.6-1.3,2.9-2.9,2.9h-64.5c-1.6,0-2.9-1.3-2.9-2.9v-58.8
			C301.9,152.1,303.2,150.8,304.8,150.8z"/>
		<path class="st12" d="M366.1,154.8c0.8,0,1.5,0.7,1.5,1.5c0,0.8-0.7,1.5-1.5,1.5c-0.8,0-1.5-0.7-1.5-1.5
			C364.6,155.4,365.2,154.8,366.1,154.8L366.1,154.8z M354.9,154.8c0.8,0,1.5,0.7,1.5,1.5c0,0.8-0.7,1.5-1.5,1.5
			c-0.8,0-1.5-0.7-1.5-1.5C353.4,155.4,354,154.8,354.9,154.8L354.9,154.8z M360.5,154.8c0.8,0,1.5,0.7,1.5,1.5
			c0,0.8-0.7,1.5-1.5,1.5c-0.8,0-1.5-0.7-1.5-1.5C359,155.4,359.6,154.8,360.5,154.8z"/>
		<g>
			<path class="st13" d="M312.2,177.2h54.9c0.3,0,0.5,0.2,0.5,0.5l0,0c0,0.3-0.2,0.5-0.5,0.5h-54.9c-0.3,0-0.5-0.2-0.5-0.5l0,0
				C311.7,177.5,311.9,177.2,312.2,177.2z"/>
			<path class="st13" d="M307.4,178.6c0.5,0,0.9-0.4,0.9-0.9c0-0.5-0.4-0.9-0.9-0.9s-0.9,0.4-0.9,0.9
				C306.5,178.2,306.9,178.6,307.4,178.6z"/>
			<path class="st13" d="M312.2,181.7h54.9c0.3,0,0.5,0.2,0.5,0.5l0,0c0,0.3-0.2,0.5-0.5,0.5h-54.9c-0.3,0-0.5-0.2-0.5-0.5l0,0
				C311.7,181.9,311.9,181.7,312.2,181.7z"/>
			<path class="st13" d="M307.4,183.1c0.5,0,0.9-0.4,0.9-0.9c0-0.5-0.4-0.9-0.9-0.9s-0.9,0.4-0.9,0.9
				C306.5,182.7,306.9,183.1,307.4,183.1z"/>
			<path class="st13" d="M312.2,186.2h54.9c0.3,0,0.5,0.2,0.5,0.5l0,0c0,0.3-0.2,0.5-0.5,0.5h-54.9c-0.3,0-0.5-0.2-0.5-0.5l0,0
				C311.7,186.4,311.9,186.2,312.2,186.2z"/>
			<path class="st13" d="M307.4,187.6c0.5,0,0.9-0.4,0.9-0.9s-0.4-0.9-0.9-0.9s-0.9,0.4-0.9,0.9S306.9,187.6,307.4,187.6z"/>
			<path class="st13" d="M312.2,190.7h54.9c0.3,0,0.5,0.2,0.5,0.5l0,0c0,0.3-0.2,0.5-0.5,0.5h-54.9c-0.3,0-0.5-0.2-0.5-0.5l0,0
				C311.7,190.9,311.9,190.7,312.2,190.7z"/>
			<path class="st13" d="M307.4,192.1c0.5,0,0.9-0.4,0.9-0.9c0-0.5-0.4-0.9-0.9-0.9s-0.9,0.4-0.9,0.9
				C306.5,191.7,306.9,192.1,307.4,192.1z"/>
			<path class="st13" d="M312.2,195.2h54.9c0.3,0,0.5,0.2,0.5,0.5l0,0c0,0.3-0.2,0.5-0.5,0.5h-54.9c-0.3,0-0.5-0.2-0.5-0.5l0,0
				C311.7,195.4,311.9,195.2,312.2,195.2z"/>
			<path class="st13" d="M307.4,196.6c0.5,0,0.9-0.4,0.9-0.9c0-0.5-0.4-0.9-0.9-0.9s-0.9,0.4-0.9,0.9
				C306.5,196.2,306.9,196.6,307.4,196.6z"/>
			<path class="st13" d="M312.2,199.6h54.9c0.3,0,0.5,0.2,0.5,0.5l0,0c0,0.3-0.2,0.5-0.5,0.5h-54.9c-0.3,0-0.5-0.2-0.5-0.5l0,0
				C311.7,199.9,311.9,199.6,312.2,199.6z"/>
			<path class="st13" d="M307.4,201c0.5,0,0.9-0.4,0.9-0.9s-0.4-0.9-0.9-0.9s-0.9,0.4-0.9,0.9S306.9,201,307.4,201z"/>
			<path class="st13" d="M312.2,204.1h54.9c0.3,0,0.5,0.2,0.5,0.5l0,0c0,0.3-0.2,0.5-0.5,0.5h-54.9c-0.3,0-0.5-0.2-0.5-0.5l0,0
				C311.7,204.4,311.9,204.1,312.2,204.1z"/>
			<path class="st13" d="M307.4,205.5c0.5,0,0.9-0.4,0.9-0.9s-0.4-0.9-0.9-0.9s-0.9,0.4-0.9,0.9S306.9,205.5,307.4,205.5z"/>
			<path class="st13" d="M312.2,208.6h54.9c0.3,0,0.5,0.2,0.5,0.5l0,0c0,0.3-0.2,0.5-0.5,0.5h-54.9c-0.3,0-0.5-0.2-0.5-0.5l0,0
				C311.7,208.9,311.9,208.6,312.2,208.6z"/>
			<path class="st13" d="M307.4,210c0.5,0,0.9-0.4,0.9-0.9c0-0.5-0.4-0.9-0.9-0.9s-0.9,0.4-0.9,0.9C306.5,209.6,306.9,210,307.4,210
				z"/>
			<path class="st13" d="M328.9,171.6h19.3c0.6,0,1.1,0.5,1.1,1.1v0c0,0.6-0.5,1.1-1.1,1.1h-19.3c-0.6,0-1.1-0.5-1.1-1.1v0
				C327.9,172.1,328.4,171.6,328.9,171.6z"/>
			<path class="st13" d="M352.9,171.6h13.7c0.6,0,1.1,0.5,1.1,1.1v0c0,0.6-0.5,1.1-1.1,1.1h-13.7c-0.6,0-1.1-0.5-1.1-1.1v0
				C351.9,172.1,352.3,171.6,352.9,171.6z"/>
		</g>
		<path class="st6" d="M377.8,139.2c0.6-0.6,1.4-0.9,2.2-0.9h0c0.8,0,1.6,0.3,2.2,0.9c0.6,0.6,0.9,1.4,0.9,2.2v0
			c0,0.6-0.2,1.3-0.6,1.8l1.9,1.9c0.2,0.2,0.2,0.4,0,0.6c-0.2,0.2-0.4,0.2-0.6,0l-1.9-1.9c-0.5,0.4-1.2,0.6-1.8,0.6h0
			c-0.8,0-1.6-0.3-2.2-0.9c-0.6-0.6-0.9-1.4-0.9-2.2v0C377,140.6,377.3,139.8,377.8,139.2L377.8,139.2z M380,139.2
			c-0.6,0-1.1,0.2-1.6,0.6c-0.4,0.4-0.6,1-0.6,1.5c0,0.6,0.2,1.1,0.6,1.6c0.4,0.4,1,0.6,1.5,0.6c0.6,0,1.1-0.2,1.6-0.6
			c0.4-0.4,0.6-1,0.6-1.5c0-0.6-0.2-1.1-0.6-1.6C381.1,139.4,380.6,139.2,380,139.2z"/>
		<path class="st10" d="M309.6,143.5h54.9c0.3,0,0.5,0.2,0.5,0.5l0,0c0,0.3-0.2,0.5-0.5,0.5h-54.9c-0.3,0-0.5-0.2-0.5-0.5l0,0
			C309.1,143.8,309.3,143.5,309.6,143.5z"/>
		<g>
			<path class="st14" d="M328.6,154.8h12.3c0.4,0,0.7,0.4,0.7,0.8l0,0c0,0.4-0.3,0.8-0.7,0.8h-12.3c-0.4,0-0.7-0.4-0.7-0.8l0,0
				C327.9,155.1,328.2,154.8,328.6,154.8z"/>
			<path class="st14" d="M328.6,158.2h7c0.4,0,0.7,0.4,0.7,0.8l0,0c0,0.4-0.3,0.8-0.7,0.8h-7c-0.4,0-0.7-0.4-0.7-0.8l0,0
				C327.9,158.6,328.2,158.2,328.6,158.2z"/>
			<path class="st14" d="M337.9,158.2h1c0.4,0,0.7,0.4,0.7,0.8l0,0c0,0.4-0.3,0.8-0.7,0.8h-1c-0.4,0-0.7-0.4-0.7-0.8l0,0
				C337.2,158.6,337.5,158.2,337.9,158.2z"/>
			<path class="st14" d="M328.6,167.8h6.3c0.4,0,0.7-0.4,0.7-0.8l0,0c0-0.4-0.3-0.8-0.7-0.8h-6.3c-0.4,0-0.7,0.4-0.7,0.8l0,0
				C327.9,167.4,328.2,167.8,328.6,167.8z"/>
			<path class="st14" d="M328.6,164.3h8.6c0.4,0,0.7-0.4,0.7-0.8l0,0c0-0.4-0.3-0.8-0.7-0.8h-8.6c-0.4,0-0.7,0.4-0.7,0.8l0,0
				C327.9,163.9,328.2,164.3,328.6,164.3z"/>
			<path class="st14" d="M339.8,164.3h1.5c0.4,0,0.7-0.4,0.7-0.8l0,0c0-0.4-0.3-0.8-0.7-0.8h-1.5c-0.4,0-0.7,0.4-0.7,0.8l0,0
				C339.1,163.9,339.4,164.3,339.8,164.3z"/>
		</g>
		<path class="st10" d="M308.1,154.6h16c0.4,0,0.8,0.3,0.8,0.8v17c0,0.4-0.3,0.8-0.8,0.8h-16c-0.4,0-0.8-0.3-0.8-0.8v-17
			C307.4,154.9,307.7,154.6,308.1,154.6z"/>
		<g>
			<path class="st6" d="M311.3,162.2h9.6c0.3,0,0.5,0.1,0.7,0.3c0.2,0.2,0.3,0.4,0.3,0.7v6.1c0,0.3-0.1,0.5-0.3,0.7
				c-0.2,0.2-0.4,0.3-0.7,0.3h-9.6c-0.3,0-0.5-0.1-0.7-0.3c-0.2-0.2-0.3-0.4-0.3-0.7v-6.1c0-0.3,0.1-0.5,0.3-0.7
				C310.8,162.3,311,162.2,311.3,162.2L311.3,162.2z M320.9,162.9h-9.6c-0.1,0-0.2,0-0.2,0.1c-0.1,0.1-0.1,0.1-0.1,0.2v6.1
				c0,0.1,0,0.2,0.1,0.2c0.1,0.1,0.1,0.1,0.2,0.1h9.6c0.1,0,0.2,0,0.2-0.1c0.1-0.1,0.1-0.1,0.1-0.2v-6.1c0-0.1,0-0.2-0.1-0.2
				C321.1,162.9,321,162.9,320.9,162.9z"/>
			<path class="st6" d="M310.8,162.2h10.6c0.1,0,0.2,0,0.3-0.1c0.1-0.1,0.1-0.2,0.1-0.3v-1.6c0-0.1,0-0.2-0.1-0.3
				c-0.1-0.1-0.2-0.1-0.3-0.1h-10.6c-0.1,0-0.2,0-0.3,0.1c-0.1,0.1-0.1,0.2-0.1,0.3v1.6c0,0.1,0,0.2,0.1,0.3
				C310.6,162.1,310.7,162.2,310.8,162.2L310.8,162.2z M321.5,162.9h-10.6c-0.3,0-0.6-0.1-0.8-0.3c-0.2-0.2-0.3-0.5-0.3-0.8v-1.6
				c0-0.3,0.1-0.6,0.3-0.8c0.2-0.2,0.5-0.3,0.8-0.3h10.6c0.3,0,0.6,0.1,0.8,0.3c0.2,0.2,0.3,0.5,0.3,0.8v1.6c0,0.3-0.1,0.6-0.3,0.8
				C322,162.8,321.8,162.9,321.5,162.9z"/>
			<path class="st6" d="M320.9,159.5c0,0.2-0.1,0.3-0.3,0.3c-0.2,0-0.3-0.1-0.3-0.3v-1.2c0-0.3-0.1-0.5-0.3-0.6
				c-0.2-0.2-0.4-0.3-0.6-0.3h-6.5c-0.3,0-0.5,0.1-0.6,0.3c-0.2,0.2-0.3,0.4-0.3,0.6v1.2c0,0.2-0.1,0.3-0.3,0.3
				c-0.2,0-0.3-0.1-0.3-0.3v-1.2c0-0.4,0.2-0.8,0.4-1c0.3-0.3,0.6-0.4,1-0.4h6.5c0.4,0,0.8,0.2,1,0.4c0.3,0.3,0.4,0.6,0.4,1V159.5z"
				/>
		</g>
		<path class="st6" d="M315.6,164.1h1.1c0.1,0,0.2,0.1,0.2,0.2v1.1h1.1c0.1,0,0.2,0.1,0.2,0.2v1.1c0,0.1-0.1,0.2-0.2,0.2h-1.1v1.1
			c0,0.1-0.1,0.2-0.2,0.2h-1.1c-0.1,0-0.2-0.1-0.2-0.2V167h-1.1c-0.1,0-0.2-0.1-0.2-0.2v-1.1c0-0.1,0.1-0.2,0.2-0.2h1.1v-1.1
			C315.3,164.2,315.5,164.1,315.6,164.1z"/>
	</g>
	<path class="st6" d="M445.4,182.6c12.1,0,22-9.9,22-22c0-12.1-9.9-22-22-22c-12.1,0-22,9.9-22,22
		C423.4,172.7,433.3,182.6,445.4,182.6z"/>
	<path class="st10" d="M445.4,165.1c0.8,0,1.5,0.3,2.1,0.9c0.6,0.6,0.9,1.3,0.9,2.1c0,0.8-0.3,1.5-0.9,2.1l0,0
		c-0.5,0.5-1.3,0.9-2.1,0.9s-1.5-0.3-2.1-0.9c-0.5-0.6-0.9-1.3-0.9-2.1c0-0.8,0.3-1.5,0.9-2.1C443.9,165.4,444.7,165.1,445.4,165.1
		L445.4,165.1z M434.3,157.6c-0.5,0.5-1.3,0.6-1.8,0.1c-0.5-0.5-0.6-1.3-0.1-1.8c1.7-1.8,3.7-3.2,6-4.2c2.2-1,4.7-1.5,7.1-1.5
		s4.9,0.5,7.1,1.5c2.2,1,4.3,2.4,6,4.2c0.5,0.5,0.5,1.3-0.1,1.8c-0.5,0.5-1.3,0.5-1.8-0.1c-1.4-1.5-3.2-2.8-5.1-3.6
		c-1.9-0.8-4-1.3-6.1-1.3s-4.2,0.4-6.1,1.3C437.4,154.8,435.7,156.1,434.3,157.6L434.3,157.6z M437.7,160.8c1-1.1,2.2-1.9,3.5-2.5
		c1.3-0.6,2.8-0.9,4.2-0.9c1.5,0,2.9,0.3,4.2,0.9c1.3,0.6,2.5,1.4,3.5,2.5c0.5,0.5,1.3,0.6,1.8,0.1c0.5-0.5,0.6-1.3,0.1-1.8
		c-1.2-1.3-2.7-2.4-4.4-3.1c-1.7-0.7-3.4-1.1-5.3-1.1c-1.8,0-3.6,0.4-5.3,1.1c-1.7,0.7-3.2,1.8-4.4,3.1c-0.5,0.5-0.5,1.3,0.1,1.8
		C436.4,161.3,437.2,161.3,437.7,160.8L437.7,160.8z M441.6,164.4c-0.5,0.5-1.3,0.6-1.8,0.1c-0.5-0.5-0.6-1.3-0.1-1.8
		c0.7-0.8,1.6-1.4,2.6-1.9c1-0.4,2.1-0.7,3.1-0.7s2.1,0.2,3.1,0.7c1,0.4,1.9,1.1,2.6,1.9c0.5,0.5,0.5,1.3-0.1,1.8
		c-0.5,0.5-1.3,0.5-1.8-0.1c-0.5-0.5-1.1-1-1.8-1.2c-0.7-0.3-1.4-0.4-2.1-0.4c-0.7,0-1.4,0.1-2.1,0.4
		C442.7,163.5,442.1,163.9,441.6,164.4z"/>
	<g>
		<g>
			<path class="st9" d="M174.4,310.7h3c0.7,0,1.3-0.6,1.3-1.3v-3c0-0.7-0.6-1.3-1.3-1.3h-3c-0.7,0-1.3,0.6-1.3,1.3v3
				C173.1,310.1,173.7,310.7,174.4,310.7z"/>
			<path class="st6" d="M184.7,310.7h3c0.7,0,1.3-0.6,1.3-1.3v-3c0-0.7-0.6-1.3-1.3-1.3h-3c-0.7,0-1.3,0.6-1.3,1.3v3
				C183.4,310.1,184,310.7,184.7,310.7z"/>
			<path class="st9" d="M195,310.7h3c0.7,0,1.3-0.6,1.3-1.3v-3c0-0.7-0.6-1.3-1.3-1.3h-3c-0.7,0-1.3,0.6-1.3,1.3v3
				C193.7,310.1,194.3,310.7,195,310.7z"/>
			<path class="st6" d="M205.4,310.7h3c0.7,0,1.3-0.6,1.3-1.3v-3c0-0.7-0.6-1.3-1.3-1.3h-3c-0.7,0-1.3,0.6-1.3,1.3v3
				C204.1,310.1,204.7,310.7,205.4,310.7z"/>
			<path class="st9" d="M215.7,310.7h3c0.7,0,1.3-0.6,1.3-1.3v-3c0-0.7-0.6-1.3-1.3-1.3h-3c-0.7,0-1.3,0.6-1.3,1.3v3
				C214.4,310.1,215,310.7,215.7,310.7z"/>
			<path class="st6" d="M195.4,299.5h3c0.7,0,1.3-0.6,1.3-1.3v-3c0-0.7-0.6-1.3-1.3-1.3h-3c-0.7,0-1.3,0.6-1.3,1.3v3
				C194.1,298.9,194.7,299.5,195.4,299.5z"/>
			<path class="st9" d="M205.8,299.5h3c0.7,0,1.3-0.6,1.3-1.3v-3c0-0.7-0.6-1.3-1.3-1.3h-3c-0.7,0-1.3,0.6-1.3,1.3v3
				C204.5,298.9,205,299.5,205.8,299.5z"/>
			<path class="st6" d="M216.1,299.5h3c0.7,0,1.3-0.6,1.3-1.3v-3c0-0.7-0.6-1.3-1.3-1.3h-3c-0.7,0-1.3,0.6-1.3,1.3v3
				C214.8,298.9,215.4,299.5,216.1,299.5z"/>
		</g>
		<path class="st9" d="M263.3,94.4c0-0.4,0.3-0.7,0.7-0.7c0.4,0,0.7,0.3,0.7,0.7v3.1c0,0.4-0.3,0.7-0.7,0.7c-0.4,0-0.7-0.3-0.7-0.7
			V94.4L263.3,94.4z M258.6,96.9c-0.3-0.3-0.3-0.7,0-1c0.3-0.3,0.7-0.3,1,0l2.2,2.2c0.3,0.3,0.3,0.7,0,1c-0.3,0.3-0.7,0.3-1,0
			L258.6,96.9L258.6,96.9z M257.1,102c-0.4,0-0.7-0.3-0.7-0.7c0-0.4,0.3-0.7,0.7-0.7h3.1c0.4,0,0.7,0.3,0.7,0.7
			c0,0.4-0.3,0.7-0.7,0.7H257.1L257.1,102z M259.6,106.7c-0.3,0.3-0.7,0.3-1,0c-0.3-0.3-0.3-0.7,0-1l2.2-2.2c0.3-0.3,0.7-0.3,1,0
			c0.3,0.3,0.3,0.7,0,1L259.6,106.7L259.6,106.7z M264.7,108.2c0,0.4-0.3,0.7-0.7,0.7c-0.4,0-0.7-0.3-0.7-0.7v-3.1
			c0-0.4,0.3-0.7,0.7-0.7c0.4,0,0.7,0.3,0.7,0.7V108.2L264.7,108.2z M269.4,105.7c0.3,0.3,0.3,0.7,0,1c-0.3,0.3-0.7,0.3-1,0
			l-2.2-2.2c-0.3-0.3-0.3-0.7,0-1c0.3-0.3,0.7-0.3,1,0L269.4,105.7L269.4,105.7z M270.9,100.6c0.4,0,0.7,0.3,0.7,0.7
			c0,0.4-0.3,0.7-0.7,0.7h-3.1c-0.4,0-0.7-0.3-0.7-0.7c0-0.4,0.3-0.7,0.7-0.7H270.9L270.9,100.6z M268.4,95.9c0.3-0.3,0.7-0.3,1,0
			c0.3,0.3,0.3,0.7,0,1l-2.2,2.2c-0.3,0.3-0.7,0.3-1,0c-0.3-0.3-0.3-0.7,0-1L268.4,95.9z"/>
		<path class="st9" d="M128,121.1c0-0.4,0.3-0.7,0.7-0.7c0.4,0,0.7,0.3,0.7,0.7v3.1c0,0.4-0.3,0.7-0.7,0.7c-0.4,0-0.7-0.3-0.7-0.7
			V121.1L128,121.1z M123.3,123.6c-0.3-0.3-0.3-0.7,0-1c0.3-0.3,0.7-0.3,1,0l2.2,2.2c0.3,0.3,0.3,0.7,0,1c-0.3,0.3-0.7,0.3-1,0
			L123.3,123.6L123.3,123.6z M121.8,128.7c-0.4,0-0.7-0.3-0.7-0.7c0-0.4,0.3-0.7,0.7-0.7h3.1c0.4,0,0.7,0.3,0.7,0.7
			c0,0.4-0.3,0.7-0.7,0.7H121.8L121.8,128.7z M124.3,133.4c-0.3,0.3-0.7,0.3-1,0c-0.3-0.3-0.3-0.7,0-1l2.2-2.2c0.3-0.3,0.7-0.3,1,0
			c0.3,0.3,0.3,0.7,0,1L124.3,133.4L124.3,133.4z M129.4,134.9c0,0.4-0.3,0.7-0.7,0.7c-0.4,0-0.7-0.3-0.7-0.7v-3.1
			c0-0.4,0.3-0.7,0.7-0.7c0.4,0,0.7,0.3,0.7,0.7V134.9L129.4,134.9z M134.1,132.4c0.3,0.3,0.3,0.7,0,1c-0.3,0.3-0.7,0.3-1,0
			l-2.2-2.2c-0.3-0.3-0.3-0.7,0-1c0.3-0.3,0.7-0.3,1,0L134.1,132.4L134.1,132.4z M135.6,127.3c0.4,0,0.7,0.3,0.7,0.7
			c0,0.4-0.3,0.7-0.7,0.7h-3.1c-0.4,0-0.7-0.3-0.7-0.7c0-0.4,0.3-0.7,0.7-0.7H135.6L135.6,127.3z M133.1,122.6c0.3-0.3,0.7-0.3,1,0
			c0.3,0.3,0.3,0.7,0,1l-2.2,2.2c-0.3,0.3-0.7,0.3-1,0c-0.3-0.3-0.3-0.7,0-1L133.1,122.6z"/>
		<path class="st9" d="M418.1,177.4c0-0.4,0.3-0.7,0.7-0.7c0.4,0,0.7,0.3,0.7,0.7v3.1c0,0.4-0.3,0.7-0.7,0.7c-0.4,0-0.7-0.3-0.7-0.7
			V177.4L418.1,177.4z M413.4,179.9c-0.3-0.3-0.3-0.7,0-1c0.3-0.3,0.7-0.3,1,0l2.2,2.2c0.3,0.3,0.3,0.7,0,1c-0.3,0.3-0.7,0.3-1,0
			L413.4,179.9L413.4,179.9z M411.9,185c-0.4,0-0.7-0.3-0.7-0.7c0-0.4,0.3-0.7,0.7-0.7h3.1c0.4,0,0.7,0.3,0.7,0.7
			c0,0.4-0.3,0.7-0.7,0.7H411.9L411.9,185z M414.4,189.7c-0.3,0.3-0.7,0.3-1,0c-0.3-0.3-0.3-0.7,0-1l2.2-2.2c0.3-0.3,0.7-0.3,1,0
			c0.3,0.3,0.3,0.7,0,1L414.4,189.7L414.4,189.7z M419.5,191.2c0,0.4-0.3,0.7-0.7,0.7c-0.4,0-0.7-0.3-0.7-0.7v-3.1
			c0-0.4,0.3-0.7,0.7-0.7c0.4,0,0.7,0.3,0.7,0.7V191.2L419.5,191.2z M424.2,188.7c0.3,0.3,0.3,0.7,0,1c-0.3,0.3-0.7,0.3-1,0
			l-2.2-2.2c-0.3-0.3-0.3-0.7,0-1c0.3-0.3,0.7-0.3,1,0L424.2,188.7L424.2,188.7z M425.7,183.6c0.4,0,0.7,0.3,0.7,0.7
			c0,0.4-0.3,0.7-0.7,0.7h-3.1c-0.4,0-0.7-0.3-0.7-0.7c0-0.4,0.3-0.7,0.7-0.7H425.7L425.7,183.6z M423.2,178.9c0.3-0.3,0.7-0.3,1,0
			c0.3,0.3,0.3,0.7,0,1l-2.2,2.2c-0.3,0.3-0.7,0.3-1,0c-0.3-0.3-0.3-0.7,0-1L423.2,178.9z"/>
		<path class="st6" d="M136.9,147.2c1.4,0,2.6-1.2,2.6-2.6c0-1.4-1.2-2.6-2.6-2.6c-1.4,0-2.6,1.2-2.6,2.6
			C134.3,146,135.5,147.2,136.9,147.2z"/>
		<path class="st6" d="M293.6,86.9c1.4,0,2.6-1.2,2.6-2.6c0-1.4-1.2-2.6-2.6-2.6c-1.4,0-2.6,1.2-2.6,2.6
			C291.1,85.8,292.2,86.9,293.6,86.9z"/>
		<path class="st6" d="M417,226.4c1.4,0,2.6-1.2,2.6-2.6c0-1.4-1.2-2.6-2.6-2.6c-1.4,0-2.6,1.2-2.6,2.6
			C414.4,225.3,415.6,226.4,417,226.4z"/>
		<path class="st6" d="M481.8,254.3c1.4,0,2.6-1.2,2.6-2.6c0-1.4-1.2-2.6-2.6-2.6c-1.4,0-2.6,1.2-2.6,2.6
			C479.3,253.2,480.4,254.3,481.8,254.3z"/>
		<path class="st6" d="M330,73.3c0-0.4,0.3-0.7,0.7-0.7c0.4,0,0.7,0.3,0.7,0.7v3.1c0,0.4-0.3,0.7-0.7,0.7c-0.4,0-0.7-0.3-0.7-0.7
			V73.3L330,73.3z M325.4,75.8c-0.3-0.3-0.3-0.7,0-1c0.3-0.3,0.7-0.3,1,0l2.2,2.2c0.3,0.3,0.3,0.7,0,1c-0.3,0.3-0.7,0.3-1,0
			L325.4,75.8L325.4,75.8z M323.8,80.9c-0.4,0-0.7-0.3-0.7-0.7s0.3-0.7,0.7-0.7h3.1c0.4,0,0.7,0.3,0.7,0.7s-0.3,0.7-0.7,0.7H323.8
			L323.8,80.9z M326.3,85.6c-0.3,0.3-0.7,0.3-1,0c-0.3-0.3-0.3-0.7,0-1l2.2-2.2c0.3-0.3,0.7-0.3,1,0c0.3,0.3,0.3,0.7,0,1L326.3,85.6
			L326.3,85.6z M331.4,87.1c0,0.4-0.3,0.7-0.7,0.7c-0.4,0-0.7-0.3-0.7-0.7V84c0-0.4,0.3-0.7,0.7-0.7c0.4,0,0.7,0.3,0.7,0.7V87.1
			L331.4,87.1z M336.1,84.6c0.3,0.3,0.3,0.7,0,1c-0.3,0.3-0.7,0.3-1,0l-2.2-2.2c-0.3-0.3-0.3-0.7,0-1c0.3-0.3,0.7-0.3,1,0
			L336.1,84.6L336.1,84.6z M337.6,79.5c0.4,0,0.7,0.3,0.7,0.7s-0.3,0.7-0.7,0.7h-3.1c-0.4,0-0.7-0.3-0.7-0.7s0.3-0.7,0.7-0.7H337.6
			L337.6,79.5z M335.1,74.8c0.3-0.3,0.7-0.3,1,0c0.3,0.3,0.3,0.7,0,1l-2.2,2.2c-0.3,0.3-0.7,0.3-1,0c-0.3-0.3-0.3-0.7,0-1
			L335.1,74.8z"/>
		<path class="st9" d="M476.6,275.5c0-0.4,0.3-0.7,0.7-0.7c0.4,0,0.7,0.3,0.7,0.7v3.1c0,0.4-0.3,0.7-0.7,0.7c-0.4,0-0.7-0.3-0.7-0.7
			V275.5L476.6,275.5z M471.9,278.1c-0.3-0.3-0.3-0.7,0-1c0.3-0.3,0.7-0.3,1,0l2.2,2.2c0.3,0.3,0.3,0.7,0,1c-0.3,0.3-0.7,0.3-1,0
			L471.9,278.1L471.9,278.1z M470.4,283.1c-0.4,0-0.7-0.3-0.7-0.7c0-0.4,0.3-0.7,0.7-0.7h3.1c0.4,0,0.7,0.3,0.7,0.7
			c0,0.4-0.3,0.7-0.7,0.7H470.4L470.4,283.1z M472.9,287.8c-0.3,0.3-0.7,0.3-1,0c-0.3-0.3-0.3-0.7,0-1l2.2-2.2c0.3-0.3,0.7-0.3,1,0
			c0.3,0.3,0.3,0.7,0,1L472.9,287.8L472.9,287.8z M478,289.4c0,0.4-0.3,0.7-0.7,0.7c-0.4,0-0.7-0.3-0.7-0.7v-3.1
			c0-0.4,0.3-0.7,0.7-0.7c0.4,0,0.7,0.3,0.7,0.7V289.4L478,289.4z M482.7,286.9c0.3,0.3,0.3,0.7,0,1c-0.3,0.3-0.7,0.3-1,0l-2.2-2.2
			c-0.3-0.3-0.3-0.7,0-1c0.3-0.3,0.7-0.3,1,0L482.7,286.9L482.7,286.9z M484.2,281.8c0.4,0,0.7,0.3,0.7,0.7c0,0.4-0.3,0.7-0.7,0.7
			h-3.1c-0.4,0-0.7-0.3-0.7-0.7c0-0.4,0.3-0.7,0.7-0.7H484.2L484.2,281.8z M481.7,277.1c0.3-0.3,0.7-0.3,1,0c0.3,0.3,0.3,0.7,0,1
			l-2.2,2.2c-0.3,0.3-0.7,0.3-1,0c-0.3-0.3-0.3-0.7,0-1L481.7,277.1z"/>
		<g>
			<path class="st9" d="M122.2,254.3h1.3c0.3,0,0.6-0.3,0.6-0.6v-1.3c0-0.3-0.3-0.6-0.6-0.6h-1.3c-0.3,0-0.6,0.3-0.6,0.6v1.3
				C121.7,254,121.9,254.3,122.2,254.3z"/>
			<path class="st6" d="M126.9,254.3h1.3c0.3,0,0.6-0.3,0.6-0.6v-1.3c0-0.3-0.3-0.6-0.6-0.6h-1.3c-0.3,0-0.6,0.3-0.6,0.6v1.3
				C126.3,254,126.5,254.3,126.9,254.3z"/>
			<path class="st9" d="M131.5,254.3h1.3c0.3,0,0.6-0.3,0.6-0.6v-1.3c0-0.3-0.3-0.6-0.6-0.6h-1.3c-0.3,0-0.6,0.3-0.6,0.6v1.3
				C130.9,254,131.1,254.3,131.5,254.3z"/>
			<path class="st6" d="M136.1,254.3h1.3c0.3,0,0.6-0.3,0.6-0.6v-1.3c0-0.3-0.3-0.6-0.6-0.6h-1.3c-0.3,0-0.6,0.3-0.6,0.6v1.3
				C135.5,254,135.8,254.3,136.1,254.3z"/>
			<path class="st9" d="M140.7,254.3h1.3c0.3,0,0.6-0.3,0.6-0.6v-1.3c0-0.3-0.3-0.6-0.6-0.6h-1.3c-0.3,0-0.6,0.3-0.6,0.6v1.3
				C140.1,254,140.4,254.3,140.7,254.3z"/>
			<path class="st6" d="M131.6,249.2h1.3c0.3,0,0.6-0.3,0.6-0.6v-1.3c0-0.3-0.3-0.6-0.6-0.6h-1.3c-0.3,0-0.6,0.3-0.6,0.6v1.3
				C131,249,131.3,249.2,131.6,249.2z"/>
			<path class="st9" d="M136.2,249.2h1.3c0.3,0,0.6-0.3,0.6-0.6v-1.3c0-0.3-0.3-0.6-0.6-0.6h-1.3c-0.3,0-0.6,0.3-0.6,0.6v1.3
				C135.7,249,135.9,249.2,136.2,249.2z"/>
			<path class="st6" d="M140.9,249.2h1.3c0.3,0,0.6-0.3,0.6-0.6v-1.3c0-0.3-0.3-0.6-0.6-0.6h-1.3c-0.3,0-0.6,0.3-0.6,0.6v1.3
				C140.3,249,140.5,249.2,140.9,249.2z"/>
		</g>
		<g>
			<path class="st9" d="M331.6,108.6h2.4c0.6,0,1-0.5,1-1v-2.4c0-0.6-0.5-1-1-1h-2.4c-0.6,0-1,0.5-1,1v2.4
				C330.5,108.1,331,108.6,331.6,108.6z"/>
			<path class="st6" d="M339.7,108.6h2.4c0.6,0,1-0.5,1-1v-2.4c0-0.6-0.5-1-1-1h-2.4c-0.6,0-1,0.5-1,1v2.4
				C338.7,108.1,339.1,108.6,339.7,108.6z"/>
			<path class="st9" d="M347.9,108.6h2.4c0.6,0,1-0.5,1-1v-2.4c0-0.6-0.5-1-1-1h-2.4c-0.6,0-1,0.5-1,1v2.4
				C346.8,108.1,347.3,108.6,347.9,108.6z"/>
			<path class="st6" d="M356,108.6h2.4c0.6,0,1-0.5,1-1v-2.4c0-0.6-0.5-1-1-1H356c-0.6,0-1,0.5-1,1v2.4
				C355,108.1,355.4,108.6,356,108.6z"/>
			<path class="st9" d="M364.2,108.6h2.4c0.6,0,1-0.5,1-1v-2.4c0-0.6-0.5-1-1-1h-2.4c-0.6,0-1,0.5-1,1v2.4
				C363.1,108.1,363.6,108.6,364.2,108.6z"/>
			<path class="st6" d="M348.2,99.7h2.4c0.6,0,1-0.5,1-1v-2.4c0-0.6-0.5-1-1-1h-2.4c-0.6,0-1,0.5-1,1v2.4
				C347.1,99.2,347.6,99.7,348.2,99.7z"/>
			<path class="st9" d="M356.3,99.7h2.4c0.6,0,1-0.5,1-1v-2.4c0-0.6-0.5-1-1-1h-2.4c-0.6,0-1,0.5-1,1v2.4
				C355.3,99.2,355.7,99.7,356.3,99.7z"/>
			<path class="st6" d="M364.5,99.7h2.4c0.6,0,1-0.5,1-1v-2.4c0-0.6-0.5-1-1-1h-2.4c-0.6,0-1,0.5-1,1v2.4
				C363.4,99.2,363.9,99.7,364.5,99.7z"/>
		</g>
	</g>
	<g>
		<path class="st9" d="M176.9,85c6.1,0,11,4.9,11,11c0,6.1-4.9,11-11,11h-9.6c-0.7,2.9-3,3.6-5.1,3.6c-2.6,0-11.4,0-15.7,0
			c-4.3,0-5.3-3.6-5.3-3.6h-9.4c-2.5,0-4.5-2-4.5-4.5c0-2.4,1.8-4.3,4.2-4.5c0-0.2,0-0.4,0-0.7c0-5,4-9,9-9c1.3,0,2.6,0.3,3.7,0.8
			c1.1-7.6,7.6-13.4,15.5-13.4c6.6,0,12.2,4,14.5,9.8C175,85.1,175.9,85,176.9,85z"/>
		<path class="st6" d="M177.1,83c6.1,0,11,4.9,11,11s-4.9,11-11,11h-17.2H132c-2.5,0-4.5-2-4.5-4.5c0-2.4,1.8-4.3,4.2-4.5
			c0-0.2,0-0.4,0-0.7c0-5,4-9,9-9c1.3,0,2.6,0.3,3.7,0.8c1.1-7.6,7.6-13.4,15.5-13.4c6.6,0,12.2,4,14.5,9.8
			C175.3,83.1,176.2,83,177.1,83z"/>
		<path class="st15" d="M166.6,102.7c0-4.7,0-9,0-9h2.3h0.8l-7-9.8h-1.2l-8.2,9.8h0.8h2.3c0,0,0,0.1,0,0.1c0,10.7,0.3,11.2-7.7,11.2
			h11.3h6.4C166.5,104.3,166.6,103.5,166.6,102.7z"/>
		<path class="st10" d="M167.8,102.7c0-4.7,0-9,0-9h2.3h0.8l-8.2-9.8l-8.2,9.8h0.8h2.3c0,0,0,0.1,0,0.1c0,10.7,0.3,11.2-7.7,11.2
			h-8.4c0,0,1,3.6,5.3,3.6c4.3,0,13.1,0,15.7,0c2.1,0,4.3-0.7,5.1-3.6C167.7,104.3,167.8,103.5,167.8,102.7z"/>
	</g>
	<g>
		<path class="st10" d="M361.7,237.1H459c2.7,0,4.8,2.2,4.8,4.8v62.4c0,2.7-2.2,4.8-4.8,4.8h-97.3c-2.7,0-4.8-2.2-4.8-4.8v-62.4
			C356.9,239.3,359.1,237.1,361.7,237.1z"/>
		<path class="st6" d="M366.3,242.9h20.2c1.2,0,2.3,1,2.3,2.3v19.2c0,1.2-1,2.3-2.3,2.3h-20.2c-1.2,0-2.3-1-2.3-2.3v-19.2
			C364,244,365,242.9,366.3,242.9z"/>
		<g>
			<path class="st11" d="M376.4,264.4c5.3,0,9.6-4.3,9.6-9.6c0-5.3-4.3-9.6-9.6-9.6c-5.3,0-9.6,4.3-9.6,9.6
				C366.8,260.1,371.1,264.4,376.4,264.4z"/>
			<path class="st6" d="M381.3,261.1c-1.4,1.1-3.1,1.7-4.9,1.7c-1.9,0-3.6-0.6-4.9-1.7c0.1-2.6,2.3-4.8,4.9-4.8l0,0
				C379,256.3,381.2,258.4,381.3,261.1L381.3,261.1z M376.4,248c2,0,3.6,1.6,3.6,3.6c0,2-1.6,3.6-3.6,3.6c-2,0-3.6-1.6-3.6-3.6
				C372.8,249.6,374.4,248,376.4,248z"/>
		</g>
		<g>
			<path class="st16" d="M369.7,270.2h54.9c0.3,0,0.5,0.2,0.5,0.5l0,0c0,0.3-0.2,0.5-0.5,0.5h-54.9c-0.3,0-0.5-0.2-0.5-0.5l0,0
				C369.2,270.5,369.4,270.2,369.7,270.2z"/>
			<path class="st16" d="M364.9,271.6c0.5,0,0.9-0.4,0.9-0.9c0-0.5-0.4-0.9-0.9-0.9s-0.9,0.4-0.9,0.9
				C364,271.2,364.4,271.6,364.9,271.6z"/>
			<path class="st16" d="M369.7,274.7h54.9c0.3,0,0.5,0.2,0.5,0.5l0,0c0,0.3-0.2,0.5-0.5,0.5h-54.9c-0.3,0-0.5-0.2-0.5-0.5l0,0
				C369.2,274.9,369.4,274.7,369.7,274.7z"/>
			<path class="st16" d="M364.9,276.1c0.5,0,0.9-0.4,0.9-0.9s-0.4-0.9-0.9-0.9s-0.9,0.4-0.9,0.9S364.4,276.1,364.9,276.1z"/>
			<path class="st16" d="M369.7,279.2h54.9c0.3,0,0.5,0.2,0.5,0.5l0,0c0,0.3-0.2,0.5-0.5,0.5h-54.9c-0.3,0-0.5-0.2-0.5-0.5l0,0
				C369.2,279.4,369.4,279.2,369.7,279.2z"/>
			<path class="st16" d="M364.9,280.6c0.5,0,0.9-0.4,0.9-0.9c0-0.5-0.4-0.9-0.9-0.9s-0.9,0.4-0.9,0.9
				C364,280.2,364.4,280.6,364.9,280.6z"/>
			<path class="st16" d="M369.7,283.7h54.9c0.3,0,0.5,0.2,0.5,0.5l0,0c0,0.3-0.2,0.5-0.5,0.5h-54.9c-0.3,0-0.5-0.2-0.5-0.5l0,0
				C369.2,283.9,369.4,283.7,369.7,283.7z"/>
			<path class="st16" d="M364.9,285.1c0.5,0,0.9-0.4,0.9-0.9s-0.4-0.9-0.9-0.9s-0.9,0.4-0.9,0.9S364.4,285.1,364.9,285.1z"/>
			<path class="st16" d="M369.7,288.2h54.9c0.3,0,0.5,0.2,0.5,0.5l0,0c0,0.3-0.2,0.5-0.5,0.5h-54.9c-0.3,0-0.5-0.2-0.5-0.5l0,0
				C369.2,288.4,369.4,288.2,369.7,288.2z"/>
			<path class="st16" d="M364.9,289.6c0.5,0,0.9-0.4,0.9-0.9c0-0.5-0.4-0.9-0.9-0.9s-0.9,0.4-0.9,0.9
				C364,289.2,364.4,289.6,364.9,289.6z"/>
			<path class="st16" d="M369.7,292.6h54.9c0.3,0,0.5,0.2,0.5,0.5l0,0c0,0.3-0.2,0.5-0.5,0.5h-54.9c-0.3,0-0.5-0.2-0.5-0.5l0,0
				C369.2,292.9,369.4,292.6,369.7,292.6z"/>
			<path class="st16" d="M364.9,294c0.5,0,0.9-0.4,0.9-0.9c0-0.5-0.4-0.9-0.9-0.9s-0.9,0.4-0.9,0.9C364,293.7,364.4,294,364.9,294z"
				/>
			<path class="st16" d="M369.7,297.1h54.9c0.3,0,0.5,0.2,0.5,0.5l0,0c0,0.3-0.2,0.5-0.5,0.5h-54.9c-0.3,0-0.5-0.2-0.5-0.5l0,0
				C369.2,297.4,369.4,297.1,369.7,297.1z"/>
			<path class="st16" d="M364.9,298.5c0.5,0,0.9-0.4,0.9-0.9s-0.4-0.9-0.9-0.9s-0.9,0.4-0.9,0.9S364.4,298.5,364.9,298.5z"/>
			<path class="st16" d="M369.7,301.6h54.9c0.3,0,0.5,0.2,0.5,0.5l0,0c0,0.3-0.2,0.5-0.5,0.5h-54.9c-0.3,0-0.5-0.2-0.5-0.5l0,0
				C369.2,301.8,369.4,301.6,369.7,301.6z"/>
			<path class="st16" d="M364.9,303c0.5,0,0.9-0.4,0.9-0.9s-0.4-0.9-0.9-0.9s-0.9,0.4-0.9,0.9S364.4,303,364.9,303z"/>
			<path class="st16" d="M392.9,264.6H409c0.5,0,0.9,0.5,0.9,1l0,0c0,0.6-0.4,1.1-0.9,1.1h-16.1c-0.5,0-0.9-0.5-0.9-1.1l0,0
				C392,265.1,392.4,264.6,392.9,264.6z"/>
			<path class="st16" d="M412.9,264.6h11.4c0.5,0,0.9,0.5,0.9,1l0,0c0,0.6-0.4,1.1-0.9,1.1h-11.4c-0.5,0-0.9-0.5-0.9-1.1l0,0
				C412,265.1,412.4,264.6,412.9,264.6z"/>
		</g>
		<path class="st6" d="M432.5,242.9h23.7c1.5,0,2.8,1.3,2.8,2.8v54.1c0,1.5-1.3,2.8-2.8,2.8h-23.7c-1.5,0-2.8-1.3-2.8-2.8v-54.1
			C429.7,244.2,430.9,242.9,432.5,242.9z"/>
		<path class="st11" d="M394.2,242.9h28.6c1,0,1.8,0.8,1.8,1.8v15c0,1-0.8,1.8-1.8,1.8h-28.6c-1,0-1.8-0.8-1.8-1.8v-15
			C392.4,243.7,393.2,242.9,394.2,242.9z"/>
		<path class="st12" d="M454.9,245.6c0.8,0,1.5,0.7,1.5,1.5c0,0.8-0.7,1.5-1.5,1.5c-0.8,0-1.5-0.7-1.5-1.5
			C453.4,246.2,454.1,245.6,454.9,245.6L454.9,245.6z M443.7,245.6c0.8,0,1.5,0.7,1.5,1.5c0,0.8-0.7,1.5-1.5,1.5
			c-0.8,0-1.5-0.7-1.5-1.5C442.2,246.2,442.9,245.6,443.7,245.6L443.7,245.6z M449.3,245.6c0.8,0,1.5,0.7,1.5,1.5
			c0,0.8-0.7,1.5-1.5,1.5c-0.8,0-1.5-0.7-1.5-1.5C447.8,246.2,448.5,245.6,449.3,245.6z"/>
		<path class="st17" d="M439.6,278.8v-17.3c0-2,0.8-3.9,2.2-5.3c1.4-1.4,3.3-2.2,5.3-2.2c2,0,3.9,0.8,5.3,2.2
			c1.4,1.4,2.2,3.3,2.2,5.3V286c0.6,0.3,0.9,0.9,0.9,1.6c0,1-0.8,1.8-1.8,1.8c-1,0-1.8-0.8-1.8-1.8c0-0.7,0.4-1.3,0.9-1.6v-24.5
			c0-1.5-0.6-3-1.7-4.1c-1.1-1.1-2.5-1.7-4.1-1.7c-1.5,0-3,0.6-4.1,1.7s-1.7,2.5-1.7,4.1v17.2c1.7,0.2,3.3,0.9,4.5,2.2
			c1.4,1.4,2.2,3.3,2.2,5.3v6.7c0,0.8-0.3,1.6-0.9,2.2c-0.5,0.5-1,0.8-1.6,0.9c0,0.7-0.6,1.2-1.2,1.2h0c-0.7,0-1.2-0.5-1.2-1.2v-1.5
			c0-0.7,0.6-1.2,1.2-1.2h0c0.6,0,1.1,0.4,1.2,1c0.2-0.1,0.3-0.2,0.5-0.3c0.3-0.3,0.4-0.6,0.4-1v-6.7c0-1.5-0.6-3-1.7-4.1
			c-1.1-1.1-2.5-1.7-4.1-1.7c-1.5,0-3,0.6-4.1,1.7c-1.1,1.1-1.7,2.5-1.7,4.1v6.7c0,0.4,0.2,0.8,0.4,1c0.1,0.1,0.3,0.2,0.5,0.3
			c0.1-0.6,0.6-1,1.2-1h0c0.7,0,1.2,0.6,1.2,1.2v1.5c0,0.7-0.6,1.2-1.2,1.2h0c-0.7,0-1.2-0.5-1.2-1.2c-0.6-0.1-1.2-0.4-1.6-0.9
			c-0.6-0.6-0.9-1.4-0.9-2.2v-6.7c0-2,0.8-3.9,2.2-5.3C436.5,279.7,438,279,439.6,278.8z"/>
		<g>
			<g>
				<path class="st17" d="M444.3,295.5c-0.2,0-0.3-0.2-0.3-0.3c0-0.2,0.2-0.3,0.3-0.3h0.6c0.5,0,1-0.2,1.4-0.6
					c0.4-0.4,0.6-0.9,0.6-1.4v-6.7c0-1.7-0.7-3.3-1.8-4.4c-1.1-1.1-2.7-1.8-4.4-1.8c-1.7,0-3.3,0.7-4.4,1.8
					c-1.1,1.1-1.8,2.7-1.8,4.4v6.7c0,0.5,0.2,1,0.6,1.4c0.4,0.4,0.9,0.6,1.4,0.6h0.6c0.2,0,0.3,0.2,0.3,0.3c0,0.2-0.2,0.3-0.3,0.3
					h-0.6c-0.7,0-1.4-0.3-1.9-0.8c-0.5-0.5-0.8-1.1-0.8-1.9v-6.7c0-1.9,0.8-3.7,2-4.9c1.3-1.3,3-2,4.9-2c1.9,0,3.7,0.8,4.9,2
					c1.3,1.3,2,3,2,4.9v6.7c0,0.7-0.3,1.4-0.8,1.9c-0.5,0.5-1.1,0.8-1.9,0.8H444.3z"/>
				<g>
					<path class="st17" d="M436.9,296.7L436.9,296.7c0.4,0,0.7-0.3,0.7-0.7v-1.5c0-0.4-0.3-0.7-0.7-0.7h0c-0.4,0-0.7,0.3-0.7,0.7
						v1.5C436.2,296.4,436.5,296.7,436.9,296.7z"/>
					<path class="st17" d="M444.2,296.7L444.2,296.7c0.4,0,0.7-0.3,0.7-0.7v-1.5c0-0.4-0.3-0.7-0.7-0.7h0c-0.4,0-0.7,0.3-0.7,0.7
						v1.5C443.5,296.4,443.8,296.7,444.2,296.7z"/>
				</g>
			</g>
			<path class="st17" d="M453.7,288.8c0.7,0,1.3-0.6,1.3-1.3c0-0.7-0.6-1.3-1.3-1.3s-1.3,0.6-1.3,1.3
				C452.4,288.2,453,288.8,453.7,288.8z"/>
			<path class="st17" d="M453.4,287.5v-26c0-1.7-0.7-3.3-1.8-4.4c-1.1-1.1-2.7-1.8-4.4-1.8c-1.7,0-3.3,0.7-4.4,1.8
				c-1.1,1.1-1.8,2.7-1.8,4.4v18.2h-0.7v-18.2c0-1.9,0.8-3.7,2-4.9c1.3-1.3,3-2,4.9-2c1.9,0,3.7,0.8,4.9,2c1.3,1.3,2,3,2,4.9v26
				H453.4z"/>
		</g>
	</g>
	<path class="st9" d="M420,64.8c0-1,0.8-1.9,1.9-1.9c1,0,1.9,0.8,1.9,1.9v8.4c0,1-0.8,1.9-1.9,1.9c-1,0-1.9-0.8-1.9-1.9V64.8
		L420,64.8z M407.3,71.6c-0.7-0.7-0.7-1.9,0-2.6c0.7-0.7,1.9-0.7,2.6,0l5.9,5.9c0.7,0.7,0.7,1.9,0,2.6c-0.7,0.7-1.9,0.7-2.6,0
		L407.3,71.6L407.3,71.6z M403.1,85.4c-1,0-1.9-0.8-1.9-1.9c0-1,0.8-1.9,1.9-1.9h8.4c1,0,1.9,0.8,1.9,1.9c0,1-0.8,1.9-1.9,1.9H403.1
		L403.1,85.4z M409.9,98.2c-0.7,0.7-1.9,0.7-2.6,0c-0.7-0.7-0.7-1.9,0-2.6l5.9-5.9c0.7-0.7,1.9-0.7,2.6,0c0.7,0.7,0.7,1.9,0,2.6
		L409.9,98.2L409.9,98.2z M423.7,102.4c0,1-0.8,1.9-1.9,1.9c-1,0-1.9-0.8-1.9-1.9v-8.4c0-1,0.8-1.9,1.9-1.9c1,0,1.9,0.8,1.9,1.9
		V102.4L423.7,102.4z M436.5,95.5c0.7,0.7,0.7,1.9,0,2.6c-0.7,0.7-1.9,0.7-2.6,0l-5.9-5.9c-0.7-0.7-0.7-1.9,0-2.6
		c0.7-0.7,1.9-0.7,2.6,0L436.5,95.5L436.5,95.5z M440.7,81.7c1,0,1.9,0.8,1.9,1.9c0,1-0.8,1.9-1.9,1.9h-8.4c-1,0-1.9-0.8-1.9-1.9
		c0-1,0.8-1.9,1.9-1.9H440.7L440.7,81.7z M433.8,68.9c0.7-0.7,1.9-0.7,2.6,0c0.7,0.7,0.7,1.9,0,2.6l-5.9,5.9c-0.7,0.7-1.9,0.7-2.6,0
		c-0.7-0.7-0.7-1.9,0-2.6L433.8,68.9z"/>
	<g>
		<path class="st18" d="M228.6,74.4L228.6,74.4c7.6,0,13.8,10.6,13.8,23.6v19.2c0,13-6.2,23.6-13.8,23.6l0,0
			c-7.6,0-13.8-10.6-13.8-23.6V98C214.8,85.1,221,74.4,228.6,74.4z"/>
		<path class="st17" d="M232.2,124.7l-2.2,0.3l-1.4,0.9l-1.4-0.9l-2.2-0.3l-13.2-10.3l-28.6,9.8l-1.4,27.4c2.1,27.3,8.5,71,8.5,73.1
			c0,2.1-4.5,16.9-7.3,25.9h45.6h45.3c-2.8-9-7.3-23.8-7.3-25.9c0-2.1,6.7-45.9,8.9-73.1l-1.4-27.4l-28.6-9.8L232.2,124.7z"/>
		<polygon class="st7" points="231.6,128 232.3,131.2 238.5,212.6 228.6,233.7 218.6,212.6 224.9,131.2 225.5,128 228.6,130 		"/>
		<path class="st7" d="M224.9,131.2l-2.9-6.4c2.5-2.4,10.7-2.4,13.2,0l-2.9,6.4C230.2,130.7,226.9,130.7,224.9,131.2z"/>
		<path class="st6" d="M244.9,113.4l24.1,6.7l2.2,2.5c0.5,0.2,6.3,0.8,6.9,8.4c0.7,8-9.2,91.1-9.2,93.7c0,2.5,4.6,17.1,7.4,26.1
			h-36.9l4.9-136.3C244.4,114.4,244.4,113.7,244.9,113.4z"/>
		<path class="st16" d="M275.2,167.3L275.2,167.3L260.1,195c0,0-2.7,13-9.9,10.2c-1.3-0.5-4.5-1.3-8.9-2.3l1-28.9h8.6
			c0,0,4.8,0.2,6.9-2.5c2.1-2.6,10.5-18.2,10.5-18.2L275.2,167.3z"/>
		<path class="st16" d="M272.7,190c-2,18.1-3.7,33.6-3.7,34.7c-13.4-4.9-17.7-7.6-22.8-6.9c-1.9,0.2-3.8,1.3-5.6,2.5l1.2-33
			L272.7,190z"/>
		<path class="st6" d="M212.2,113.4l-23.9,6.7l-2.1,3c-0.5,0.2-6.6,0.3-7.2,7.9c-0.7,8,9.2,91.1,9.2,93.7c0,2.5-4.6,17.1-7.4,26.1
			h36.9l-4.9-136.3C212.7,114.4,212.7,113.7,212.2,113.4z"/>
		<path class="st16" d="M181.6,163.7c0.9,9,2,18.8,3,27.8c7.6,1.5,19.5,3.8,31.2,6.2l-0.8-23.5c-3.5-0.3-9.4-0.9-12.7-1.3
			c-4.8-0.6-6.7-4.7-6.7-4.7l-5.4-15.8L181.6,163.7z"/>
		<path class="st16" d="M184.9,195.1c1.2,11.2,2.3,20.9,2.8,26c1.1-1.5,2.8-2.9,4.9-2.6c2.9,0.4,16.1,1.6,23.8,2.3l-1.3-35.6
			l-3.5-0.3L184.9,195.1z"/>
		<g>
			<path class="st19" d="M223.3,179.8c-14.8-3.9-16.6-2.7-26.9,3.5c-2.2,1.3-2.2,2.3-1.8,2.7c0,0-0.6,1.7,0.9,2.5
				c0,0-2.2-0.8,0.8-0.1c0,0-0.2,1.2,1.8,1.4c2.1,0.2,7.1,0.3,7.1,0.3c2.9,2.4,10.4,6.4,15.8,3.8L223.3,179.8z"/>
			<path class="st18" d="M222.3,179.5c0,0-0.9-0.2-2.4-0.5c-1.2,3-4.6,11.9-6,15.4c2.4,0.6,4.9,0.6,7.1-0.5L222.3,179.5z"/>
		</g>
		<g>
			<path class="st18" d="M253.1,72c0.2,0,0.4,0.1,0.5,0.1l0,0l0,0c3.3,0.7,5.7,3.6,5.8,7.1c0,4.1-3.2,7.4-7.3,7.4
				c-4.1,0-7.4-3.2-7.4-7.3c0-2.4,1.1-4.5,2.8-5.8c-0.2,2.2,0.1,4.9,2.9,5.1l-0.1-4.2C250.3,72.8,251.9,72,253.1,72z"/>
			<path class="st18" d="M204.6,72c-0.2,0-0.4,0.1-0.5,0.1l0,0h0c-3.3,0.7-5.8,3.5-5.9,7c-0.1,4.1,3.1,7.4,7.2,7.5
				c4.1,0.1,7.4-3.1,7.5-7.2c0.1-2.4-1-4.5-2.7-5.9c0.2,2.2-0.2,4.9-3,5.1l0.1-4.2C207.4,72.8,205.8,72,204.6,72z"/>
		</g>
		<path class="st19" d="M228.8,108.8c-13.7,0-25.2-16.9-25.2-30.3V60.8c0-13.8,11.3-25.2,25.2-25.2h0c13.8,0,25.2,11.3,25.2,25.2
			v17.4C253.9,92.8,244,108.8,228.8,108.8z"/>
		<g>
			<path class="st20" d="M245.1,80.9c-2.2,0-4,1.9-3.9,4.1c0,2.2,1.9,4,4.1,3.9c2.2,0,4-1.9,3.9-4.1
				C249.1,82.6,247.3,80.8,245.1,80.9z"/>
			<path class="st20" d="M212.4,81.5c-2.2,0-4,1.9-3.9,4.1c0,2.2,1.9,4,4.1,3.9c2.2,0,4-1.9,3.9-4.1
				C216.4,83.2,214.6,81.5,212.4,81.5z"/>
		</g>
		<path class="st17" d="M219.9,67.1c0.5,0.2,0.7,0.7,0.4,1.2c-0.2,0.5-0.7,0.7-1.2,0.4c0,0-2.7-1.3-5.3,0.3c-0.4,0.3-1,0.1-1.2-0.3
			c-0.3-0.4-0.1-1,0.3-1.3C216.2,65.4,219.8,67.1,219.9,67.1z"/>
		<path class="st17" d="M244.7,67.6c0.4,0.2,0.6,0.8,0.4,1.2c-0.2,0.4-0.8,0.6-1.2,0.4c0,0-2.6-1.5-5.3-0.1c-0.4,0.2-1,0.1-1.2-0.4
			c-0.2-0.4-0.1-1,0.4-1.2C241.3,65.6,244.7,67.5,244.7,67.6z"/>
		<path class="st21" d="M229.5,79.9c0.5,1.3,1.3,3.6,1.2,4c-0.1,0.5-2.9,1-3.6,0.3c-0.5-0.5,0.1-2.6,0.6-4
			C228.4,78.3,228.8,78.2,229.5,79.9z"/>
		<g>
			<path class="st17" d="M234.1,90c0,2.9-2.4,5.3-5.3,5.3c-2.9,0-5.3-2.4-5.3-5.3c0-0.5,0.4-1,1-1h8.6C233.6,89,234.1,89.4,234.1,90
				z"/>
			<path class="st6" d="M225,89h7.6v0.9c0,0.5-0.4,0.8-0.8,0.8h-5.9c-0.5,0-0.8-0.4-0.8-0.8V89z"/>
			<ellipse class="st22" cx="228.8" cy="93.6" rx="3.8" ry="1.6"/>
		</g>
		<g>
			<path class="st17" d="M216.5,78.1c1.7,0,3-1.4,3-3c0-1.7-1.4-3-3-3c-1.7,0-3,1.4-3,3C213.4,76.7,214.8,78.1,216.5,78.1z"/>
			<path class="st17" d="M241.1,78.1c1.7,0,3-1.4,3-3c0-1.7-1.4-3-3-3c-1.7,0-3,1.4-3,3C238.1,76.7,239.4,78.1,241.1,78.1z"/>
		</g>
		<path class="st6" d="M182.5,210.1c-9.9-1.7-14-10.7-13.3-23.3c0.6-12.6,4.7-50.6,7.5-57.3c2.8-6.7,11.6-9.3,11.6-9.3
			c1,3,1.5,17.7,1.5,17.7l0.9,46.6l39.5,2.4l4.4,14.2l-7.5,15.9c0,0-0.3,2.3-3.9,1.6C219.5,217.7,182.5,210.1,182.5,210.1z"/>
		<path class="st16" d="M230.6,188.3l3.9,12.7l-7.5,15.9c0,0-0.3,2.3-3.9,1.6c-1.5-0.3-9.2-1.9-17.5-3.6c2-2.1,2.8-5.1,2.8-5.1
			l5.6-15.3l3.3-2.4C222.9,189.7,227.3,188.6,230.6,188.3z"/>
		<path class="st6" d="M269,120.1c0,0,8.8,2.7,11.6,9.3c2.8,6.7,6.9,44.7,7.5,57.3c0.6,12.6-3.4,21.6-13.3,23.3
			c-9.9,1.7-48.8,3.8-48.8,3.8s-4.7,1-6-3.5c-1.3-4.5,0.8-31.6,0.8-31.6s-0.1-1.7,2-1.8c2.1,0,43.8,7.4,43.8,7.4l0.9-46.6
			C267.5,137.8,268,123.1,269,120.1z"/>
		<path class="st19" d="M266.6,184.4l-12.4-2.2l5.6-9.1l7.9-7.8c0,0,1.5-0.2,1.6,1.1c0.1,1.2-0.5,3.5-0.5,3.5l2.5-1.5
			c0,0,1.3-0.6,1.6,0.9c0.3,1.5-1.3,3.7-1.3,3.7s1.8-0.6,2.6,0.2c0.8,0.8-0.5,4.5-2.2,5.2l2-0.4c0,0,0.8,0.2,0.6,1.5
			c-0.2,1.3-2.1,1.8-3,2.1L266.6,184.4z"/>
		<polygon class="st18" points="266.6,184.4 254.2,182.2 256.9,177.7 267.1,184.1 		"/>
		<path class="st17" d="M203.6,77.6c0,0,2.3-1.2,2.3-7.3c0-6.1-0.4-8,2.9-11.1c3.2-3.1,3.3-6,3.3-6l-9.5-4.3c0,0-4.7,2.5-4.7,7
			c0.1,4.5,3.4,17.4,3.4,17.4S203.6,73.9,203.6,77.6z"/>
		<path class="st17" d="M253.9,77.6c0,0-2.3-1.2-2.3-7.3c0-6.1,0.4-8-2.9-11.1c-3.2-3.1-3.3-6-3.3-6l9.5-4.3c0,0,4.7,2.5,4.7,7
			c-0.1,4.5-3.4,17.4-3.4,17.4S254,73.9,253.9,77.6z"/>
		<path class="st17" d="M211.9,59.9c9.2,0,16.8-7.5,16.8-16.8c0-9.2-7.5-16.8-16.8-16.8c-9.2,0-16.8,7.5-16.8,16.8
			C195.1,52.4,202.7,59.9,211.9,59.9z"/>
		<path class="st17" d="M225.4,59.3c8.7,0,15.8-7.1,15.8-15.8c0-8.7-7.1-15.8-15.8-15.8c-8.7,0-15.8,7.1-15.8,15.8
			C209.6,52.2,216.7,59.3,225.4,59.3z"/>
		<path class="st17" d="M244,58.6c7.1,0,12.8-5.8,12.8-12.8c0-7.1-5.8-12.8-12.8-12.8c-7.1,0-12.8,5.8-12.8,12.8
			C231.2,52.9,237,58.6,244,58.6z"/>
		<path class="st17" d="M262.2,42.9c1.5,1.8,0.7,5.6-1.8,8.4c-2.5,2.8-5.7,3.6-7.2,1.7c-1.5-1.8-0.7-5.6,1.8-8.4
			C257.4,41.8,260.7,41,262.2,42.9z"/>
		<path class="st17" d="M236.9,27.1c2.2,0,4.3,2.8,4.8,6.1c0.5,3.3-0.9,6-3,6c-2.2,0-4.3-2.8-4.8-6.1
			C233.4,29.7,234.8,27.1,236.9,27.1z"/>
		<path class="st10" d="M242.4,109.1c0,0,1.2-0.2,1.6,0c0.4,0.2,1.8,4.2,2.7,5.4c0,0,0.8,1,0.2,2.7c-0.6,1.7-8.1,15.5-8.1,15.5
			s-0.5,0.7-1.4,0c-0.9-0.7-7.4-9.5-7.4-9.5l12.4-11.4V109.1z"/>
		<path class="st10" d="M214.8,108.9c0,0-1.2-0.2-1.6,0c-0.4,0.2-1.8,4.4-2.7,5.6c0,0-0.8,1-0.2,2.7c0.6,1.7,8.1,15.5,8.1,15.5
			s0.5,0.7,1.4,0c0.9-0.7,7.4-9.5,7.4-9.5l-12.4-11.4V108.9z"/>
		<path class="st16" d="M267.9,156.6c0,0.4-0.3,0.7-0.7,0.7c-0.4,0-0.7-0.3-0.7-0.7c0-0.1,0.9-29.3,3.7-36.1
			c0.1-0.4,0.6-0.5,0.9-0.4c0.4,0.1,0.5,0.6,0.4,0.9C268.8,127.6,267.9,156.6,267.9,156.6L267.9,156.6z M190.8,154.8
			c0,0.4-0.3,0.7-0.7,0.7c-0.4,0-0.7-0.3-0.7-0.7c0-0.1-1.3-26.4-3.9-33.7c-0.1-0.4,0.1-0.8,0.4-0.9c0.4-0.1,0.8,0.1,0.9,0.4
			C189.5,128.2,190.8,154.7,190.8,154.8z"/>
		<g>
			<path class="st10" d="M214.2,159.1L214.2,159.1L214.2,159.1L214.2,159.1L214.2,159.1l0.1,0l0,0l0,0h0l0,0h0l0,0h0l0,0h0l0,0h0
				l0,0h0l0,0h0l0,0l0,0l0,0l0,0l0,0l0,0l0,0l0,0l0.1,0l0,0l0,0l0,0l0,0l0,0l0,0l0,0l0,0l0,0l0,0l0,0l0,0l0,0l0,0l0,0h0l0,0l0,0l0,0
				l0,0l0,0l0,0l0,0l0,0l0,0l0,0l0,0l0,0l0,0l0,0l0,0l0,0l0,0l0,0l0,0l0,0l0,0l0,0l0,0l0,0l0,0l0,0l0,0l0,0l0,0l0,0l0,0l0,0l0,0l0,0
				l0,0l0,0h0l0,0l0,0l0,0h0l0,0l0,0l0,0l0,0l0,0l0,0l0,0l0,0l0,0l0,0l0,0l0,0l0,0l0,0l0,0l0,0l0,0l0,0l0,0l0,0l0,0l0,0l0,0l0,0l0,0
				l0,0l0,0l0,0l0,0l0,0l0,0l0,0l0,0l0,0c0.6-0.6,1-1.5,1-2.5v-7.3h-0.8v-4.6c0-2.7-1.1-5.3-3-7.3c-1.9-1.9-4.5-3-7.3-3
				s-5.3,1.1-7.3,3c-1.9,1.9-3,4.5-3,7.3v4.6h-0.8v7.3c0,1,0.4,1.8,1,2.5l0,0l0,0l0,0l0,0l0,0l0,0l0,0l0,0l0,0l0,0l0,0l0,0l0,0l0,0
				l0,0l0,0l0,0l0,0l0,0l0,0l0,0l0,0l0,0l0,0l0,0l0,0l0,0l0,0l0,0l0,0l0,0l0,0l0,0l0,0h0l0,0h0l0,0h0l0,0l0,0l0,0l0,0l0,0l0,0l0,0
				l0,0l0,0l0,0l0,0l0,0l0,0l0,0l0,0l0,0l0,0l0,0l0,0l0,0l0,0l0,0l0,0l0,0l0,0l0,0l0,0l0,0l0,0l0,0l0,0l0,0l0,0l0,0h0l0,0h0l0,0l0,0
				l0,0l0,0l0,0l0,0l0,0l0,0l0,0l0,0l0,0l0,0l0,0l0,0l0,0l0,0l0,0l0,0l0,0l0,0l0,0l0,0l0,0l0,0l0,0l0,0l0,0l0,0h0l0,0h0l0,0h0l0,0h0
				l0,0h0l0,0h0l0,0h0l0,0l0,0l0,0h0l0,0h0l0,0v-0.7c0-0.7,0.6-1.3,1.3-1.3h0c0.7,0,1.3,0.6,1.3,1.3v2.7c0,0.7-0.6,1.3-1.3,1.3h0
				c-0.7,0-1.3-0.6-1.3-1.3v-0.7h0l0,0h0l0,0l0,0l0,0l0,0l0,0l0,0l0,0l0,0l0,0l0,0l0,0l0,0l0,0l0,0l0,0l0,0l0,0l-0.1,0l0,0l-0.1,0h0
				l-0.1,0l-0.1,0h0l-0.1,0h0l0,0l0,0l0,0l0,0l0,0l0,0l0,0l0,0l0,0l0,0l0,0l0,0l0,0l0,0l0,0l0,0l0,0l0,0l0,0l0,0l0,0l0,0l0,0l0,0
				l0,0l0,0l0,0l0,0l0,0l0,0l0,0l0,0l0,0l0,0l0,0l0,0l0,0l0,0l0,0l0,0l0,0l0,0l0,0l0,0h0l0,0h0l0,0l0,0l0,0l0,0l0,0l0,0l0,0l0,0l0,0
				l0,0l0,0l0,0l0,0l0,0l0,0l0,0l0,0l0,0l0,0l0,0l0,0l0,0l0,0l0,0l0,0l0,0l0,0l0,0l0,0l0,0l0,0l0,0l0,0l0,0l0,0l0,0l0,0l0,0l0,0l0,0
				l0,0l0,0l0,0l0,0l0,0l0,0h0l0,0c-0.9-0.9-1.4-2-1.4-3.3v-7.3h-0.8v-4.6c0-3.5,1.4-6.8,3.8-9.2c2.1-2.1,4.7-3.4,7.6-3.7v-4.2h3.1
				v4.2c2.9,0.3,5.7,1.6,7.8,3.8c2.5,2.5,3.8,5.8,3.8,9.2v4.6h-0.8v7.3c0,1.3-0.5,2.5-1.4,3.3l0,0h0l0,0l0,0l0,0l0,0l0,0l0,0l0,0
				l0,0l0,0l0,0l0,0l0,0l0,0l0,0l0,0l0,0l0,0l0,0l0,0l0,0l0,0l0,0l0,0l0,0l0,0l0,0l0,0l0,0l0,0l0,0l0,0l0,0l0,0l0,0l0,0l0,0l0,0l0,0
				l0,0l0,0l0,0l0,0l0,0l0,0l0,0l0,0h0l0,0h0l0,0l0,0l0,0l0,0l0,0l0,0l0,0l0,0l0,0l0,0l0,0l0,0l0,0l0,0l0,0l0,0l0,0l0,0l0,0l0,0l0,0
				l0,0l0,0l0,0l0,0l0,0l0,0l0,0l0,0l0,0l0,0l0,0l0,0l0,0l0,0l0,0l0,0l0,0l0,0l0,0l0,0l0,0l0,0l-0.1,0h0l-0.1,0h0l-0.1,0l-0.1,0h0
				l-0.1,0l0,0l-0.1,0l0,0l0,0l0,0l0,0l0,0l0,0l0,0l0,0l0,0l0,0l0,0l0,0l0,0l0,0l0,0l0,0l0,0h0l0,0h0v0.7c0,0.7-0.6,1.3-1.3,1.3h0
				c-0.7,0-1.3-0.6-1.3-1.3v-2.7c0-0.7,0.6-1.3,1.3-1.3h0c0.7,0,1.3,0.6,1.3,1.3V159.1z"/>
			<path class="st10" d="M207.1,131.7c0,0.4-0.3,0.7-0.7,0.7c-0.4,0-0.7-0.3-0.7-0.7v-13c0-3.7,1.5-7.1,4-9.5
				c1.4-1.4,3.2-2.6,5.1-3.2v1.5c-1.6,0.6-3,1.5-4.1,2.7c-2.2,2.2-3.5,5.2-3.5,8.5V131.7z"/>
			<path class="st10" d="M250,150.6c0,0.4,0.3,0.7,0.7,0.7c0.4,0,0.7-0.3,0.7-0.7v-31.9c0-3.7-1.5-7.1-4-9.5
				c-1.4-1.4-3.2-2.6-5.1-3.2v1.5c1.6,0.6,3,1.5,4.1,2.7c2.2,2.2,3.5,5.2,3.5,8.5V150.6z"/>
			<path class="st10" d="M250.6,154.2c-1.9,0-3.4-1.5-3.4-3.4c0-1.9,1.5-3.4,3.4-3.4c1.9,0,3.4,1.5,3.4,3.4
				C254.1,152.7,252.5,154.2,250.6,154.2z"/>
		</g>
	</g>
</g>
</svg>
