<?xml version="1.0" encoding="utf-8"?>
<!-- Generator: Adobe Illustrator 24.2.3, SVG Export Plug-In . SVG Version: 6.00 Build 0)  -->
<svg version="1.1" xmlns="http://www.w3.org/2000/svg" xmlns:xlink="http://www.w3.org/1999/xlink" x="0px" y="0px"
	 viewBox="0 0 705.9 628.8" style="enable-background:new 0 0 705.9 628.8;" xml:space="preserve">
<style type="text/css">
	.st0{fill:#547DE2;}
	.st1{fill:#145F91;}
	.st2{fill:none;stroke:#04D361;stroke-width:2;stroke-linecap:round;stroke-linejoin:round;stroke-miterlimit:10;}
	.st3{fill:#B4E1F9;}
	.st4{fill:#9871F5;stroke:#9871F5;}
	.st5{fill-rule:evenodd;clip-rule:evenodd;fill:#B4E1F9;}
	.st6{fill-rule:evenodd;clip-rule:evenodd;fill:#EDECF5;}
	.st7{fill-rule:evenodd;clip-rule:evenodd;fill:#FFFFFF;}
	.st8{fill-rule:evenodd;clip-rule:evenodd;fill:#145F91;}
	.st9{fill-rule:evenodd;clip-rule:evenodd;fill:#E1DFEF;}
	.st10{fill-rule:evenodd;clip-rule:evenodd;fill:#8DC7E0;}
	.st11{fill-rule:evenodd;clip-rule:evenodd;fill:#5A96B7;}
	.st12{fill-rule:evenodd;clip-rule:evenodd;fill:#36234D;}
	.st13{fill-rule:evenodd;clip-rule:evenodd;fill:#94D6F2;}
	.st14{fill-rule:evenodd;clip-rule:evenodd;fill:#ECBE8D;}
	.st15{fill-rule:evenodd;clip-rule:evenodd;fill:#C7C2DF;}
	.st16{fill-rule:evenodd;clip-rule:evenodd;fill:#8F87A9;}
	.st17{fill-rule:evenodd;clip-rule:evenodd;fill:#E0E7F5;}
	.st18{fill-rule:evenodd;clip-rule:evenodd;fill:#EBE8F3;}
	.st19{fill-rule:evenodd;clip-rule:evenodd;fill:#1E1642;}
	.st20{fill-rule:evenodd;clip-rule:evenodd;fill:#DD9187;}
	.st21{fill-rule:evenodd;clip-rule:evenodd;fill:#EABFB9;}
	.st22{fill-rule:evenodd;clip-rule:evenodd;fill:#D7766D;}
	.st23{fill-rule:evenodd;clip-rule:evenodd;fill:#F0D4D1;}
	.st24{fill-rule:evenodd;clip-rule:evenodd;fill:#D26070;}
	.st25{fill:#FFFFFF;}
	.st26{font-family:'MyriadPro-Regular';}
	.st27{font-size:67.8366px;}
</style>
<g id="Camada_1">
	<path class="st0" d="M0.5,629.3h533.6c112.3,0,133.3-69.7,123.8-134.6L590.7,0H0.5V629.3z"/>
	<path class="st1" d="M529.6,189.2c0,2.9-2.3,5.2-5.2,5.2s-5.2-2.3-5.2-5.2s2.3-5.2,5.2-5.2S529.6,186.3,529.6,189.2z"/>
	<path class="st1" d="M528.2,192.8l3.7,3.7"/>
	<path class="st1" d="M324.9,118.6l5.5,5.5"/>
	<path class="st1" d="M330.4,118.6l-5.5,5.5"/>
	<path class="st2" d="M403.8,464l5.5,5.5"/>
	<path class="st2" d="M409.3,464l-5.5,5.5"/>
	<path class="st1" d="M54.3,363v7.8"/>
	<path class="st1" d="M58.2,366.9h-7.8"/>
	<path class="st1" d="M37.4,303.1c0,2.6-2.1,4.7-4.7,4.7s-4.7-2.1-4.7-4.7c0-2.6,2.1-4.7,4.7-4.7S37.4,300.5,37.4,303.1z"/>
	<path class="st2" d="M233.8,417.7c0,2.6-2.1,4.7-4.7,4.7s-4.7-2.1-4.7-4.7s2.1-4.7,4.7-4.7C231.7,413,233.8,415.1,233.8,417.7z"/>
	<path class="st1" d="M546.1,332.4c0,2.6-2.1,4.7-4.7,4.7c-2.6,0-4.7-2.1-4.7-4.7s2.1-4.7,4.7-4.7S546.1,329.8,546.1,332.4z"/>
	<path class="st3" d="M8.7,220.1c0,0.7-0.5,1.2-1.2,1.2s-1.2-0.5-1.2-1.2s0.5-1.2,1.2-1.2S8.7,219.4,8.7,220.1z"/>
	<path class="st3" d="M20.7,220.1c0,0.7-0.5,1.2-1.2,1.2c-0.7,0-1.2-0.5-1.2-1.2s0.5-1.2,1.2-1.2C20.2,218.9,20.7,219.4,20.7,220.1z
		"/>
	<path class="st3" d="M32.7,220.1c0,0.7-0.5,1.2-1.2,1.2c-0.7,0-1.2-0.5-1.2-1.2s0.5-1.2,1.2-1.2C32.2,218.9,32.7,219.4,32.7,220.1z
		"/>
	<path class="st3" d="M44.6,220.1c0,0.7-0.5,1.2-1.2,1.2s-1.2-0.5-1.2-1.2s0.5-1.2,1.2-1.2C44.1,218.8,44.6,219.4,44.6,220.1z"/>
	<path class="st3" d="M56.6,220.1c0,0.7-0.5,1.2-1.2,1.2s-1.2-0.5-1.2-1.2s0.5-1.2,1.2-1.2S56.6,219.4,56.6,220.1z"/>
	<path class="st3" d="M68.6,220.1c0,0.7-0.5,1.2-1.2,1.2s-1.2-0.5-1.2-1.2s0.5-1.2,1.2-1.2S68.6,219.4,68.6,220.1z"/>
	<path class="st3" d="M8.7,232c0,0.7-0.5,1.2-1.2,1.2s-1.2-0.5-1.2-1.2s0.5-1.2,1.2-1.2S8.7,231.4,8.7,232z"/>
	<path class="st3" d="M20.7,232c0,0.7-0.5,1.2-1.2,1.2c-0.7,0-1.2-0.5-1.2-1.2s0.5-1.2,1.2-1.2C20.2,230.8,20.7,231.4,20.7,232z"/>
	<path class="st3" d="M32.7,232c0,0.7-0.5,1.2-1.2,1.2c-0.7,0-1.2-0.5-1.2-1.2s0.5-1.2,1.2-1.2C32.2,230.8,32.7,231.4,32.7,232z"/>
	<path class="st3" d="M44.6,232c0,0.7-0.5,1.2-1.2,1.2s-1.2-0.5-1.2-1.2s0.5-1.2,1.2-1.2S44.6,231.4,44.6,232z"/>
	<path class="st3" d="M56.6,232c0,0.7-0.5,1.2-1.2,1.2s-1.2-0.5-1.2-1.2s0.5-1.2,1.2-1.2S56.6,231.4,56.6,232z"/>
	<path class="st3" d="M68.6,232c0,0.7-0.5,1.2-1.2,1.2s-1.2-0.5-1.2-1.2s0.5-1.2,1.2-1.2S68.6,231.4,68.6,232z"/>
	<path class="st3" d="M8.7,244c0,0.7-0.5,1.2-1.2,1.2s-1.2-0.5-1.2-1.2s0.5-1.2,1.2-1.2S8.7,243.4,8.7,244z"/>
	<path class="st3" d="M20.7,244c0,0.7-0.5,1.2-1.2,1.2c-0.7,0-1.2-0.5-1.2-1.2s0.5-1.2,1.2-1.2C20.2,242.8,20.7,243.4,20.7,244z"/>
	<path class="st3" d="M32.7,244c0,0.7-0.5,1.2-1.2,1.2c-0.7,0-1.2-0.5-1.2-1.2s0.5-1.2,1.2-1.2C32.2,242.8,32.7,243.4,32.7,244z"/>
	<path class="st3" d="M44.6,244c0,0.7-0.5,1.2-1.2,1.2s-1.2-0.5-1.2-1.2s0.5-1.2,1.2-1.2C44.1,242.8,44.6,243.4,44.6,244z"/>
	<path class="st3" d="M56.6,244c0,0.7-0.5,1.2-1.2,1.2s-1.2-0.5-1.2-1.2s0.5-1.2,1.2-1.2S56.6,243.4,56.6,244z"/>
	<path class="st3" d="M68.6,244c0,0.7-0.5,1.2-1.2,1.2s-1.2-0.5-1.2-1.2s0.5-1.2,1.2-1.2S68.6,243.4,68.6,244z"/>
	<path class="st3" d="M8.7,256c0,0.7-0.5,1.2-1.2,1.2s-1.2-0.5-1.2-1.2c0-0.7,0.5-1.2,1.2-1.2S8.7,255.3,8.7,256z"/>
	<path class="st3" d="M20.7,256c0,0.7-0.5,1.2-1.2,1.2c-0.7,0-1.2-0.5-1.2-1.2c0-0.7,0.5-1.2,1.2-1.2
		C20.2,254.8,20.7,255.3,20.7,256z"/>
	<path class="st3" d="M32.7,256c0,0.7-0.5,1.2-1.2,1.2c-0.7,0-1.2-0.5-1.2-1.2c0-0.7,0.5-1.2,1.2-1.2
		C32.2,254.8,32.7,255.3,32.7,256z"/>
	<path class="st3" d="M44.6,256c0,0.7-0.5,1.2-1.2,1.2s-1.2-0.5-1.2-1.2c0-0.7,0.5-1.2,1.2-1.2S44.6,255.3,44.6,256z"/>
	<path class="st3" d="M56.6,256c0,0.7-0.5,1.2-1.2,1.2s-1.2-0.5-1.2-1.2c0-0.7,0.5-1.2,1.2-1.2S56.6,255.3,56.6,256z"/>
	<path class="st3" d="M68.6,256c0,0.7-0.5,1.2-1.2,1.2s-1.2-0.5-1.2-1.2c0-0.7,0.5-1.2,1.2-1.2S68.6,255.3,68.6,256z"/>
	<path class="st4" d="M193.4,473.7c0,0.7-0.5,1.2-1.2,1.2c-0.7,0-1.2-0.5-1.2-1.2s0.5-1.2,1.2-1.2
		C192.9,472.5,193.4,473,193.4,473.7z"/>
	<path class="st4" d="M205.4,473.7c0,0.7-0.5,1.2-1.2,1.2c-0.7,0-1.2-0.5-1.2-1.2s0.5-1.2,1.2-1.2
		C204.9,472.5,205.4,473,205.4,473.7z"/>
	<path class="st4" d="M217.4,473.7c0,0.7-0.5,1.2-1.2,1.2c-0.7,0-1.2-0.5-1.2-1.2s0.5-1.2,1.2-1.2
		C216.8,472.5,217.4,473,217.4,473.7z"/>
	<path class="st4" d="M229.3,473.7c0,0.7-0.5,1.2-1.2,1.2c-0.7,0-1.2-0.5-1.2-1.2s0.5-1.2,1.2-1.2
		C228.8,472.5,229.3,473,229.3,473.7z"/>
	<path class="st4" d="M241.3,473.7c0,0.7-0.5,1.2-1.2,1.2c-0.7,0-1.2-0.5-1.2-1.2s0.5-1.2,1.2-1.2
		C240.8,472.5,241.3,473,241.3,473.7z"/>
	<path class="st4" d="M193.4,485.7c0,0.7-0.5,1.2-1.2,1.2c-0.7,0-1.2-0.5-1.2-1.2s0.5-1.2,1.2-1.2
		C192.9,484.5,193.4,485,193.4,485.7z"/>
	<path class="st4" d="M205.4,485.7c0,0.7-0.5,1.2-1.2,1.2c-0.7,0-1.2-0.5-1.2-1.2s0.5-1.2,1.2-1.2
		C204.9,484.5,205.4,485,205.4,485.7z"/>
	<path class="st4" d="M217.4,485.7c0,0.7-0.5,1.2-1.2,1.2c-0.7,0-1.2-0.5-1.2-1.2s0.5-1.2,1.2-1.2
		C216.8,484.5,217.4,485,217.4,485.7z"/>
	<path class="st4" d="M229.3,485.7c0,0.7-0.5,1.2-1.2,1.2c-0.7,0-1.2-0.5-1.2-1.2s0.5-1.2,1.2-1.2
		C228.8,484.5,229.3,485,229.3,485.7z"/>
	<path class="st4" d="M241.3,485.7c0,0.7-0.5,1.2-1.2,1.2c-0.7,0-1.2-0.5-1.2-1.2s0.5-1.2,1.2-1.2
		C240.8,484.5,241.3,485,241.3,485.7z"/>
	<path class="st3" d="M496.7,146c0,0.7-0.5,1.2-1.2,1.2s-1.2-0.5-1.2-1.2s0.5-1.2,1.2-1.2S496.7,145.3,496.7,146z"/>
	<path class="st3" d="M508.7,146c0,0.7-0.5,1.2-1.2,1.2s-1.2-0.5-1.2-1.2s0.5-1.2,1.2-1.2S508.7,145.3,508.7,146z"/>
	<path class="st3" d="M520.7,146c0,0.7-0.5,1.2-1.2,1.2s-1.2-0.5-1.2-1.2s0.5-1.2,1.2-1.2C520.1,144.8,520.7,145.3,520.7,146z"/>
	<path class="st3" d="M496.7,158c0,0.7-0.5,1.2-1.2,1.2s-1.2-0.5-1.2-1.2s0.5-1.2,1.2-1.2S496.7,157.3,496.7,158z"/>
	<path class="st3" d="M508.7,158c0,0.7-0.5,1.2-1.2,1.2s-1.2-0.5-1.2-1.2s0.5-1.2,1.2-1.2S508.7,157.3,508.7,158z"/>
	<path class="st3" d="M520.7,158c0,0.7-0.5,1.2-1.2,1.2s-1.2-0.5-1.2-1.2s0.5-1.2,1.2-1.2C520.1,156.8,520.7,157.3,520.7,158z"/>
	<path class="st3" d="M183.4,123.3c0,0.7-0.5,1.2-1.2,1.2c-0.7,0-1.2-0.5-1.2-1.2c0-0.7,0.5-1.2,1.2-1.2
		C182.9,122.1,183.4,122.6,183.4,123.3z"/>
	<path class="st3" d="M195.3,123.3c0,0.7-0.5,1.2-1.2,1.2c-0.7,0-1.2-0.5-1.2-1.2c0-0.7,0.5-1.2,1.2-1.2
		C194.8,122.1,195.3,122.6,195.3,123.3z"/>
	<path class="st3" d="M207.3,123.3c0,0.7-0.5,1.2-1.2,1.2c-0.7,0-1.2-0.5-1.2-1.2c0-0.7,0.5-1.2,1.2-1.2
		C206.8,122.1,207.3,122.6,207.3,123.3z"/>
	<path class="st3" d="M183.4,135.3c0,0.7-0.5,1.2-1.2,1.2c-0.7,0-1.2-0.5-1.2-1.2s0.5-1.2,1.2-1.2
		C182.9,134.1,183.4,134.6,183.4,135.3z"/>
	<path class="st3" d="M195.3,135.3c0,0.7-0.5,1.2-1.2,1.2c-0.7,0-1.2-0.5-1.2-1.2s0.5-1.2,1.2-1.2
		C194.8,134.1,195.3,134.6,195.3,135.3z"/>
	<path class="st3" d="M207.3,135.3c0,0.7-0.5,1.2-1.2,1.2c-0.7,0-1.2-0.5-1.2-1.2s0.5-1.2,1.2-1.2
		C206.8,134.1,207.3,134.6,207.3,135.3z"/>
	<path class="st3" d="M604.3,371.2c0,0.7-0.5,1.2-1.2,1.2s-1.2-0.5-1.2-1.2c0-0.7,0.5-1.2,1.2-1.2S604.3,370.5,604.3,371.2z"/>
	<path class="st3" d="M604.3,383.2c0,0.7-0.5,1.2-1.2,1.2s-1.2-0.5-1.2-1.2c0-0.7,0.5-1.2,1.2-1.2S604.3,382.5,604.3,383.2z"/>
	<path class="st3" d="M604.3,395.2c0,0.7-0.5,1.2-1.2,1.2s-1.2-0.5-1.2-1.2c0-0.7,0.5-1.2,1.2-1.2S604.3,394.5,604.3,395.2z"/>
	<path class="st3" d="M604.3,407.2c0,0.7-0.5,1.2-1.2,1.2s-1.2-0.5-1.2-1.2c0-0.7,0.5-1.2,1.2-1.2S604.3,406.5,604.3,407.2z"/>
	<path class="st3" d="M604.3,419.1c0,0.7-0.5,1.2-1.2,1.2s-1.2-0.5-1.2-1.2c0-0.7,0.5-1.2,1.2-1.2S604.3,418.5,604.3,419.1z"/>
	<path class="st3" d="M604.3,458.9c0,0.7-0.5,1.2-1.2,1.2s-1.2-0.5-1.2-1.2c0-0.7,0.5-1.2,1.2-1.2S604.3,458.3,604.3,458.9z"/>
	<path class="st3" d="M604.3,470.9c0,0.7-0.5,1.2-1.2,1.2s-1.2-0.5-1.2-1.2s0.5-1.2,1.2-1.2S604.3,470.2,604.3,470.9z"/>
	<path class="st3" d="M592.3,317.2c0,0.7-0.5,1.2-1.2,1.2s-1.2-0.5-1.2-1.2c0-0.7,0.5-1.2,1.2-1.2S592.3,316.5,592.3,317.2z"/>
	<path class="st3" d="M592.3,329.2c0,0.7-0.5,1.2-1.2,1.2s-1.2-0.5-1.2-1.2c0-0.7,0.5-1.2,1.2-1.2S592.3,328.5,592.3,329.2z"/>
	<path class="st3" d="M592.3,341.2c0,0.7-0.5,1.2-1.2,1.2s-1.2-0.5-1.2-1.2c0-0.7,0.5-1.2,1.2-1.2S592.3,340.5,592.3,341.2z"/>
	<path class="st3" d="M592.3,353.2c0,0.7-0.5,1.2-1.2,1.2s-1.2-0.5-1.2-1.2c0-0.7,0.5-1.2,1.2-1.2S592.3,352.5,592.3,353.2z"/>
	<path class="st3" d="M592.3,365.1c0,0.7-0.5,1.2-1.2,1.2s-1.2-0.5-1.2-1.2c0-0.7,0.5-1.2,1.2-1.2S592.3,364.5,592.3,365.1z"/>
	<path class="st3" d="M592.3,377.1c0,0.7-0.5,1.2-1.2,1.2s-1.2-0.5-1.2-1.2c0-0.7,0.5-1.2,1.2-1.2S592.3,376.5,592.3,377.1z"/>
	<path class="st3" d="M592.3,389.1c0,0.7-0.5,1.2-1.2,1.2s-1.2-0.5-1.2-1.2s0.5-1.2,1.2-1.2S592.3,388.4,592.3,389.1z"/>
	<path class="st3" d="M580.4,308c0,0.7-0.5,1.2-1.2,1.2s-1.2-0.5-1.2-1.2c0-0.7,0.5-1.2,1.2-1.2C579.8,306.8,580.4,307.3,580.4,308z
		"/>
	<path class="st3" d="M580.4,320c0,0.7-0.5,1.2-1.2,1.2s-1.2-0.5-1.2-1.2c0-0.7,0.5-1.2,1.2-1.2C579.8,318.8,580.4,319.3,580.4,320z
		"/>
	<path class="st3" d="M580.4,332c0,0.7-0.5,1.2-1.2,1.2s-1.2-0.5-1.2-1.2c0-0.7,0.5-1.2,1.2-1.2C579.8,330.8,580.4,331.3,580.4,332z
		"/>
	<path class="st3" d="M580.4,344c0,0.7-0.5,1.2-1.2,1.2s-1.2-0.5-1.2-1.2c0-0.7,0.5-1.2,1.2-1.2C579.8,342.7,580.4,343.3,580.4,344z
		"/>
	<path class="st3" d="M580.4,355.9c0,0.7-0.5,1.2-1.2,1.2s-1.2-0.5-1.2-1.2c0-0.7,0.5-1.2,1.2-1.2
		C579.8,354.7,580.4,355.3,580.4,355.9z"/>
	<path class="st3" d="M580.4,367.9c0,0.7-0.5,1.2-1.2,1.2s-1.2-0.5-1.2-1.2c0-0.7,0.5-1.2,1.2-1.2
		C579.8,366.7,580.4,367.3,580.4,367.9z"/>
	<path class="st3" d="M580.4,379.9c0,0.7-0.5,1.2-1.2,1.2s-1.2-0.5-1.2-1.2s0.5-1.2,1.2-1.2C579.8,378.7,580.4,379.2,580.4,379.9z"
		/>
	<path class="st3" d="M568.4,308c0,0.7-0.5,1.2-1.2,1.2s-1.2-0.5-1.2-1.2c0-0.7,0.5-1.2,1.2-1.2C567.8,306.8,568.4,307.3,568.4,308z
		"/>
	<path class="st3" d="M568.4,320c0,0.7-0.5,1.2-1.2,1.2s-1.2-0.5-1.2-1.2c0-0.7,0.5-1.2,1.2-1.2C567.8,318.8,568.4,319.3,568.4,320z
		"/>
	<path class="st3" d="M568.4,332c0,0.7-0.5,1.2-1.2,1.2s-1.2-0.5-1.2-1.2c0-0.7,0.5-1.2,1.2-1.2C567.8,330.8,568.4,331.3,568.4,332z
		"/>
	<path class="st3" d="M568.4,344c0,0.7-0.5,1.2-1.2,1.2s-1.2-0.5-1.2-1.2c0-0.7,0.5-1.2,1.2-1.2C567.8,342.7,568.4,343.3,568.4,344z
		"/>
	<path class="st3" d="M568.4,355.9c0,0.7-0.5,1.2-1.2,1.2s-1.2-0.5-1.2-1.2c0-0.7,0.5-1.2,1.2-1.2
		C567.8,354.7,568.4,355.3,568.4,355.9z"/>
	<path class="st3" d="M568.4,367.9c0,0.7-0.5,1.2-1.2,1.2s-1.2-0.5-1.2-1.2c0-0.7,0.5-1.2,1.2-1.2
		C567.8,366.7,568.4,367.3,568.4,367.9z"/>
	<path class="st3" d="M568.4,379.9c0,0.7-0.5,1.2-1.2,1.2s-1.2-0.5-1.2-1.2s0.5-1.2,1.2-1.2C567.8,378.7,568.4,379.2,568.4,379.9z"
		/>
	<g>
		<path class="st5" d="M109.5,376c13.4,0,24.4,11,24.4,24.4l0,0l0,0c0,24.5,20,44.5,44.5,44.5h2.5l0,0h215.7h52
			c31.8,0,57.9-26,57.9-57.9l0,0c0-31.8-26-57.9-57.9-57.9h-1.5c-6.4,0-11.6-5.2-11.6-11.6l0,0c0-6.4,5.2-11.6,11.6-11.6h6.4
			c15.5,0,28.2-12.7,28.2-28.2l0,0c0-15.5-12.7-28.2-28.2-28.2H426c-13.4,0-24.4-11-24.4-24.4l0,0l0,0c0-24.5-20-44.5-44.5-44.5
			c-43.5,0-139.5,0-183,0c-31.8,0-57.9,26-57.9,57.9l0,0c0,31.8,26,57.9,57.9,57.9l0,0c6.4,0,11.6,5.2,11.6,11.6l0,0
			c0,6.4-5.2,11.6-11.6,11.6h-64.6C72.6,319.6,72.6,376,109.5,376z"/>
		<g>
			<polygon class="st6" points="261.7,376.3 263.8,376.3 315,376.3 317.1,376.3 325.8,432.5 306.3,432.5 272.5,432.5 253,432.5 			
				"/>
			<path class="st7" d="M245.1,431.7h88.5c4.6,0,8.4,3.8,8.4,8.4c0,1.4-1.2,2.6-2.6,2.6H239.3c-1.4,0-2.6-1.2-2.6-2.6
				C236.7,435.4,240.5,431.7,245.1,431.7z"/>
			<path class="st8" d="M173.5,234.2h229.3c4.8,0,8.7,3.9,8.7,8.7v137c0,4.8-3.9,8.7-8.7,8.7H173.5c-4.8,0-8.7-3.9-8.7-8.7v-137
				C164.9,238.1,168.8,234.2,173.5,234.2z"/>
			<path class="st7" d="M411.5,375.6v16.6c0,4.8-3.9,8.7-8.7,8.7H173.5c-4.8,0-8.7-3.9-8.7-8.7v-16.6H411.5z"/>
			<rect x="173.1" y="242.4" class="st5" width="230.3" height="125"/>
			<path class="st9" d="M288.2,380.9c3.8,0,6.8,3.1,6.8,6.8c0,3.8-3.1,6.8-6.8,6.8c-3.8,0-6.9-3.1-6.9-6.8
				C281.4,383.9,284.4,380.9,288.2,380.9z"/>
		</g>
		<path class="st10" d="M364.1,358.2h97.3c2.7,0,4.8,2.2,4.8,4.8v62.4c0,2.7-2.2,4.8-4.8,4.8h-97.3c-2.7,0-4.8-2.2-4.8-4.8V363
			C359.3,360.4,361.5,358.2,364.1,358.2z"/>
		<path class="st5" d="M411.5,375.6v16.6c0,4.8-3.9,8.7-8.7,8.7h-43.6v-25.3H411.5z"/>
		<path class="st10" d="M403.3,358.2v9.1h-44V363c0-2.7,2.2-4.8,4.8-4.8H403.3z"/>
		<path class="st11" d="M492.8,442.7H86c-3.1,0-5.7,2.6-5.7,5.7l0,0c0,3.1,2.6,5.7,5.7,5.7h19.3c1.7,0,3.2,1.4,3.2,3.2l0,0
			c0,1.7-1.4,3.2-3.2,3.2h-7.1c-2.2,0-4,1.8-4,4l0,0c0,2.2,1.8,4,4,4h381.7c2.2,0,4-1.8,4-4l0,0c0-2.2-1.8-4-4-4h-5.6
			c-1.7,0-3.2-1.4-3.2-3.2l0,0c0-1.7,1.4-3.2,3.2-3.2h18.5c3.1,0,5.7-2.6,5.7-5.7l0,0C498.5,445.3,495.9,442.7,492.8,442.7
			L492.8,442.7z M489.8,468.4c-2.1,0-3.8-1.7-3.8-3.8v-0.3c0-2.1,1.7-3.8,3.8-3.8l0,0c2.1,0,3.8,1.7,3.8,3.8v0.3
			C493.6,466.7,491.9,468.4,489.8,468.4L489.8,468.4z"/>
		<path class="st7" d="M429.8,245.4c1.4,0,2.6-1.2,2.6-2.6c0-1.4-1.2-2.6-2.6-2.6s-2.6,1.2-2.6,2.6
			C427.2,244.2,428.4,245.4,429.8,245.4z"/>
		<g>
			<path class="st5" d="M301.9,251.9H387c2.7,0,5,2.2,5,5v82.5c0,2.7-2.2,5-5,5h-85.1c-2.7,0-5-2.2-5-5v-82.5
				C296.9,254.1,299.1,251.9,301.9,251.9z"/>
			<path class="st12" d="M305.5,249.5h85.1c2.7,0,5,2.2,5,5V337c0,2.7-2.2,5-5,5h-85.1c-2.7,0-5-2.2-5-5v-82.5
				C300.5,251.7,302.8,249.5,305.5,249.5z"/>
			<path class="st7" d="M309.3,253.1h67.1c0.9,0,1.6,0.7,1.6,1.6v7.9c0,0.9-0.7,1.6-1.6,1.6h-67.1c-0.9,0-1.6-0.7-1.6-1.6v-7.9
				C307.7,253.8,308.4,253.1,309.3,253.1z"/>
			<path class="st13" d="M382.6,253.1h7.8c0.9,0,1.6,0.7,1.6,1.6v8c0,0.9-0.7,1.6-1.6,1.6h-7.8c-0.9,0-1.6-0.7-1.6-1.6v-8
				C381,253.8,381.7,253.1,382.6,253.1z"/>
			<path class="st7" d="M310.6,267.4h64.5c1.6,0,2.9,1.3,2.9,2.9v58.8c0,1.6-1.3,2.9-2.9,2.9h-64.5c-1.6,0-2.9-1.3-2.9-2.9v-58.8
				C307.7,268.7,309,267.4,310.6,267.4z"/>
			<path class="st14" d="M371.9,271.4c0.8,0,1.5,0.7,1.5,1.5c0,0.8-0.7,1.5-1.5,1.5s-1.5-0.7-1.5-1.5
				C370.4,272,371,271.4,371.9,271.4L371.9,271.4z M360.7,271.4c0.8,0,1.5,0.7,1.5,1.5c0,0.8-0.7,1.5-1.5,1.5s-1.5-0.7-1.5-1.5
				C359.2,272,359.8,271.4,360.7,271.4L360.7,271.4z M366.3,271.4c0.8,0,1.5,0.7,1.5,1.5c0,0.8-0.7,1.5-1.5,1.5s-1.5-0.7-1.5-1.5
				C364.8,272,365.4,271.4,366.3,271.4z"/>
			<g>
				<path class="st15" d="M318,293.8h54.9c0.3,0,0.5,0.2,0.5,0.5l0,0c0,0.3-0.2,0.5-0.5,0.5H318c-0.3,0-0.5-0.2-0.5-0.5l0,0
					C317.5,294.1,317.7,293.8,318,293.8z"/>
				<path class="st15" d="M313.2,295.2c0.5,0,0.9-0.4,0.9-0.9s-0.4-0.9-0.9-0.9s-0.9,0.4-0.9,0.9
					C312.3,294.8,312.7,295.2,313.2,295.2z"/>
				<path class="st15" d="M318,298.3h54.9c0.3,0,0.5,0.2,0.5,0.5l0,0c0,0.3-0.2,0.5-0.5,0.5H318c-0.3,0-0.5-0.2-0.5-0.5l0,0
					C317.5,298.5,317.7,298.3,318,298.3z"/>
				<path class="st15" d="M313.2,299.7c0.5,0,0.9-0.4,0.9-0.9s-0.4-0.9-0.9-0.9s-0.9,0.4-0.9,0.9
					C312.3,299.3,312.7,299.7,313.2,299.7z"/>
				<path class="st15" d="M318,302.8h54.9c0.3,0,0.5,0.2,0.5,0.5l0,0c0,0.3-0.2,0.5-0.5,0.5H318c-0.3,0-0.5-0.2-0.5-0.5l0,0
					C317.5,303,317.7,302.8,318,302.8z"/>
				<path class="st15" d="M313.2,304.2c0.5,0,0.9-0.4,0.9-0.9s-0.4-0.9-0.9-0.9s-0.9,0.4-0.9,0.9S312.7,304.2,313.2,304.2z"/>
				<path class="st15" d="M318,307.3h54.9c0.3,0,0.5,0.2,0.5,0.5l0,0c0,0.3-0.2,0.5-0.5,0.5H318c-0.3,0-0.5-0.2-0.5-0.5l0,0
					C317.5,307.5,317.7,307.3,318,307.3z"/>
				<path class="st15" d="M313.2,308.7c0.5,0,0.9-0.4,0.9-0.9s-0.4-0.9-0.9-0.9s-0.9,0.4-0.9,0.9
					C312.3,308.3,312.7,308.7,313.2,308.7z"/>
				<path class="st15" d="M318,311.8h54.9c0.3,0,0.5,0.2,0.5,0.5l0,0c0,0.3-0.2,0.5-0.5,0.5H318c-0.3,0-0.5-0.2-0.5-0.5l0,0
					C317.5,312,317.7,311.8,318,311.8z"/>
				<path class="st15" d="M313.2,313.2c0.5,0,0.9-0.4,0.9-0.9s-0.4-0.9-0.9-0.9s-0.9,0.4-0.9,0.9
					C312.3,312.8,312.7,313.2,313.2,313.2z"/>
				<path class="st15" d="M318,316.2h54.9c0.3,0,0.5,0.2,0.5,0.5l0,0c0,0.3-0.2,0.5-0.5,0.5H318c-0.3,0-0.5-0.2-0.5-0.5l0,0
					C317.5,316.5,317.7,316.2,318,316.2z"/>
				<path class="st15" d="M313.2,317.6c0.5,0,0.9-0.4,0.9-0.9s-0.4-0.9-0.9-0.9s-0.9,0.4-0.9,0.9S312.7,317.6,313.2,317.6z"/>
				<path class="st15" d="M318,320.7h54.9c0.3,0,0.5,0.2,0.5,0.5l0,0c0,0.3-0.2,0.5-0.5,0.5H318c-0.3,0-0.5-0.2-0.5-0.5l0,0
					C317.5,321,317.7,320.7,318,320.7z"/>
				<path class="st15" d="M313.2,322.1c0.5,0,0.9-0.4,0.9-0.9s-0.4-0.9-0.9-0.9s-0.9,0.4-0.9,0.9S312.7,322.1,313.2,322.1z"/>
				<path class="st15" d="M318,325.2h54.9c0.3,0,0.5,0.2,0.5,0.5l0,0c0,0.3-0.2,0.5-0.5,0.5H318c-0.3,0-0.5-0.2-0.5-0.5l0,0
					C317.5,325.5,317.7,325.2,318,325.2z"/>
				<path class="st15" d="M313.2,326.6c0.5,0,0.9-0.4,0.9-0.9s-0.4-0.9-0.9-0.9s-0.9,0.4-0.9,0.9S312.7,326.6,313.2,326.6z"/>
				<path class="st15" d="M334.7,288.2H354c0.6,0,1.1,0.5,1.1,1.1l0,0c0,0.6-0.5,1.1-1.1,1.1h-19.3c-0.6,0-1.1-0.5-1.1-1.1l0,0
					C333.7,288.7,334.2,288.2,334.7,288.2z"/>
				<path class="st15" d="M358.7,288.2h13.7c0.6,0,1.1,0.5,1.1,1.1l0,0c0,0.6-0.5,1.1-1.1,1.1h-13.7c-0.6,0-1.1-0.5-1.1-1.1l0,0
					C357.7,288.7,358.1,288.2,358.7,288.2z"/>
			</g>
			<path class="st7" d="M383.6,255.8c0.6-0.6,1.4-0.9,2.2-0.9l0,0c0.8,0,1.6,0.3,2.2,0.9s0.9,1.4,0.9,2.2l0,0c0,0.6-0.2,1.3-0.6,1.8
				l1.9,1.9c0.2,0.2,0.2,0.4,0,0.6s-0.4,0.2-0.6,0l-1.9-1.9c-0.5,0.4-1.2,0.6-1.8,0.6l0,0c-0.8,0-1.6-0.3-2.2-0.9s-0.9-1.4-0.9-2.2
				l0,0C382.8,257.2,383.1,256.4,383.6,255.8L383.6,255.8z M385.8,255.8c-0.6,0-1.1,0.2-1.6,0.6c-0.4,0.4-0.6,1-0.6,1.5
				c0,0.6,0.2,1.1,0.6,1.6c0.4,0.4,1,0.6,1.5,0.6c0.6,0,1.1-0.2,1.6-0.6c0.4-0.4,0.6-1,0.6-1.5c0-0.6-0.2-1.1-0.6-1.6
				C386.9,256,386.4,255.8,385.8,255.8z"/>
			<path class="st12" d="M315.4,260.1h54.9c0.3,0,0.5,0.2,0.5,0.5l0,0c0,0.3-0.2,0.5-0.5,0.5h-54.9c-0.3,0-0.5-0.2-0.5-0.5l0,0
				C314.9,260.4,315.1,260.1,315.4,260.1z"/>
			<g>
				<path class="st16" d="M334.4,271.4h12.3c0.4,0,0.7,0.4,0.7,0.8l0,0c0,0.4-0.3,0.8-0.7,0.8h-12.3c-0.4,0-0.7-0.4-0.7-0.8l0,0
					C333.7,271.7,334,271.4,334.4,271.4z"/>
				<path class="st16" d="M334.4,274.8h7c0.4,0,0.7,0.4,0.7,0.8l0,0c0,0.4-0.3,0.8-0.7,0.8h-7c-0.4,0-0.7-0.4-0.7-0.8l0,0
					C333.7,275.2,334,274.8,334.4,274.8z"/>
				<path class="st16" d="M343.7,274.8h1c0.4,0,0.7,0.4,0.7,0.8l0,0c0,0.4-0.3,0.8-0.7,0.8h-1c-0.4,0-0.7-0.4-0.7-0.8l0,0
					C343,275.2,343.3,274.8,343.7,274.8z"/>
				<path class="st16" d="M334.4,284.4h6.3c0.4,0,0.7-0.4,0.7-0.8l0,0c0-0.4-0.3-0.8-0.7-0.8h-6.3c-0.4,0-0.7,0.4-0.7,0.8l0,0
					C333.7,284,334,284.4,334.4,284.4z"/>
				<path class="st16" d="M334.4,280.9h8.6c0.4,0,0.7-0.4,0.7-0.8l0,0c0-0.4-0.3-0.8-0.7-0.8h-8.6c-0.4,0-0.7,0.4-0.7,0.8l0,0
					C333.7,280.5,334,280.9,334.4,280.9z"/>
				<path class="st16" d="M345.6,280.9h1.5c0.4,0,0.7-0.4,0.7-0.8l0,0c0-0.4-0.3-0.8-0.7-0.8h-1.5c-0.4,0-0.7,0.4-0.7,0.8l0,0
					C344.9,280.5,345.2,280.9,345.6,280.9z"/>
			</g>
			<path class="st12" d="M313.9,271.2h16c0.4,0,0.8,0.3,0.8,0.8v17c0,0.4-0.3,0.8-0.8,0.8h-16c-0.4,0-0.8-0.3-0.8-0.8v-17
				C313.2,271.5,313.5,271.2,313.9,271.2z"/>
			<g>
				<path class="st7" d="M317.1,278.8h9.6c0.3,0,0.5,0.1,0.7,0.3c0.2,0.2,0.3,0.4,0.3,0.7v6.1c0,0.3-0.1,0.5-0.3,0.7
					c-0.2,0.2-0.4,0.3-0.7,0.3h-9.6c-0.3,0-0.5-0.1-0.7-0.3c-0.2-0.2-0.3-0.4-0.3-0.7v-6.1c0-0.3,0.1-0.5,0.3-0.7
					C316.6,278.9,316.8,278.8,317.1,278.8L317.1,278.8z M326.7,279.5h-9.6c-0.1,0-0.2,0-0.2,0.1c-0.1,0.1-0.1,0.1-0.1,0.2v6.1
					c0,0.1,0,0.2,0.1,0.2c0.1,0.1,0.1,0.1,0.2,0.1h9.6c0.1,0,0.2,0,0.2-0.1c0.1-0.1,0.1-0.1,0.1-0.2v-6.1c0-0.1,0-0.2-0.1-0.2
					C326.9,279.5,326.8,279.5,326.7,279.5z"/>
				<path class="st7" d="M316.6,278.8h10.6c0.1,0,0.2,0,0.3-0.1c0.1-0.1,0.1-0.2,0.1-0.3v-1.6c0-0.1,0-0.2-0.1-0.3s-0.2-0.1-0.3-0.1
					h-10.6c-0.1,0-0.2,0-0.3,0.1c-0.1,0.1-0.1,0.2-0.1,0.3v1.6c0,0.1,0,0.2,0.1,0.3C316.4,278.7,316.5,278.8,316.6,278.8
					L316.6,278.8z M327.3,279.5h-10.6c-0.3,0-0.6-0.1-0.8-0.3c-0.2-0.2-0.3-0.5-0.3-0.8v-1.6c0-0.3,0.1-0.6,0.3-0.8
					c0.2-0.2,0.5-0.3,0.8-0.3h10.6c0.3,0,0.6,0.1,0.8,0.3c0.2,0.2,0.3,0.5,0.3,0.8v1.6c0,0.3-0.1,0.6-0.3,0.8
					C327.8,279.4,327.6,279.5,327.3,279.5z"/>
				<path class="st7" d="M326.7,276.1c0,0.2-0.1,0.3-0.3,0.3c-0.2,0-0.3-0.1-0.3-0.3v-1.2c0-0.3-0.1-0.5-0.3-0.6
					c-0.2-0.2-0.4-0.3-0.6-0.3h-6.5c-0.3,0-0.5,0.1-0.6,0.3c-0.2,0.2-0.3,0.4-0.3,0.6v1.2c0,0.2-0.1,0.3-0.3,0.3
					c-0.2,0-0.3-0.1-0.3-0.3v-1.2c0-0.4,0.2-0.8,0.4-1c0.3-0.3,0.6-0.4,1-0.4h6.5c0.4,0,0.8,0.2,1,0.4c0.3,0.3,0.4,0.6,0.4,1v1.2
					H326.7z"/>
			</g>
			<path class="st7" d="M321.4,280.7h1.1c0.1,0,0.2,0.1,0.2,0.2v1.1h1.1c0.1,0,0.2,0.1,0.2,0.2v1.1c0,0.1-0.1,0.2-0.2,0.2h-1.1v1.1
				c0,0.1-0.1,0.2-0.2,0.2h-1.1c-0.1,0-0.2-0.1-0.2-0.2v-1h-1.1c-0.1,0-0.2-0.1-0.2-0.2v-1.1c0-0.1,0.1-0.2,0.2-0.2h1.1V281
				C321.1,280.8,321.3,280.7,321.4,280.7z"/>
		</g>
		<path class="st7" d="M451.2,299.2c12.1,0,22-9.9,22-22s-9.9-22-22-22s-22,9.9-22,22C429.2,289.3,439.1,299.2,451.2,299.2z"/>
		<path class="st12" d="M451.2,281.7c0.8,0,1.5,0.3,2.1,0.9s0.9,1.3,0.9,2.1c0,0.8-0.3,1.5-0.9,2.1l0,0c-0.5,0.5-1.3,0.9-2.1,0.9
			s-1.5-0.3-2.1-0.9c-0.5-0.6-0.9-1.3-0.9-2.1c0-0.8,0.3-1.5,0.9-2.1S450.5,281.7,451.2,281.7L451.2,281.7z M440.1,274.2
			c-0.5,0.5-1.3,0.6-1.8,0.1s-0.6-1.3-0.1-1.8c1.7-1.8,3.7-3.2,6-4.2c2.2-1,4.7-1.5,7.1-1.5s4.9,0.5,7.1,1.5s4.3,2.4,6,4.2
			c0.5,0.5,0.5,1.3-0.1,1.8c-0.5,0.5-1.3,0.5-1.8-0.1c-1.4-1.5-3.2-2.8-5.1-3.6c-1.9-0.8-4-1.3-6.1-1.3s-4.2,0.4-6.1,1.3
			C443.2,271.4,441.5,272.7,440.1,274.2L440.1,274.2z M443.5,277.4c1-1.1,2.2-1.9,3.5-2.5s2.8-0.9,4.2-0.9c1.5,0,2.9,0.3,4.2,0.9
			c1.3,0.6,2.5,1.4,3.5,2.5c0.5,0.5,1.3,0.6,1.8,0.1s0.6-1.3,0.1-1.8c-1.2-1.3-2.7-2.4-4.4-3.1c-1.7-0.7-3.4-1.1-5.3-1.1
			c-1.8,0-3.6,0.4-5.3,1.1c-1.7,0.7-3.2,1.8-4.4,3.1c-0.5,0.5-0.5,1.3,0.1,1.8C442.2,277.9,443,277.9,443.5,277.4L443.5,277.4z
			 M447.4,281c-0.5,0.5-1.3,0.6-1.8,0.1s-0.6-1.3-0.1-1.8c0.7-0.8,1.6-1.4,2.6-1.9c1-0.4,2.1-0.7,3.1-0.7s2.1,0.2,3.1,0.7
			c1,0.4,1.9,1.1,2.6,1.9c0.5,0.5,0.5,1.3-0.1,1.8c-0.5,0.5-1.3,0.5-1.8-0.1c-0.5-0.5-1.1-1-1.8-1.2c-0.7-0.3-1.4-0.4-2.1-0.4
			s-1.4,0.1-2.1,0.4C448.5,280.1,447.9,280.5,447.4,281z"/>
		<g>
			<g>
				<path class="st10" d="M180.2,427.3h3c0.7,0,1.3-0.6,1.3-1.3v-3c0-0.7-0.6-1.3-1.3-1.3h-3c-0.7,0-1.3,0.6-1.3,1.3v3
					C178.9,426.7,179.5,427.3,180.2,427.3z"/>
				<path class="st7" d="M190.5,427.3h3c0.7,0,1.3-0.6,1.3-1.3v-3c0-0.7-0.6-1.3-1.3-1.3h-3c-0.7,0-1.3,0.6-1.3,1.3v3
					C189.2,426.7,189.8,427.3,190.5,427.3z"/>
				<path class="st10" d="M200.8,427.3h3c0.7,0,1.3-0.6,1.3-1.3v-3c0-0.7-0.6-1.3-1.3-1.3h-3c-0.7,0-1.3,0.6-1.3,1.3v3
					C199.5,426.7,200.1,427.3,200.8,427.3z"/>
				<path class="st7" d="M211.2,427.3h3c0.7,0,1.3-0.6,1.3-1.3v-3c0-0.7-0.6-1.3-1.3-1.3h-3c-0.7,0-1.3,0.6-1.3,1.3v3
					C209.9,426.7,210.5,427.3,211.2,427.3z"/>
				<path class="st10" d="M221.5,427.3h3c0.7,0,1.3-0.6,1.3-1.3v-3c0-0.7-0.6-1.3-1.3-1.3h-3c-0.7,0-1.3,0.6-1.3,1.3v3
					C220.2,426.7,220.8,427.3,221.5,427.3z"/>
				<path class="st7" d="M201.2,416.1h3c0.7,0,1.3-0.6,1.3-1.3v-3c0-0.7-0.6-1.3-1.3-1.3h-3c-0.7,0-1.3,0.6-1.3,1.3v3
					C199.9,415.5,200.5,416.1,201.2,416.1z"/>
				<path class="st10" d="M211.6,416.1h3c0.7,0,1.3-0.6,1.3-1.3v-3c0-0.7-0.6-1.3-1.3-1.3h-3c-0.7,0-1.3,0.6-1.3,1.3v3
					C210.3,415.5,210.8,416.1,211.6,416.1z"/>
				<path class="st7" d="M221.9,416.1h3c0.7,0,1.3-0.6,1.3-1.3v-3c0-0.7-0.6-1.3-1.3-1.3h-3c-0.7,0-1.3,0.6-1.3,1.3v3
					C220.6,415.5,221.2,416.1,221.9,416.1z"/>
			</g>
			<path class="st10" d="M269.1,211c0-0.4,0.3-0.7,0.7-0.7c0.4,0,0.7,0.3,0.7,0.7v3.1c0,0.4-0.3,0.7-0.7,0.7c-0.4,0-0.7-0.3-0.7-0.7
				V211L269.1,211z M264.4,213.5c-0.3-0.3-0.3-0.7,0-1s0.7-0.3,1,0l2.2,2.2c0.3,0.3,0.3,0.7,0,1s-0.7,0.3-1,0L264.4,213.5
				L264.4,213.5z M262.9,218.6c-0.4,0-0.7-0.3-0.7-0.7c0-0.4,0.3-0.7,0.7-0.7h3.1c0.4,0,0.7,0.3,0.7,0.7s-0.3,0.7-0.7,0.7H262.9
				L262.9,218.6z M265.4,223.3c-0.3,0.3-0.7,0.3-1,0s-0.3-0.7,0-1l2.2-2.2c0.3-0.3,0.7-0.3,1,0s0.3,0.7,0,1L265.4,223.3L265.4,223.3
				z M270.5,224.8c0,0.4-0.3,0.7-0.7,0.7c-0.4,0-0.7-0.3-0.7-0.7v-3.1c0-0.4,0.3-0.7,0.7-0.7c0.4,0,0.7,0.3,0.7,0.7V224.8
				L270.5,224.8z M275.2,222.3c0.3,0.3,0.3,0.7,0,1s-0.7,0.3-1,0l-2.2-2.2c-0.3-0.3-0.3-0.7,0-1s0.7-0.3,1,0L275.2,222.3
				L275.2,222.3z M276.7,217.2c0.4,0,0.7,0.3,0.7,0.7c0,0.4-0.3,0.7-0.7,0.7h-3.1c-0.4,0-0.7-0.3-0.7-0.7s0.3-0.7,0.7-0.7H276.7
				L276.7,217.2z M274.2,212.5c0.3-0.3,0.7-0.3,1,0s0.3,0.7,0,1l-2.2,2.2c-0.3,0.3-0.7,0.3-1,0s-0.3-0.7,0-1L274.2,212.5z"/>
			<path class="st10" d="M133.8,237.7c0-0.4,0.3-0.7,0.7-0.7s0.7,0.3,0.7,0.7v3.1c0,0.4-0.3,0.7-0.7,0.7s-0.7-0.3-0.7-0.7V237.7
				L133.8,237.7z M129.1,240.2c-0.3-0.3-0.3-0.7,0-1c0.3-0.3,0.7-0.3,1,0l2.2,2.2c0.3,0.3,0.3,0.7,0,1c-0.3,0.3-0.7,0.3-1,0
				L129.1,240.2L129.1,240.2z M127.6,245.3c-0.4,0-0.7-0.3-0.7-0.7c0-0.4,0.3-0.7,0.7-0.7h3.1c0.4,0,0.7,0.3,0.7,0.7
				s-0.3,0.7-0.7,0.7H127.6L127.6,245.3z M130.1,250c-0.3,0.3-0.7,0.3-1,0c-0.3-0.3-0.3-0.7,0-1l2.2-2.2c0.3-0.3,0.7-0.3,1,0
				c0.3,0.3,0.3,0.7,0,1L130.1,250L130.1,250z M135.2,251.5c0,0.4-0.3,0.7-0.7,0.7s-0.7-0.3-0.7-0.7v-3.1c0-0.4,0.3-0.7,0.7-0.7
				s0.7,0.3,0.7,0.7V251.5L135.2,251.5z M139.9,249c0.3,0.3,0.3,0.7,0,1c-0.3,0.3-0.7,0.3-1,0l-2.2-2.2c-0.3-0.3-0.3-0.7,0-1
				c0.3-0.3,0.7-0.3,1,0L139.9,249L139.9,249z M141.4,243.9c0.4,0,0.7,0.3,0.7,0.7s-0.3,0.7-0.7,0.7h-3.1c-0.4,0-0.7-0.3-0.7-0.7
				c0-0.4,0.3-0.7,0.7-0.7H141.4L141.4,243.9z M138.9,239.2c0.3-0.3,0.7-0.3,1,0c0.3,0.3,0.3,0.7,0,1l-2.2,2.2c-0.3,0.3-0.7,0.3-1,0
				c-0.3-0.3-0.3-0.7,0-1L138.9,239.2z"/>
			<path class="st10" d="M423.9,294c0-0.4,0.3-0.7,0.7-0.7c0.4,0,0.7,0.3,0.7,0.7v3.1c0,0.4-0.3,0.7-0.7,0.7c-0.4,0-0.7-0.3-0.7-0.7
				V294L423.9,294z M419.2,296.5c-0.3-0.3-0.3-0.7,0-1c0.3-0.3,0.7-0.3,1,0l2.2,2.2c0.3,0.3,0.3,0.7,0,1c-0.3,0.3-0.7,0.3-1,0
				L419.2,296.5L419.2,296.5z M417.7,301.6c-0.4,0-0.7-0.3-0.7-0.7s0.3-0.7,0.7-0.7h3.1c0.4,0,0.7,0.3,0.7,0.7s-0.3,0.7-0.7,0.7
				H417.7L417.7,301.6z M420.2,306.3c-0.3,0.3-0.7,0.3-1,0c-0.3-0.3-0.3-0.7,0-1l2.2-2.2c0.3-0.3,0.7-0.3,1,0c0.3,0.3,0.3,0.7,0,1
				L420.2,306.3L420.2,306.3z M425.3,307.8c0,0.4-0.3,0.7-0.7,0.7c-0.4,0-0.7-0.3-0.7-0.7v-3.1c0-0.4,0.3-0.7,0.7-0.7
				c0.4,0,0.7,0.3,0.7,0.7V307.8L425.3,307.8z M430,305.3c0.3,0.3,0.3,0.7,0,1c-0.3,0.3-0.7,0.3-1,0l-2.2-2.2c-0.3-0.3-0.3-0.7,0-1
				c0.3-0.3,0.7-0.3,1,0L430,305.3L430,305.3z M431.5,300.2c0.4,0,0.7,0.3,0.7,0.7s-0.3,0.7-0.7,0.7h-3.1c-0.4,0-0.7-0.3-0.7-0.7
				s0.3-0.7,0.7-0.7H431.5L431.5,300.2z M429,295.5c0.3-0.3,0.7-0.3,1,0c0.3,0.3,0.3,0.7,0,1l-2.2,2.2c-0.3,0.3-0.7,0.3-1,0
				c-0.3-0.3-0.3-0.7,0-1L429,295.5z"/>
			<path class="st7" d="M142.7,263.8c1.4,0,2.6-1.2,2.6-2.6c0-1.4-1.2-2.6-2.6-2.6s-2.6,1.2-2.6,2.6
				C140.1,262.6,141.3,263.8,142.7,263.8z"/>
			<path class="st7" d="M299.4,203.5c1.4,0,2.6-1.2,2.6-2.6c0-1.4-1.2-2.6-2.6-2.6s-2.6,1.2-2.6,2.6
				C296.9,202.4,298,203.5,299.4,203.5z"/>
			<path class="st7" d="M422.8,343c1.4,0,2.6-1.2,2.6-2.6s-1.2-2.6-2.6-2.6s-2.6,1.2-2.6,2.6C420.2,341.9,421.4,343,422.8,343z"/>
			<path class="st7" d="M487.6,370.9c1.4,0,2.6-1.2,2.6-2.6c0-1.4-1.2-2.6-2.6-2.6s-2.6,1.2-2.6,2.6
				C485.1,369.8,486.2,370.9,487.6,370.9z"/>
			<path class="st7" d="M335.8,189.9c0-0.4,0.3-0.7,0.7-0.7c0.4,0,0.7,0.3,0.7,0.7v3.1c0,0.4-0.3,0.7-0.7,0.7
				c-0.4,0-0.7-0.3-0.7-0.7V189.9L335.8,189.9z M331.2,192.4c-0.3-0.3-0.3-0.7,0-1s0.7-0.3,1,0l2.2,2.2c0.3,0.3,0.3,0.7,0,1
				s-0.7,0.3-1,0L331.2,192.4L331.2,192.4z M329.6,197.5c-0.4,0-0.7-0.3-0.7-0.7s0.3-0.7,0.7-0.7h3.1c0.4,0,0.7,0.3,0.7,0.7
				s-0.3,0.7-0.7,0.7H329.6L329.6,197.5z M332.1,202.2c-0.3,0.3-0.7,0.3-1,0s-0.3-0.7,0-1l2.2-2.2c0.3-0.3,0.7-0.3,1,0s0.3,0.7,0,1
				L332.1,202.2L332.1,202.2z M337.2,203.7c0,0.4-0.3,0.7-0.7,0.7c-0.4,0-0.7-0.3-0.7-0.7v-3.1c0-0.4,0.3-0.7,0.7-0.7
				c0.4,0,0.7,0.3,0.7,0.7V203.7L337.2,203.7z M341.9,201.2c0.3,0.3,0.3,0.7,0,1s-0.7,0.3-1,0l-2.2-2.2c-0.3-0.3-0.3-0.7,0-1
				s0.7-0.3,1,0L341.9,201.2L341.9,201.2z M343.4,196.1c0.4,0,0.7,0.3,0.7,0.7s-0.3,0.7-0.7,0.7h-3.1c-0.4,0-0.7-0.3-0.7-0.7
				s0.3-0.7,0.7-0.7H343.4L343.4,196.1z M340.9,191.4c0.3-0.3,0.7-0.3,1,0s0.3,0.7,0,1l-2.2,2.2c-0.3,0.3-0.7,0.3-1,0s-0.3-0.7,0-1
				L340.9,191.4z"/>
			<path class="st10" d="M482.4,392.1c0-0.4,0.3-0.7,0.7-0.7c0.4,0,0.7,0.3,0.7,0.7v3.1c0,0.4-0.3,0.7-0.7,0.7
				c-0.4,0-0.7-0.3-0.7-0.7V392.1L482.4,392.1z M477.7,394.7c-0.3-0.3-0.3-0.7,0-1s0.7-0.3,1,0l2.2,2.2c0.3,0.3,0.3,0.7,0,1
				s-0.7,0.3-1,0L477.7,394.7L477.7,394.7z M476.2,399.7c-0.4,0-0.7-0.3-0.7-0.7c0-0.4,0.3-0.7,0.7-0.7h3.1c0.4,0,0.7,0.3,0.7,0.7
				c0,0.4-0.3,0.7-0.7,0.7H476.2L476.2,399.7z M478.7,404.4c-0.3,0.3-0.7,0.3-1,0s-0.3-0.7,0-1l2.2-2.2c0.3-0.3,0.7-0.3,1,0
				s0.3,0.7,0,1L478.7,404.4L478.7,404.4z M483.8,406c0,0.4-0.3,0.7-0.7,0.7c-0.4,0-0.7-0.3-0.7-0.7v-3.1c0-0.4,0.3-0.7,0.7-0.7
				c0.4,0,0.7,0.3,0.7,0.7V406L483.8,406z M488.5,403.5c0.3,0.3,0.3,0.7,0,1s-0.7,0.3-1,0l-2.2-2.2c-0.3-0.3-0.3-0.7,0-1
				s0.7-0.3,1,0L488.5,403.5L488.5,403.5z M490,398.4c0.4,0,0.7,0.3,0.7,0.7c0,0.4-0.3,0.7-0.7,0.7h-3.1c-0.4,0-0.7-0.3-0.7-0.7
				c0-0.4,0.3-0.7,0.7-0.7H490L490,398.4z M487.5,393.7c0.3-0.3,0.7-0.3,1,0s0.3,0.7,0,1l-2.2,2.2c-0.3,0.3-0.7,0.3-1,0
				s-0.3-0.7,0-1L487.5,393.7z"/>
			<g>
				<path class="st10" d="M128,370.9h1.3c0.3,0,0.6-0.3,0.6-0.6V369c0-0.3-0.3-0.6-0.6-0.6H128c-0.3,0-0.6,0.3-0.6,0.6v1.3
					C127.5,370.6,127.7,370.9,128,370.9z"/>
				<path class="st7" d="M132.7,370.9h1.3c0.3,0,0.6-0.3,0.6-0.6V369c0-0.3-0.3-0.6-0.6-0.6h-1.3c-0.3,0-0.6,0.3-0.6,0.6v1.3
					C132.1,370.6,132.3,370.9,132.7,370.9z"/>
				<path class="st10" d="M137.3,370.9h1.3c0.3,0,0.6-0.3,0.6-0.6V369c0-0.3-0.3-0.6-0.6-0.6h-1.3c-0.3,0-0.6,0.3-0.6,0.6v1.3
					C136.7,370.6,136.9,370.9,137.3,370.9z"/>
				<path class="st7" d="M141.9,370.9h1.3c0.3,0,0.6-0.3,0.6-0.6V369c0-0.3-0.3-0.6-0.6-0.6h-1.3c-0.3,0-0.6,0.3-0.6,0.6v1.3
					C141.3,370.6,141.6,370.9,141.9,370.9z"/>
				<path class="st10" d="M146.5,370.9h1.3c0.3,0,0.6-0.3,0.6-0.6V369c0-0.3-0.3-0.6-0.6-0.6h-1.3c-0.3,0-0.6,0.3-0.6,0.6v1.3
					C145.9,370.6,146.2,370.9,146.5,370.9z"/>
				<path class="st7" d="M137.4,365.8h1.3c0.3,0,0.6-0.3,0.6-0.6v-1.3c0-0.3-0.3-0.6-0.6-0.6h-1.3c-0.3,0-0.6,0.3-0.6,0.6v1.3
					C136.8,365.6,137.1,365.8,137.4,365.8z"/>
				<path class="st10" d="M142,365.8h1.3c0.3,0,0.6-0.3,0.6-0.6v-1.3c0-0.3-0.3-0.6-0.6-0.6H142c-0.3,0-0.6,0.3-0.6,0.6v1.3
					C141.5,365.6,141.7,365.8,142,365.8z"/>
				<path class="st7" d="M146.7,365.8h1.3c0.3,0,0.6-0.3,0.6-0.6v-1.3c0-0.3-0.3-0.6-0.6-0.6h-1.3c-0.3,0-0.6,0.3-0.6,0.6v1.3
					C146.1,365.6,146.3,365.8,146.7,365.8z"/>
			</g>
			<g>
				<path class="st10" d="M337.4,225.2h2.4c0.6,0,1-0.5,1-1v-2.4c0-0.6-0.5-1-1-1h-2.4c-0.6,0-1,0.5-1,1v2.4
					C336.3,224.7,336.8,225.2,337.4,225.2z"/>
				<path class="st7" d="M345.5,225.2h2.4c0.6,0,1-0.5,1-1v-2.4c0-0.6-0.5-1-1-1h-2.4c-0.6,0-1,0.5-1,1v2.4
					C344.5,224.7,344.9,225.2,345.5,225.2z"/>
				<path class="st10" d="M353.7,225.2h2.4c0.6,0,1-0.5,1-1v-2.4c0-0.6-0.5-1-1-1h-2.4c-0.6,0-1,0.5-1,1v2.4
					C352.6,224.7,353.1,225.2,353.7,225.2z"/>
				<path class="st7" d="M361.8,225.2h2.4c0.6,0,1-0.5,1-1v-2.4c0-0.6-0.5-1-1-1h-2.4c-0.6,0-1,0.5-1,1v2.4
					C360.8,224.7,361.2,225.2,361.8,225.2z"/>
				<path class="st10" d="M370,225.2h2.4c0.6,0,1-0.5,1-1v-2.4c0-0.6-0.5-1-1-1H370c-0.6,0-1,0.5-1,1v2.4
					C368.9,224.7,369.4,225.2,370,225.2z"/>
				<path class="st7" d="M354,216.3h2.4c0.6,0,1-0.5,1-1v-2.4c0-0.6-0.5-1-1-1H354c-0.6,0-1,0.5-1,1v2.4
					C352.9,215.8,353.4,216.3,354,216.3z"/>
				<path class="st10" d="M362.1,216.3h2.4c0.6,0,1-0.5,1-1v-2.4c0-0.6-0.5-1-1-1h-2.4c-0.6,0-1,0.5-1,1v2.4
					C361.1,215.8,361.5,216.3,362.1,216.3z"/>
				<path class="st7" d="M370.3,216.3h2.4c0.6,0,1-0.5,1-1v-2.4c0-0.6-0.5-1-1-1h-2.4c-0.6,0-1,0.5-1,1v2.4
					C369.2,215.8,369.7,216.3,370.3,216.3z"/>
			</g>
		</g>
		<g>
			<path class="st10" d="M182.7,201.6c6.1,0,11,4.9,11,11c0,6.1-4.9,11-11,11h-9.6c-0.7,2.9-3,3.6-5.1,3.6c-2.6,0-11.4,0-15.7,0
				c-4.3,0-5.3-3.6-5.3-3.6h-9.4c-2.5,0-4.5-2-4.5-4.5c0-2.4,1.8-4.3,4.2-4.5c0-0.2,0-0.4,0-0.7c0-5,4-9,9-9c1.3,0,2.6,0.3,3.7,0.8
				c1.1-7.6,7.6-13.4,15.5-13.4c6.6,0,12.2,4,14.5,9.8C180.8,201.7,181.7,201.6,182.7,201.6z"/>
			<path class="st7" d="M182.9,199.6c6.1,0,11,4.9,11,11c0,6.1-4.9,11-11,11h-17.2h-27.9c-2.5,0-4.5-2-4.5-4.5
				c0-2.4,1.8-4.3,4.2-4.5c0-0.2,0-0.4,0-0.7c0-5,4-9,9-9c1.3,0,2.6,0.3,3.7,0.8c1.1-7.6,7.6-13.4,15.5-13.4c6.6,0,12.2,4,14.5,9.8
				C181.1,199.7,182,199.6,182.9,199.6z"/>
			<path class="st17" d="M172.4,219.3c0-4.7,0-9,0-9h2.3h0.8l-7-9.8h-1.2l-8.2,9.8h0.8h2.3v0.1c0,10.7,0.3,11.2-7.7,11.2h11.3h6.4
				C172.3,220.9,172.4,220.1,172.4,219.3z"/>
			<path class="st12" d="M173.6,219.3c0-4.7,0-9,0-9h2.3h0.8l-8.2-9.8l-8.2,9.8h0.8h2.3v0.1c0,10.7,0.3,11.2-7.7,11.2h-8.4
				c0,0,1,3.6,5.3,3.6c4.3,0,13.1,0,15.7,0c2.1,0,4.3-0.7,5.1-3.6C173.5,220.9,173.6,220.1,173.6,219.3z"/>
		</g>
		<g>
			<path class="st12" d="M367.5,353.7h97.3c2.7,0,4.8,2.2,4.8,4.8v62.4c0,2.7-2.2,4.8-4.8,4.8h-97.3c-2.7,0-4.8-2.2-4.8-4.8v-62.4
				C362.7,355.9,364.9,353.7,367.5,353.7z"/>
			<path class="st7" d="M372.1,359.5h20.2c1.2,0,2.3,1,2.3,2.3V381c0,1.2-1,2.3-2.3,2.3h-20.2c-1.2,0-2.3-1-2.3-2.3v-19.2
				C369.8,360.6,370.8,359.5,372.1,359.5z"/>
			<g>
				<path class="st13" d="M382.2,381c5.3,0,9.6-4.3,9.6-9.6s-4.3-9.6-9.6-9.6c-5.3,0-9.6,4.3-9.6,9.6S376.9,381,382.2,381z"/>
				<path class="st7" d="M387.1,377.7c-1.4,1.1-3.1,1.7-4.9,1.7c-1.9,0-3.6-0.6-4.9-1.7c0.1-2.6,2.3-4.8,4.9-4.8l0,0
					C384.8,372.9,387,375,387.1,377.7L387.1,377.7z M382.2,364.6c2,0,3.6,1.6,3.6,3.6s-1.6,3.6-3.6,3.6s-3.6-1.6-3.6-3.6
					S380.2,364.6,382.2,364.6z"/>
			</g>
			<g>
				<path class="st18" d="M375.5,386.8h54.9c0.3,0,0.5,0.2,0.5,0.5l0,0c0,0.3-0.2,0.5-0.5,0.5h-54.9c-0.3,0-0.5-0.2-0.5-0.5l0,0
					C375,387.1,375.2,386.8,375.5,386.8z"/>
				<path class="st18" d="M370.7,388.2c0.5,0,0.9-0.4,0.9-0.9s-0.4-0.9-0.9-0.9s-0.9,0.4-0.9,0.9S370.2,388.2,370.7,388.2z"/>
				<path class="st18" d="M375.5,391.3h54.9c0.3,0,0.5,0.2,0.5,0.5l0,0c0,0.3-0.2,0.5-0.5,0.5h-54.9c-0.3,0-0.5-0.2-0.5-0.5l0,0
					C375,391.5,375.2,391.3,375.5,391.3z"/>
				<path class="st18" d="M370.7,392.7c0.5,0,0.9-0.4,0.9-0.9s-0.4-0.9-0.9-0.9s-0.9,0.4-0.9,0.9S370.2,392.7,370.7,392.7z"/>
				<path class="st18" d="M375.5,395.8h54.9c0.3,0,0.5,0.2,0.5,0.5l0,0c0,0.3-0.2,0.5-0.5,0.5h-54.9c-0.3,0-0.5-0.2-0.5-0.5l0,0
					C375,396,375.2,395.8,375.5,395.8z"/>
				<path class="st18" d="M370.7,397.2c0.5,0,0.9-0.4,0.9-0.9s-0.4-0.9-0.9-0.9s-0.9,0.4-0.9,0.9S370.2,397.2,370.7,397.2z"/>
				<path class="st18" d="M375.5,400.3h54.9c0.3,0,0.5,0.2,0.5,0.5l0,0c0,0.3-0.2,0.5-0.5,0.5h-54.9c-0.3,0-0.5-0.2-0.5-0.5l0,0
					C375,400.5,375.2,400.3,375.5,400.3z"/>
				<path class="st18" d="M370.7,401.7c0.5,0,0.9-0.4,0.9-0.9s-0.4-0.9-0.9-0.9s-0.9,0.4-0.9,0.9S370.2,401.7,370.7,401.7z"/>
				<path class="st18" d="M375.5,404.8h54.9c0.3,0,0.5,0.2,0.5,0.5l0,0c0,0.3-0.2,0.5-0.5,0.5h-54.9c-0.3,0-0.5-0.2-0.5-0.5l0,0
					C375,405,375.2,404.8,375.5,404.8z"/>
				<path class="st18" d="M370.7,406.2c0.5,0,0.9-0.4,0.9-0.9s-0.4-0.9-0.9-0.9s-0.9,0.4-0.9,0.9S370.2,406.2,370.7,406.2z"/>
				<path class="st18" d="M375.5,409.2h54.9c0.3,0,0.5,0.2,0.5,0.5l0,0c0,0.3-0.2,0.5-0.5,0.5h-54.9c-0.3,0-0.5-0.2-0.5-0.5l0,0
					C375,409.5,375.2,409.2,375.5,409.2z"/>
				<path class="st18" d="M370.7,410.6c0.5,0,0.9-0.4,0.9-0.9s-0.4-0.9-0.9-0.9s-0.9,0.4-0.9,0.9
					C369.8,410.3,370.2,410.6,370.7,410.6z"/>
				<path class="st18" d="M375.5,413.7h54.9c0.3,0,0.5,0.2,0.5,0.5l0,0c0,0.3-0.2,0.5-0.5,0.5h-54.9c-0.3,0-0.5-0.2-0.5-0.5l0,0
					C375,414,375.2,413.7,375.5,413.7z"/>
				<path class="st18" d="M370.7,415.1c0.5,0,0.9-0.4,0.9-0.9s-0.4-0.9-0.9-0.9s-0.9,0.4-0.9,0.9S370.2,415.1,370.7,415.1z"/>
				<path class="st18" d="M375.5,418.2h54.9c0.3,0,0.5,0.2,0.5,0.5l0,0c0,0.3-0.2,0.5-0.5,0.5h-54.9c-0.3,0-0.5-0.2-0.5-0.5l0,0
					C375,418.4,375.2,418.2,375.5,418.2z"/>
				<path class="st18" d="M370.7,419.6c0.5,0,0.9-0.4,0.9-0.9s-0.4-0.9-0.9-0.9s-0.9,0.4-0.9,0.9S370.2,419.6,370.7,419.6z"/>
				<path class="st18" d="M398.7,381.2h16.1c0.5,0,0.9,0.5,0.9,1l0,0c0,0.6-0.4,1.1-0.9,1.1h-16.1c-0.5,0-0.9-0.5-0.9-1.1l0,0
					C397.8,381.7,398.2,381.2,398.7,381.2z"/>
				<path class="st18" d="M418.7,381.2h11.4c0.5,0,0.9,0.5,0.9,1l0,0c0,0.6-0.4,1.1-0.9,1.1h-11.4c-0.5,0-0.9-0.5-0.9-1.1l0,0
					C417.8,381.7,418.2,381.2,418.7,381.2z"/>
			</g>
			<path class="st7" d="M438.3,359.5H462c1.5,0,2.8,1.3,2.8,2.8v54.1c0,1.5-1.3,2.8-2.8,2.8h-23.7c-1.5,0-2.8-1.3-2.8-2.8v-54.1
				C435.5,360.8,436.7,359.5,438.3,359.5z"/>
			<path class="st13" d="M400,359.5h28.6c1,0,1.8,0.8,1.8,1.8v15c0,1-0.8,1.8-1.8,1.8H400c-1,0-1.8-0.8-1.8-1.8v-15
				C398.2,360.3,399,359.5,400,359.5z"/>
			<path class="st14" d="M460.7,362.2c0.8,0,1.5,0.7,1.5,1.5c0,0.8-0.7,1.5-1.5,1.5s-1.5-0.7-1.5-1.5
				C459.2,362.8,459.9,362.2,460.7,362.2L460.7,362.2z M449.5,362.2c0.8,0,1.5,0.7,1.5,1.5c0,0.8-0.7,1.5-1.5,1.5s-1.5-0.7-1.5-1.5
				C448,362.8,448.7,362.2,449.5,362.2L449.5,362.2z M455.1,362.2c0.8,0,1.5,0.7,1.5,1.5c0,0.8-0.7,1.5-1.5,1.5s-1.5-0.7-1.5-1.5
				C453.6,362.8,454.3,362.2,455.1,362.2z"/>
			<path class="st19" d="M445.4,395.4v-17.3c0-2,0.8-3.9,2.2-5.3c1.4-1.4,3.3-2.2,5.3-2.2s3.9,0.8,5.3,2.2s2.2,3.3,2.2,5.3v24.5
				c0.6,0.3,0.9,0.9,0.9,1.6c0,1-0.8,1.8-1.8,1.8s-1.8-0.8-1.8-1.8c0-0.7,0.4-1.3,0.9-1.6v-24.5c0-1.5-0.6-3-1.7-4.1
				s-2.5-1.7-4.1-1.7c-1.5,0-3,0.6-4.1,1.7s-1.7,2.5-1.7,4.1v17.2c1.7,0.2,3.3,0.9,4.5,2.2c1.4,1.4,2.2,3.3,2.2,5.3v6.7
				c0,0.8-0.3,1.6-0.9,2.2c-0.5,0.5-1,0.8-1.6,0.9c0,0.7-0.6,1.2-1.2,1.2l0,0c-0.7,0-1.2-0.5-1.2-1.2v-1.5c0-0.7,0.6-1.2,1.2-1.2
				l0,0c0.6,0,1.1,0.4,1.2,1c0.2-0.1,0.3-0.2,0.5-0.3c0.3-0.3,0.4-0.6,0.4-1v-6.7c0-1.5-0.6-3-1.7-4.1s-2.5-1.7-4.1-1.7
				c-1.5,0-3,0.6-4.1,1.7s-1.7,2.5-1.7,4.1v6.7c0,0.4,0.2,0.8,0.4,1c0.1,0.1,0.3,0.2,0.5,0.3c0.1-0.6,0.6-1,1.2-1l0,0
				c0.7,0,1.2,0.6,1.2,1.2v1.5c0,0.7-0.6,1.2-1.2,1.2l0,0c-0.7,0-1.2-0.5-1.2-1.2c-0.6-0.1-1.2-0.4-1.6-0.9
				c-0.6-0.6-0.9-1.4-0.9-2.2v-6.7c0-2,0.8-3.9,2.2-5.3C442.3,396.3,443.8,395.6,445.4,395.4z"/>
			<g>
				<g>
					<path class="st19" d="M450.1,412.1c-0.2,0-0.3-0.2-0.3-0.3c0-0.2,0.2-0.3,0.3-0.3h0.6c0.5,0,1-0.2,1.4-0.6s0.6-0.9,0.6-1.4
						v-6.7c0-1.7-0.7-3.3-1.8-4.4c-1.1-1.1-2.7-1.8-4.4-1.8c-1.7,0-3.3,0.7-4.4,1.8c-1.1,1.1-1.8,2.7-1.8,4.4v6.7
						c0,0.5,0.2,1,0.6,1.4s0.9,0.6,1.4,0.6h0.6c0.2,0,0.3,0.2,0.3,0.3c0,0.2-0.2,0.3-0.3,0.3h-0.6c-0.7,0-1.4-0.3-1.9-0.8
						s-0.8-1.1-0.8-1.9v-6.7c0-1.9,0.8-3.7,2-4.9c1.3-1.3,3-2,4.9-2s3.7,0.8,4.9,2c1.3,1.3,2,3,2,4.9v6.7c0,0.7-0.3,1.4-0.8,1.9
						s-1.1,0.8-1.9,0.8H450.1z"/>
					<g>
						<path class="st19" d="M442.7,413.3L442.7,413.3c0.4,0,0.7-0.3,0.7-0.7v-1.5c0-0.4-0.3-0.7-0.7-0.7l0,0c-0.4,0-0.7,0.3-0.7,0.7
							v1.5C442,413,442.3,413.3,442.7,413.3z"/>
						<path class="st19" d="M450,413.3L450,413.3c0.4,0,0.7-0.3,0.7-0.7v-1.5c0-0.4-0.3-0.7-0.7-0.7l0,0c-0.4,0-0.7,0.3-0.7,0.7v1.5
							C449.3,413,449.6,413.3,450,413.3z"/>
					</g>
				</g>
				<path class="st19" d="M459.5,405.4c0.7,0,1.3-0.6,1.3-1.3c0-0.7-0.6-1.3-1.3-1.3s-1.3,0.6-1.3,1.3
					C458.2,404.8,458.8,405.4,459.5,405.4z"/>
				<path class="st19" d="M459.2,404.1v-26c0-1.7-0.7-3.3-1.8-4.4c-1.1-1.1-2.7-1.8-4.4-1.8c-1.7,0-3.3,0.7-4.4,1.8
					s-1.8,2.7-1.8,4.4v18.2h-0.7v-18.2c0-1.9,0.8-3.7,2-4.9c1.3-1.3,3-2,4.9-2s3.7,0.8,4.9,2c1.3,1.3,2,3,2,4.9v26H459.2z"/>
			</g>
		</g>
		<path class="st10" d="M425.8,181.4c0-1,0.8-1.9,1.9-1.9c1,0,1.9,0.8,1.9,1.9v8.4c0,1-0.8,1.9-1.9,1.9c-1,0-1.9-0.8-1.9-1.9V181.4
			L425.8,181.4z M413.1,188.2c-0.7-0.7-0.7-1.9,0-2.6s1.9-0.7,2.6,0l5.9,5.9c0.7,0.7,0.7,1.9,0,2.6s-1.9,0.7-2.6,0L413.1,188.2
			L413.1,188.2z M408.9,202c-1,0-1.9-0.8-1.9-1.9c0-1,0.8-1.9,1.9-1.9h8.4c1,0,1.9,0.8,1.9,1.9c0,1-0.8,1.9-1.9,1.9H408.9L408.9,202
			z M415.7,214.8c-0.7,0.7-1.9,0.7-2.6,0s-0.7-1.9,0-2.6l5.9-5.9c0.7-0.7,1.9-0.7,2.6,0s0.7,1.9,0,2.6L415.7,214.8L415.7,214.8z
			 M429.5,219c0,1-0.8,1.9-1.9,1.9c-1,0-1.9-0.8-1.9-1.9v-8.4c0-1,0.8-1.9,1.9-1.9c1,0,1.9,0.8,1.9,1.9V219L429.5,219z M442.3,212.1
			c0.7,0.7,0.7,1.9,0,2.6s-1.9,0.7-2.6,0l-5.9-5.9c-0.7-0.7-0.7-1.9,0-2.6s1.9-0.7,2.6,0L442.3,212.1L442.3,212.1z M446.5,198.3
			c1,0,1.9,0.8,1.9,1.9c0,1-0.8,1.9-1.9,1.9h-8.4c-1,0-1.9-0.8-1.9-1.9c0-1,0.8-1.9,1.9-1.9H446.5L446.5,198.3z M439.6,185.5
			c0.7-0.7,1.9-0.7,2.6,0s0.7,1.9,0,2.6l-5.9,5.9c-0.7,0.7-1.9,0.7-2.6,0s-0.7-1.9,0-2.6L439.6,185.5z"/>
		<g>
			<path class="st20" d="M234.4,191L234.4,191c7.6,0,13.8,10.6,13.8,23.6v19.2c0,13-6.2,23.6-13.8,23.6l0,0
				c-7.6,0-13.8-10.6-13.8-23.6v-19.2C220.6,201.7,226.8,191,234.4,191z"/>
			<path class="st19" d="M238,241.3l-2.2,0.3l-1.4,0.9l-1.4-0.9l-2.2-0.3L217.6,231l-28.6,9.8l-1.4,27.4c2.1,27.3,8.5,71,8.5,73.1
				s-4.5,16.9-7.3,25.9h45.6h45.3c-2.8-9-7.3-23.8-7.3-25.9c0-2.1,6.7-45.9,8.9-73.1l-1.4-27.4l-28.6-9.8L238,241.3z"/>
			<polygon class="st8" points="237.4,244.6 238.1,247.8 244.3,329.2 234.4,350.3 224.4,329.2 230.7,247.8 231.3,244.6 234.4,246.6 
							"/>
			<path class="st8" d="M230.7,247.8l-2.9-6.4c2.5-2.4,10.7-2.4,13.2,0l-2.9,6.4C236,247.3,232.7,247.3,230.7,247.8z"/>
			<path class="st7" d="M250.7,230l24.1,6.7l2.2,2.5c0.5,0.2,6.3,0.8,6.9,8.4c0.7,8-9.2,91.1-9.2,93.7c0,2.5,4.6,17.1,7.4,26.1
				h-36.9l4.9-136.3C250.2,231,250.2,230.3,250.7,230z"/>
			<path class="st18" d="M281,283.9L281,283.9l-15.1,27.7c0,0-2.7,13-9.9,10.2c-1.3-0.5-4.5-1.3-8.9-2.3l1-28.9h8.6
				c0,0,4.8,0.2,6.9-2.5c2.1-2.6,10.5-18.2,10.5-18.2L281,283.9z"/>
			<path class="st18" d="M278.5,306.6c-2,18.1-3.7,33.6-3.7,34.7c-13.4-4.9-17.7-7.6-22.8-6.9c-1.9,0.2-3.8,1.3-5.6,2.5l1.2-33
				L278.5,306.6z"/>
			<path class="st7" d="M218,230l-23.9,6.7l-2.1,3c-0.5,0.2-6.6,0.3-7.2,7.9c-0.7,8,9.2,91.1,9.2,93.7c0,2.5-4.6,17.1-7.4,26.1h36.9
				l-4.9-136.3C218.5,231,218.5,230.3,218,230z"/>
			<path class="st18" d="M187.4,280.3c0.9,9,2,18.8,3,27.8c7.6,1.5,19.5,3.8,31.2,6.2l-0.8-23.5c-3.5-0.3-9.4-0.9-12.7-1.3
				c-4.8-0.6-6.7-4.7-6.7-4.7L196,269L187.4,280.3z"/>
			<path class="st18" d="M190.7,311.7c1.2,11.2,2.3,20.9,2.8,26c1.1-1.5,2.8-2.9,4.9-2.6c2.9,0.4,16.1,1.6,23.8,2.3l-1.3-35.6
				l-3.5-0.3L190.7,311.7z"/>
			<g>
				<path class="st21" d="M229.1,296.4c-14.8-3.9-16.6-2.7-26.9,3.5c-2.2,1.3-2.2,2.3-1.8,2.7c0,0-0.6,1.7,0.9,2.5
					c0,0-2.2-0.8,0.8-0.1c0,0-0.2,1.2,1.8,1.4c2.1,0.2,7.1,0.3,7.1,0.3c2.9,2.4,10.4,6.4,15.8,3.8L229.1,296.4z"/>
				<path class="st20" d="M228.1,296.1c0,0-0.9-0.2-2.4-0.5c-1.2,3-4.6,11.9-6,15.4c2.4,0.6,4.9,0.6,7.1-0.5L228.1,296.1z"/>
			</g>
			<g>
				<path class="st20" d="M258.9,188.6c0.2,0,0.4,0.1,0.5,0.1l0,0l0,0c3.3,0.7,5.7,3.6,5.8,7.1c0,4.1-3.2,7.4-7.3,7.4
					s-7.4-3.2-7.4-7.3c0-2.4,1.1-4.5,2.8-5.8c-0.2,2.2,0.1,4.9,2.9,5.1l-0.1-4.2C256.1,189.4,257.7,188.6,258.9,188.6z"/>
				<path class="st20" d="M210.4,188.6c-0.2,0-0.4,0.1-0.5,0.1l0,0l0,0c-3.3,0.7-5.8,3.5-5.9,7c-0.1,4.1,3.1,7.4,7.2,7.5
					c4.1,0.1,7.4-3.1,7.5-7.2c0.1-2.4-1-4.5-2.7-5.9c0.2,2.2-0.2,4.9-3,5.1l0.1-4.2C213.2,189.4,211.6,188.6,210.4,188.6z"/>
			</g>
			<path class="st21" d="M234.6,225.4c-13.7,0-25.2-16.9-25.2-30.3v-17.7c0-13.8,11.3-25.2,25.2-25.2l0,0
				c13.8,0,25.2,11.3,25.2,25.2v17.4C259.7,209.4,249.8,225.4,234.6,225.4z"/>
			<g>
				<path class="st22" d="M250.9,197.5c-2.2,0-4,1.9-3.9,4.1c0,2.2,1.9,4,4.1,3.9c2.2,0,4-1.9,3.9-4.1
					C254.9,199.2,253.1,197.4,250.9,197.5z"/>
				<path class="st22" d="M218.2,198.1c-2.2,0-4,1.9-3.9,4.1c0,2.2,1.9,4,4.1,3.9c2.2,0,4-1.9,3.9-4.1S220.4,198.1,218.2,198.1z"/>
			</g>
			<path class="st19" d="M225.7,183.7c0.5,0.2,0.7,0.7,0.4,1.2c-0.2,0.5-0.7,0.7-1.2,0.4c0,0-2.7-1.3-5.3,0.3
				c-0.4,0.3-1,0.1-1.2-0.3c-0.3-0.4-0.1-1,0.3-1.3C222,182,225.6,183.7,225.7,183.7z"/>
			<path class="st19" d="M250.5,184.2c0.4,0.2,0.6,0.8,0.4,1.2c-0.2,0.4-0.8,0.6-1.2,0.4c0,0-2.6-1.5-5.3-0.1
				c-0.4,0.2-1,0.1-1.2-0.4c-0.2-0.4-0.1-1,0.4-1.2C247.1,182.2,250.5,184.1,250.5,184.2z"/>
			<path class="st23" d="M235.3,196.5c0.5,1.3,1.3,3.6,1.2,4c-0.1,0.5-2.9,1-3.6,0.3c-0.5-0.5,0.1-2.6,0.6-4
				C234.2,194.9,234.6,194.8,235.3,196.5z"/>
			<g>
				<path class="st19" d="M239.9,206.6c0,2.9-2.4,5.3-5.3,5.3c-2.9,0-5.3-2.4-5.3-5.3c0-0.5,0.4-1,1-1h8.6
					C239.4,205.6,239.9,206,239.9,206.6z"/>
				<path class="st7" d="M230.8,205.6h7.6v0.9c0,0.5-0.4,0.8-0.8,0.8h-5.9c-0.5,0-0.8-0.4-0.8-0.8v-0.9H230.8z"/>
				<ellipse class="st24" cx="234.6" cy="210.2" rx="3.8" ry="1.6"/>
			</g>
			<g>
				<path class="st19" d="M222.3,194.7c1.7,0,3-1.4,3-3c0-1.7-1.4-3-3-3c-1.7,0-3,1.4-3,3C219.2,193.3,220.6,194.7,222.3,194.7z"/>
				<path class="st19" d="M246.9,194.7c1.7,0,3-1.4,3-3c0-1.7-1.4-3-3-3c-1.7,0-3,1.4-3,3C243.9,193.3,245.2,194.7,246.9,194.7z"/>
			</g>
			<path class="st7" d="M188.3,326.7c-9.9-1.7-14-10.7-13.3-23.3c0.6-12.6,4.7-50.6,7.5-57.3c2.8-6.7,11.6-9.3,11.6-9.3
				c1,3,1.5,17.7,1.5,17.7l0.9,46.6l39.5,2.4l4.4,14.2l-7.5,15.9c0,0-0.3,2.3-3.9,1.6C225.3,334.3,188.3,326.7,188.3,326.7z"/>
			<path class="st18" d="M236.4,304.9l3.9,12.7l-7.5,15.9c0,0-0.3,2.3-3.9,1.6c-1.5-0.3-9.2-1.9-17.5-3.6c2-2.1,2.8-5.1,2.8-5.1
				l5.6-15.3l3.3-2.4C228.7,306.3,233.1,305.2,236.4,304.9z"/>
			<path class="st7" d="M274.8,236.7c0,0,8.8,2.7,11.6,9.3c2.8,6.7,6.9,44.7,7.5,57.3s-3.4,21.6-13.3,23.3
				c-9.9,1.7-48.8,3.8-48.8,3.8s-4.7,1-6-3.5c-1.3-4.5,0.8-31.6,0.8-31.6s-0.1-1.7,2-1.8c2.1,0,43.8,7.4,43.8,7.4l0.9-46.6
				C273.3,254.4,273.8,239.7,274.8,236.7z"/>
			<path class="st21" d="M272.4,301l-12.4-2.2l5.6-9.1l7.9-7.8c0,0,1.5-0.2,1.6,1.1c0.1,1.2-0.5,3.5-0.5,3.5l2.5-1.5
				c0,0,1.3-0.6,1.6,0.9c0.3,1.5-1.3,3.7-1.3,3.7s1.8-0.6,2.6,0.2c0.8,0.8-0.5,4.5-2.2,5.2l2-0.4c0,0,0.8,0.2,0.6,1.5
				c-0.2,1.3-2.1,1.8-3,2.1L272.4,301z"/>
			<polygon class="st20" points="272.4,301 260,298.8 262.7,294.3 272.9,300.7 			"/>
			<path class="st19" d="M209.4,194.2c0,0,2.3-1.2,2.3-7.3c0-6.1-0.4-8,2.9-11.1c3.2-3.1,3.3-6,3.3-6l-9.5-4.3c0,0-4.7,2.5-4.7,7
				c0.1,4.5,3.4,17.4,3.4,17.4S209.4,190.5,209.4,194.2z"/>
			<path class="st19" d="M259.7,194.2c0,0-2.3-1.2-2.3-7.3c0-6.1,0.4-8-2.9-11.1c-3.2-3.1-3.3-6-3.3-6l9.5-4.3c0,0,4.7,2.5,4.7,7
				c-0.1,4.5-3.4,17.4-3.4,17.4S259.8,190.5,259.7,194.2z"/>
			<path class="st19" d="M217.7,176.5c9.2,0,16.8-7.5,16.8-16.8c0-9.2-7.5-16.8-16.8-16.8c-9.2,0-16.8,7.5-16.8,16.8
				C200.9,169,208.5,176.5,217.7,176.5z"/>
			<path class="st19" d="M231.2,175.9c8.7,0,15.8-7.1,15.8-15.8c0-8.7-7.1-15.8-15.8-15.8c-8.7,0-15.8,7.1-15.8,15.8
				C215.4,168.8,222.5,175.9,231.2,175.9z"/>
			<path class="st19" d="M249.8,175.2c7.1,0,12.8-5.8,12.8-12.8c0-7.1-5.8-12.8-12.8-12.8c-7.1,0-12.8,5.8-12.8,12.8
				C237,169.5,242.8,175.2,249.8,175.2z"/>
			<path class="st19" d="M268,159.5c1.5,1.8,0.7,5.6-1.8,8.4c-2.5,2.8-5.7,3.6-7.2,1.7c-1.5-1.8-0.7-5.6,1.8-8.4
				C263.2,158.4,266.5,157.6,268,159.5z"/>
			<path class="st19" d="M242.7,143.7c2.2,0,4.3,2.8,4.8,6.1s-0.9,6-3,6c-2.2,0-4.3-2.8-4.8-6.1
				C239.2,146.3,240.6,143.7,242.7,143.7z"/>
			<path class="st12" d="M248.2,225.7c0,0,1.2-0.2,1.6,0c0.4,0.2,1.8,4.2,2.7,5.4c0,0,0.8,1,0.2,2.7s-8.1,15.5-8.1,15.5
				s-0.5,0.7-1.4,0s-7.4-9.5-7.4-9.5l12.4-11.4V225.7z"/>
			<path class="st12" d="M220.6,225.5c0,0-1.2-0.2-1.6,0c-0.4,0.2-1.8,4.4-2.7,5.6c0,0-0.8,1-0.2,2.7s8.1,15.5,8.1,15.5
				s0.5,0.7,1.4,0s7.4-9.5,7.4-9.5l-12.4-11.4V225.5z"/>
			<path class="st18" d="M273.7,273.2c0,0.4-0.3,0.7-0.7,0.7c-0.4,0-0.7-0.3-0.7-0.7c0-0.1,0.9-29.3,3.7-36.1
				c0.1-0.4,0.6-0.5,0.9-0.4c0.4,0.1,0.5,0.6,0.4,0.9C274.6,244.2,273.7,273.2,273.7,273.2L273.7,273.2z M196.6,271.4
				c0,0.4-0.3,0.7-0.7,0.7s-0.7-0.3-0.7-0.7c0-0.1-1.3-26.4-3.9-33.7c-0.1-0.4,0.1-0.8,0.4-0.9c0.4-0.1,0.8,0.1,0.9,0.4
				C195.3,244.8,196.6,271.3,196.6,271.4z"/>
			<g>
				<path class="st12" d="M220,275.7L220,275.7L220,275.7L220,275.7L220,275.7h0.1l0,0l0,0l0,0l0,0l0,0l0,0l0,0l0,0l0,0l0,0l0,0l0,0
					l0,0l0,0l0,0l0,0l0,0l0,0l0,0l0,0l0,0l0,0l0,0h0.1l0,0l0,0l0,0l0,0l0,0l0,0l0,0l0,0l0,0l0,0l0,0l0,0l0,0l0,0l0,0l0,0l0,0l0,0
					l0,0l0,0l0,0l0,0l0,0l0,0l0,0l0,0l0,0l0,0l0,0l0,0l0,0l0,0l0,0l0,0l0,0l0,0l0,0l0,0l0,0l0,0l0,0l0,0l0,0l0,0l0,0l0,0l0,0l0,0
					l0,0l0,0l0,0l0,0l0,0l0,0l0,0l0,0l0,0l0,0l0,0l0,0l0,0l0,0l0,0l0,0l0,0l0,0l0,0l0,0l0,0l0,0l0,0l0,0l0,0l0,0l0,0l0,0l0,0l0,0
					l0,0l0,0l0,0l0,0l0,0l0,0l0,0l0,0l0,0l0,0l0,0l0,0l0,0c0.6-0.6,1-1.5,1-2.5v-7.3h-0.8v-4.6c0-2.7-1.1-5.3-3-7.3
					c-1.9-1.9-4.5-3-7.3-3c-2.8,0-5.3,1.1-7.3,3c-1.9,1.9-3,4.5-3,7.3v4.6H199v7.3c0,1,0.4,1.8,1,2.5l0,0l0,0l0,0l0,0l0,0l0,0l0,0
					l0,0l0,0l0,0l0,0l0,0l0,0l0,0l0,0l0,0l0,0l0,0l0,0l0,0l0,0l0,0l0,0l0,0l0,0l0,0l0,0l0,0l0,0l0,0l0,0l0,0l0,0l0,0l0,0l0,0l0,0
					l0,0l0,0l0,0l0,0l0,0l0,0l0,0l0,0l0,0l0,0l0,0l0,0l0,0l0,0l0,0l0,0l0,0l0,0l0,0l0,0l0,0l0,0l0,0l0,0l0,0l0,0l0,0l0,0l0,0l0,0
					l0,0l0,0l0,0l0,0l0,0l0,0l0,0l0,0l0,0l0,0l0,0l0,0l0,0l0,0l0,0l0,0l0,0l0,0l0,0l0,0l0,0l0,0l0,0l0,0l0,0l0,0l0,0l0,0l0,0l0,0
					l0,0l0,0l0,0l0,0l0,0l0,0l0,0l0,0l0,0l0,0l0,0l0,0l0,0l0,0l0,0l0,0l0,0l0,0l0,0l0,0l0,0l0,0l0,0l0,0l0,0l0,0l0,0V275
					c0-0.7,0.6-1.3,1.3-1.3l0,0c0.7,0,1.3,0.6,1.3,1.3v2.7c0,0.7-0.6,1.3-1.3,1.3l0,0c-0.7,0-1.3-0.6-1.3-1.3V277l0,0l0,0l0,0l0,0
					l0,0l0,0l0,0l0,0l0,0l0,0l0,0l0,0l0,0l0,0l0,0l0,0l0,0l0,0l0,0l0,0h-0.1l0,0h-0.1l0,0h-0.1h-0.1l0,0h-0.1l0,0l0,0l0,0l0,0l0,0
					l0,0l0,0l0,0l0,0l0,0l0,0l0,0l0,0l0,0l0,0l0,0l0,0l0,0l0,0l0,0l0,0l0,0l0,0l0,0l0,0l0,0l0,0l0,0l0,0l0,0l0,0l0,0l0,0l0,0l0,0
					l0,0l0,0l0,0l0,0l0,0l0,0l0,0l0,0l0,0l0,0l0,0l0,0l0,0l0,0l0,0l0,0l0,0l0,0l0,0l0,0l0,0l0,0l0,0l0,0l0,0l0,0l0,0l0,0l0,0l0,0
					l0,0l0,0l0,0l0,0l0,0l0,0l0,0l0,0l0,0l0,0l0,0l0,0l0,0l0,0l0,0l0,0l0,0l0,0l0,0l0,0l0,0l0,0l0,0l0,0l0,0l0,0l0,0l0,0l0,0l0,0
					l0,0c-0.9-0.9-1.4-2-1.4-3.3v-7.3h-0.8v-4.6c0-3.5,1.4-6.8,3.8-9.2c2.1-2.1,4.7-3.4,7.6-3.7v-4.2h3.1v4.2
					c2.9,0.3,5.7,1.6,7.8,3.8c2.5,2.5,3.8,5.8,3.8,9.2v4.6h-0.8v7.3c0,1.3-0.5,2.5-1.4,3.3l0,0l0,0l0,0l0,0l0,0l0,0l0,0l0,0l0,0l0,0
					l0,0l0,0l0,0l0,0l0,0l0,0l0,0l0,0l0,0l0,0l0,0l0,0l0,0l0,0l0,0l0,0l0,0l0,0l0,0l0,0l0,0l0,0l0,0l0,0l0,0l0,0l0,0l0,0l0,0l0,0
					l0,0l0,0l0,0l0,0l0,0l0,0l0,0l0,0l0,0l0,0l0,0l0,0l0,0l0,0l0,0l0,0l0,0l0,0l0,0l0,0l0,0l0,0l0,0l0,0l0,0l0,0l0,0l0,0l0,0l0,0
					l0,0l0,0l0,0l0,0l0,0l0,0l0,0l0,0l0,0l0,0l0,0l0,0l0,0l0,0l0,0l0,0l0,0l0,0l0,0l0,0l0,0l0,0l0,0l0,0h-0.1l0,0H221l0,0h-0.1h-0.1
					l0,0h-0.1l0,0h-0.1l0,0l0,0l0,0l0,0l0,0l0,0l0,0l0,0l0,0l0,0l0,0l0,0l0,0l0,0l0,0l0,0l0,0l0,0l0,0l0,0v0.7
					c0,0.7-0.6,1.3-1.3,1.3l0,0c-0.7,0-1.3-0.6-1.3-1.3v-2.7c0-0.7,0.6-1.3,1.3-1.3l0,0c0.7,0,1.3,0.6,1.3,1.3v0.6H220z"/>
				<path class="st12" d="M212.9,248.3c0,0.4-0.3,0.7-0.7,0.7s-0.7-0.3-0.7-0.7v-13c0-3.7,1.5-7.1,4-9.5c1.4-1.4,3.2-2.6,5.1-3.2
					v1.5c-1.6,0.6-3,1.5-4.1,2.7c-2.2,2.2-3.5,5.2-3.5,8.5v13H212.9z"/>
				<path class="st12" d="M255.8,267.2c0,0.4,0.3,0.7,0.7,0.7s0.7-0.3,0.7-0.7v-31.9c0-3.7-1.5-7.1-4-9.5c-1.4-1.4-3.2-2.6-5.1-3.2
					v1.5c1.6,0.6,3,1.5,4.1,2.7c2.2,2.2,3.5,5.2,3.5,8.5v31.9H255.8z"/>
				<path class="st12" d="M256.4,270.8c-1.9,0-3.4-1.5-3.4-3.4s1.5-3.4,3.4-3.4s3.4,1.5,3.4,3.4
					C259.9,269.3,258.3,270.8,256.4,270.8z"/>
			</g>
		</g>
	</g>
	<text transform="matrix(1 0 0 1 254.979 560.5988)" class="st25 st26 st27">Voc sabia?</text>
</g>
<g id="Camada_2">
</g>
</svg>
