<?xml version="1.0" encoding="utf-8"?>
<!-- Generator: Adobe Illustrator 24.2.3, SVG Export Plug-In . SVG Version: 6.00 Build 0)  -->
<svg version="1.1" id="Camada_1" xmlns="http://www.w3.org/2000/svg" xmlns:xlink="http://www.w3.org/1999/xlink" x="0px" y="0px"
	 viewBox="0 0 434 127" style="enable-background:new 0 0 434 127;" xml:space="preserve">
<style type="text/css">
	.st0{fill:#FFFFFF;}
</style>
<g>
	<path class="st0" d="M37.3,45.1c-5.3,0-9.4,2-12.3,6s-4.4,9.5-4.4,16.7c0,14.8,5.6,22.2,16.7,22.2c4.7,0,10.3-1.2,17-3.5v11.8
		c-5.5,2.3-11.5,3.4-18.3,3.4c-9.7,0-17.1-2.9-22.2-8.8S6.1,78.6,6.1,67.6c0-6.9,1.3-13,3.8-18.2s6.1-9.2,10.8-12s10.2-4.2,16.6-4.2
		c6.5,0,12.9,1.6,19.4,4.7l-4.5,11.5c-2.5-1.2-5-2.2-7.5-3.1C42.2,45.5,39.7,45.1,37.3,45.1z"/>
	<path class="st0" d="M103.3,100.7l-1.9-6.5h-0.7c-1.5,2.4-3.6,4.2-6.3,5.5c-2.7,1.3-5.8,1.9-9.3,1.9c-6,0-10.5-1.6-13.5-4.8
		c-3-3.2-4.5-7.8-4.5-13.8V49.9H81v29.7c0,3.7,0.7,6.4,2,8.2c1.3,1.8,3.4,2.7,6.2,2.7c3.9,0,6.7-1.3,8.4-3.9
		c1.7-2.6,2.6-6.9,2.6-12.9V49.9h13.9v50.8H103.3z"/>
	<path class="st0" d="M127.9,36.8c0-4.5,2.5-6.8,7.5-6.8s7.5,2.3,7.5,6.8c0,2.2-0.6,3.8-1.9,5c-1.3,1.2-3.1,1.8-5.7,1.8
		C130.4,43.6,127.9,41.3,127.9,36.8z M142.3,100.7h-13.9V49.9h13.9V100.7z"/>
	<path class="st0" d="M173,101.6c-6,0-10.7-2.3-14.1-7c-3.4-4.6-5.1-11.1-5.1-19.3c0-8.3,1.7-14.8,5.2-19.5c3.5-4.6,8.2-7,14.3-7
		c6.4,0,11.3,2.5,14.6,7.5h0.5c-0.7-3.8-1-7.2-1-10.1V30h13.9v70.7h-10.6l-2.7-6.6h-0.6C184.2,99.1,179.4,101.6,173,101.6z
		 M177.8,90.6c3.5,0,6.1-1,7.8-3.1s2.6-5.6,2.7-10.5v-1.5c0-5.5-0.8-9.4-2.5-11.7c-1.7-2.4-4.4-3.5-8.2-3.5c-3.1,0-5.5,1.3-7.2,3.9
		s-2.6,6.4-2.6,11.4s0.9,8.7,2.6,11.2C172.2,89.3,174.6,90.6,177.8,90.6z"/>
	<path class="st0" d="M248,100.7l-2.7-6.9H245c-2.3,2.9-4.7,5-7.2,6.1s-5.7,1.7-9.7,1.7c-4.9,0-8.7-1.4-11.5-4.2
		c-2.8-2.8-4.2-6.8-4.2-11.9c0-5.4,1.9-9.4,5.7-11.9c3.8-2.6,9.5-4,17.1-4.2l8.8-0.3v-2.2c0-5.1-2.6-7.7-7.9-7.7
		c-4.1,0-8.8,1.2-14.3,3.7l-4.6-9.4c5.8-3.1,12.3-4.6,19.5-4.6c6.8,0,12,1.5,15.7,4.5c3.6,3,5.5,7.5,5.5,13.5v33.9L248,100.7
		L248,100.7z M244,77.2l-5.4,0.2c-4,0.1-7,0.8-9,2.2c-2,1.3-3,3.4-3,6.1c0,3.9,2.2,5.9,6.7,5.9c3.2,0,5.8-0.9,7.7-2.8
		c1.9-1.8,2.9-4.3,2.9-7.4v-4.2H244z"/>
</g>
<g>
	<path class="st0" d="M319.3,66.9c0,10.9-3.1,19.3-9.3,25.1c-6.2,5.8-15.2,8.7-27,8.7h-18.8V34.3h20.9c10.8,0,19.3,2.9,25.3,8.6
		C316.3,48.6,319.3,56.6,319.3,66.9z M304.7,67.2c0-14.3-6.3-21.4-18.9-21.4h-7.5v43.3h6C297.9,89.1,304.7,81.8,304.7,67.2z"/>
	<path class="st0" d="M378.2,75.2c0,8.3-2.2,14.7-6.5,19.4c-4.4,4.7-10.4,7-18.2,7c-4.9,0-9.2-1.1-12.9-3.2
		c-3.7-2.1-6.6-5.2-8.6-9.2s-3-8.7-3-14c0-8.3,2.2-14.8,6.5-19.4s10.4-6.9,18.3-6.9c4.9,0,9.2,1.1,12.9,3.2c3.7,2.1,6.6,5.2,8.6,9.1
		C377.2,65.3,378.2,69.9,378.2,75.2z M343,75.2c0,5,0.8,8.8,2.5,11.4s4.3,3.9,8.1,3.9c3.7,0,6.4-1.3,8-3.8c1.6-2.6,2.4-6.4,2.4-11.4
		s-0.8-8.8-2.5-11.3c-1.6-2.5-4.3-3.8-8-3.8s-6.4,1.3-8,3.7C343.9,66.4,343,70.2,343,75.2z"/>
	<path class="st0" d="M418,49c1.9,0,3.4,0.1,4.7,0.4l-1,13c-1.1-0.3-2.5-0.5-4.1-0.5c-4.4,0-7.9,1.1-10.3,3.4
		c-2.5,2.3-3.7,5.5-3.7,9.5v25.9h-13.9V49.9h10.5l2,8.5h0.7c1.6-2.8,3.7-5.1,6.4-6.9S414.8,49,418,49z"/>
</g>
</svg>
